<svg xmlns="http://www.w3.org/2000/svg" viewBox="0 0 2765.87 2040.49"><g id="daube"><path d="M1426.22,590.32c33.91,33.11,30.17,85.14,12.83,125.45C1421.14,757.39,1392.31,795,1359.5,826a365.27,365.27,0,0,1-52.19,41c-9.18,6-18.65,11.34-28.24,16.57-8.42,4.59-17.13,10-21.15,19.14-4.8,10.86-1.75,23.1.81,34.13a310.15,310.15,0,0,0,9.87,33.69,320.36,320.36,0,0,0,30.28,62.76c24.28,38.75,63.68,85.92,115,77.55,3.21-.52,4.53-4.82,3-7.34-21-34.32-32.94-74.69-30.36-115.08a149,149,0,0,1,14.88-56.39c7.76-15.73,17.86-30.18,28.4-44.15,20.69-27.44,44.22-53.86,56.67-86.39a117.37,117.37,0,0,0,6.91-55.62c-2.53-21.95-8.93-43.54-16-64.4a479.27,479.27,0,0,0-65.6-126.82c-3-4.17-11.45-1.83-9.14,3.85a231.16,231.16,0,0,1,13.21,126.91c-7.71,43.46-27.62,83-57.2,115.65-30.15,33.3-67.22,59.19-103.85,84.76-7.84,5.47-17,11-21.22,20-4.71,9.93-1.88,21.46,1.23,31.45,6.73,21.63,19.55,40.6,33.11,58.49,15.37,20.28,31.2,40.21,46.82,60.29l24.33,31.26c7.36,9.46,14.25,19.81,23,28.11,6.79,6.47,15.65,12.61,25.46,12.18,10-.43,17.29-7.61,21.44-16.19,10.21-21.15,9.51-45.53,7.23-68.31-2.31-23-5.49-45.62-3.61-68.77a214.88,214.88,0,0,1,15.71-64.54,209.32,209.32,0,0,1,34.46-56.29c13.12-15.27,28.17-28.78,41-44.31,12.14-14.68,22.4-31.28,24.93-50.5,3.07-23.26-6.12-45.41-17.12-65.38-12.5-22.7-26.27-44.75-39.47-67.05l-40.55-68.52-20.28-34.26c-2.4-4.07-9.67-2.59-9.31,2.52,3.52,50.28,7.15,101.49-1.3,151.49-7.82,46.2-27,89.4-58.69,124.23-15,16.51-32.16,30.1-50.82,42.22-16.37,10.63-34.18,21.83-43.76,39.49-11.82,21.78-6.27,46.58.6,69,6.63,21.61,13.44,43.72,25.22,63.17a119.31,119.31,0,0,0,25.31,29.45c10.25,8.65,21.42,16.14,31.68,24.79a245.09,245.09,0,0,1,52.06,61.24,5.1,5.1,0,0,0,6.84,1.8c30.83-17.38,42.37-53.37,44.77-86.73,3.1-43.07-10.51-87,1.2-129.5,5.93-21.5,19-39.82,31.2-58.12A381.9,381.9,0,0,0,1499,799.46c8.74-19.93,17.52-41.49,20.41-63.19,3.06-23-7.26-41.61-18.68-60.67L1414.5,531.76c-3.3-5.51-12-.49-8.63,5l73.9,123.29c6.14,10.24,12.42,20.41,18.39,30.76,5.31,9.2,10.31,19,11.62,29.65,1.38,11.31-1.4,22.59-4.6,33.35-3.1,10.45-6.71,20.75-10.76,30.87a353.63,353.63,0,0,1-30.12,58.48c-11.26,17.66-24.24,34.43-32.76,53.69-18.34,41.51-8.52,86.15-7.33,129.72,1,35.38-6.61,78.67-40.24,97.62l6.84,1.8a254.4,254.4,0,0,0-44-54.75c-17.29-16.2-38.69-28.08-54.34-46-15.17-17.33-23.35-39.52-30.33-61.12-7.1-22-17.62-48.27-8.35-71.12,7.59-18.69,26.2-30,42.36-40.49,18-11.68,34.81-24.65,49.59-40.27,31.13-32.89,52.13-73.83,61.79-118,12.07-55.26,8.31-112.35,4.39-168.3l-9.32,2.53,79.08,133.61c12.18,20.59,26.59,41.26,33.82,64.27,6.34,20.19,4.1,40.1-6.53,58.32-9.83,16.84-24,30.63-37.48,44.56-14.11,14.62-27.22,29.88-37.7,47.37a224.25,224.25,0,0,0-31.85,121.41c.73,23.08,5.57,45.85,5.64,69,0,11.16-1.18,22.27-4.76,32.88-3,8.94-8.77,20.26-20.1,17.14-9.84-2.72-17.21-11.93-23.21-19.62q-11.88-15.24-23.72-30.48l-46.82-60.18c-13.89-17.85-28.3-35.71-38.19-56.18-4.68-9.7-9.3-21.17-9.72-32.06-.44-11.34,9.11-17.3,17.4-23.09,35.3-24.63,71.06-49.44,101-80.6,29.14-30.31,50.88-66.45,61.7-107.22a244.15,244.15,0,0,0,.66-122.93,227.9,227.9,0,0,0-9.57-28.82l-9.14,3.86a470.46,470.46,0,0,1,60.5,112.86c14.2,38.45,28.62,82,14.62,122.42-11.35,32.77-35.58,59.48-56.19,86.69-10.57,14-20.75,28.36-28.64,44a161,161,0,0,0-16.17,54.62c-5,44.56,7.85,90.28,31,128.22l3-7.35c-45.14,7.36-81-37.3-102.32-70.78a308.82,308.82,0,0,1-30.36-61.74,312.35,312.35,0,0,1-9.76-32.83c-2.53-10.61-6.83-24.25,1.12-33.56,6.54-7.67,17.39-11.64,25.94-16.56q14-8,27.23-17.3a381.46,381.46,0,0,0,49.9-41.57c31-30.71,58.29-67.45,75.42-107.75,18.71-44,21.69-100-15.09-135.92-4.61-4.5-11.69,2.57-7.07,7.07Z" transform="translate(-71.64 -521.16)"/><path d="M1628.32,690.27c28.35,38.6,46.27,87.35,31.58,134.88-13,42.24-46,75-76.78,105.08-32.42,31.68-65.93,64.48-83.1,107.38-15.74,39.34-10.79,82.43,15.06,116.18,27.41,35.78,70.34,57.84,113,69.71a5.06,5.06,0,0,0,6.15-3.49c4.2-17.85-4.68-33.69-14.13-48.18-5-7.61-10.24-15.12-14.08-23.38a78.81,78.81,0,0,1-6.92-29.68c-1.83-42.81,23.51-79.3,47.4-112.45,24.76-34.36,47-70,65-108.39a616.86,616.86,0,0,0,23.83-58.65c3.38-9.72,7.29-19.95,6.92-30.42-.35-10.17-5.31-18.41-11.36-26.26-32.21-41.72-65.19-82.86-97.79-124.28-3.68-4.69-10.23,1.27-7.85,6.06,42.17,84.55,22,192.55-46.22,257.28-34,32.24-77.51,58.22-96.23,103.22-18.44,44.32-8,97.53,20.46,135.25,33.7,44.75,88.83,67.85,143.54,72.31,2.67.22,5-2.47,5-5-.5-39.25-34.48-65.62-43.12-102.17-5.44-23,5.26-44.09,16.64-63.41,12.71-21.56,25.59-43,39.06-64.15,13.78-21.57,28.27-42.73,44.27-62.72,14.61-18.26,31.12-35.45,42.31-56.17,21.42-39.63,15.52-86.75-4.49-125.69-24-46.63-66.94-79.6-107.64-110.84-3.4-2.62-8.81,1.74-7.34,5.64l7.5,20c2.24,6,11.91,3.38,9.65-2.66l-7.51-20-7.35,5.65c36,27.66,73.55,56.51,97.62,95.81,22.75,37.13,32.69,85.39,11.73,125.54-10.78,20.65-27.11,37.6-41.56,55.65A725.38,725.38,0,0,0,1658.8,988c-13.47,20.85-26.2,42.16-38.9,63.49-11.43,19.19-23.81,40.07-22.71,63.25,1,20.75,11.73,39,22.23,56.33s22.14,35.47,22.41,56.4l5-5c-48.68-4-97.6-23.66-129.95-61.25-30.41-35.34-43-88.3-25-132.26,18.27-44.57,63.22-70.16,96.44-102.31,32.78-31.74,54.79-73.26,63.94-117.89,10.3-50.22,4.59-103.38-18.36-149.4l-7.86,6.06,85.23,108.31c6.6,8.39,15.27,16.95,19.28,27s.18,21.08-3.11,30.83a588.76,588.76,0,0,1-23,58.1c-17.44,37.93-39,73.46-63.38,107.3-23.29,32.33-47.32,65.9-51.43,106.73a95.75,95.75,0,0,0,13.8,60.7c9.56,15.56,25.86,33.28,21.21,53l6.15-3.49c-38-10.57-75.74-29.29-102.14-59.26-12.52-14.2-21.8-31.13-25.81-49.7-4.63-21.46-1.44-43.64,6.56-63.9,33.1-83.71,129.13-123.07,158.76-208.86,17.66-51.13-.31-104.9-31.18-146.91-3.77-5.14-12.45-.15-8.63,5Z" transform="translate(-71.64 -521.16)"/><path d="M1900.17,644.27c15.14,40.84,27.37,87.89,8.18,129.58A85.37,85.37,0,0,1,1869,815c-9.58,5-19,9.74-26.87,17.32-7.6,7.34-13.63,16.2-19.65,24.83-27.47,39.37-53.62,80.1-76.47,122.35-10.51,19.45-17.59,39.67-14.15,62,3.27,21.26,14.24,40.73,27.05,57.68,29.35,38.85,69.31,67.35,108.67,95.18,2,1.44,5.82.54,6.84-1.79,8.78-20,7.07-41.3,3.57-62.37-3.6-21.67-7.77-42.74-5.54-64.82,4.25-42,25.74-80.35,48-115.33,23.45-36.81,49.49-71.94,66.58-112.4,16.2-38.34,24.18-82.25,8.83-122.24-14.63-38.1-47.62-68-87.12-78.47a5.05,5.05,0,0,0-6.33,4.82c-.32,48.53-.71,98.34-16.44,144.81-15.32,45.28-47.41,80.07-78.86,114.85-30.19,33.39-59.45,68.77-71.9,112.94-6,21.14-7.56,43.77-2,65.17s18.25,40,33.64,55.62c37.08,37.63,86,65,135.74,81.73,4.39,1.47,7.5-3.71,5.64-7.35-38-74.26-36.9-167,2.72-240.37,19.84-36.78,49.84-66.84,69.82-103.52,9.66-17.73,16.41-36.69,18.83-56.78,2.32-19.33.49-39.07-4.34-57.89C1984,707,1957,667.68,1923.72,637.45l-6.06,7.85c30.09,21.19,50,53.92,60.21,88.85,11.94,40.85,10.34,84.19,2.59,125.67a632.22,632.22,0,0,1-16.56,66c-5.87,19.46-12.31,38.85-20.94,57.29-8.55,18.27-19.17,35.48-32.86,50.36-13,14.14-27.94,27.22-35.92,45.11-18.85,42.24,2.3,89.39,21.29,127.55l3-7.35a75.8,75.8,0,0,1-60.06-3.83c-20.3-10.42-31-28.87-41.24-48.42-5.33-10.22-10.84-20.25-17.82-29.47-6.75-8.91-14.27-17.18-21.51-25.69-15.26-17.94-27-37.11-27.7-61.31-1.56-51.95,36.11-94.23,65.76-132.91l49.55-64.65c15.22-19.86,30.47-39.78,43.65-61.08,28.36-45.84,47.4-102.34,29.78-155.71-2-6.08-11.66-3.47-9.64,2.66,16.49,49.95-1.1,102.57-27.36,145.7-13.18,21.65-28.56,41.85-44,62l-51.25,66.86c-30.29,39.52-66.77,81.82-66.57,134.56.09,24.27,9.66,44.88,24.54,63.58,7.18,9,15.08,17.48,22.37,26.42a177.23,177.23,0,0,1,19.22,29.73c11.84,22.43,23.63,44.38,47.13,56.41,20.8,10.65,45.71,12.83,67.77,4.84a5.08,5.08,0,0,0,3-7.34c-17.18-34.51-38.14-78.93-21.3-117.45,8.07-18.45,24.06-31.39,37.12-46.14,13.4-15.15,23.94-32.54,32.38-50.87s14.91-37.3,20.74-56.51a641,641,0,0,0,16.87-66.68c7.84-41.49,10-84.77-.76-126-10.42-39.85-32.43-76.84-66.45-100.79-4.64-3.27-10.24,4.06-6.06,7.85,29.86,27.12,54.38,61.45,66.46,100.2,5.84,18.77,8.59,38.41,7.09,58-1.56,20.43-8.29,39.89-18.06,57.8-20,36.66-50,66.74-69.82,103.51-19.35,35.87-29.91,76.22-31.6,116.9a269.68,269.68,0,0,0,28.89,133.57l5.65-7.35c-44.51-15-86.83-38.66-121.83-70.1-16.21-14.57-31-31.75-38.27-52.63s-6.61-43.21-1.12-64.36c11.47-44.12,40.83-79.21,70.75-112.27,30-33.21,60.67-66.52,77.29-108.83,19.54-49.77,20-104.58,20.37-157.28l-6.33,4.82c34.2,9,63.16,33.81,77.82,66,17.24,37.83,10.45,80.72-4.66,118-31,76.42-98.47,136-114.48,218.9-4.33,22.42-3.25,44.28.62,66.66,4,23.26,10.3,48.78.37,71.43l6.85-1.79c-34.87-24.66-70.21-49.75-97.91-82.64-13.76-16.34-26.22-35-31.53-55.9a69.89,69.89,0,0,1-.71-33c2.5-10.79,7.32-20.78,12.59-30.46,22.54-41.38,48.05-81.35,75-120,6.21-8.92,12.34-18.09,20.38-25.51s18.07-11.49,27.49-16.66a91.54,91.54,0,0,0,37.8-40c22.23-44.8,10.65-95.38-5.88-140-2.22-6-11.89-3.39-9.65,2.66Z" transform="translate(-71.64 -521.16)"/><path d="M1089.42,792.69c-14.36.76-17.13,16.83-15.59,28.44,1.22,9.13,4.05,18.19,6.33,27.11,2.6,10.15,5.27,20.28,7.74,30.46,4.76,19.69,8.82,39.66,9.62,59.95a171.35,171.35,0,0,1-8,58.32c-6,19-14.35,37.06-22.93,55-8.44,17.61-18.07,35.39-21.85,54.73-3.15,16.17-1.47,32.8,6.84,47.2,7.14,12.37,18.25,22.06,30.38,29.38,29.19,17.6,64.8,23.18,98.26,25.63q15.38,1.13,30.82.93c9.1-.12,18.81.12,27.73-1.93,6.58-1.52,13-5.31,15-12.14,2.64-9-3.28-17.79-7.33-25.39l-30.28-56.78c-9.46-17.74-19.45-35.32-27.91-53.58-8.16-17.59-14.59-36.58-14-56.2.54-19.17,8.14-37.22,15.38-54.68,12-28.92,24.91-64.49,7.8-94.27-9-15.7-25.19-23.34-41.08-30.39l-57.56-25.51-28.78-12.75c-3.48-1.55-9.09,1.11-7.34,5.65,28.57,74.25,61.5,166.82,8.55,238.63-5.92,8-12.5,15.63-17.71,24.18a79,79,0,0,0-10.35,27.56c-3.49,20-.75,40.29,2.16,60.19,2.81,19.17,6.33,38.86,19.33,54,11.34,13.23,28,20.79,44.42,25.49,40.74,11.65,85.41,12,126.83,4,8-1.54,20.07-2.37,25.72-9.12s2.42-17.17.2-24.73c-4.76-16.23-13.42-31-22.6-45-9.49-14.54-19.75-28.67-27.5-44.25a102.64,102.64,0,0,1-10.36-56.14c2-22.76,9.23-44.7,13.51-67.06a371.29,371.29,0,0,0,6.65-66.35c.38-39.29-3.55-81.6-34.11-109.78-29.48-27.18-69.92-35.27-108.71-37.55-10.88-.64-21.78-.88-32.67-1.12-3.05-.07-5.94,3.28-4.82,6.33,26.83,73.19,55.57,153.85,28.55,231.34a150.36,150.36,0,0,1-25.27,45.94c-10.71,13-28,22.93-33.21,39.63-5.36,17.07,4.32,34,15.16,46.61,12.48,14.47,28.34,26.5,43.44,38.1A540,540,0,0,0,1184,1239.85c5.85,2.53,11-6.08,5-8.64A539.12,539.12,0,0,1,1088.13,1174a473.6,473.6,0,0,1-45-36.41c-12-11.06-27.65-28.36-22.57-46.17,2.43-8.52,9.47-14.55,15.77-20.31a154.3,154.3,0,0,0,18-19.25,163,163,0,0,0,23.94-43.84c12.19-33.11,14.6-69.29,10.4-104.13-5.65-46.86-21.75-91.38-37.91-135.44l-4.82,6.33c39.19.86,80.7,1.77,115.54,22.05,15.22,8.86,28.46,21.11,36.74,36.79,9.13,17.28,11.66,37.27,12.7,56.52a363.67,363.67,0,0,1-2.34,65.31c-2.69,21.23-8.19,41.77-12.7,62.64-4.41,20.42-7.29,41.5-2.91,62.18,3.29,15.55,10.66,30,18.93,43.42,8.75,14.22,18.7,27.66,27.12,42.08a143.15,143.15,0,0,1,10.56,21.49,100.7,100.7,0,0,1,3.45,11c.89,3.53,3.4,10.27,0,12.94-3.24,2.55-9.61,3-13.46,3.82q-7.79,1.69-15.65,2.94a279.29,279.29,0,0,1-94.27-1.45c-17-3.24-34.64-7.91-48.76-18.42-15.46-11.5-21.19-29.15-24.33-47.43-3.28-19.15-6.4-39.06-4.76-58.53a73.15,73.15,0,0,1,7.73-27.93c4.52-8.61,10.7-16.17,16.61-23.84,23-29.87,33.14-65.85,33.08-103.33-.06-40.9-12-80.61-26-118.66-3.58-9.75-7.31-19.45-11-29.14l-7.34,5.64,54,23.92c17.12,7.59,35.33,14.18,51.53,23.64,13.85,8.09,22.39,20.48,24.49,36.43,2,14.81-1,30-5.73,44-5.74,16.86-13.83,32.83-19.25,49.81-5.3,16.62-7.1,33.57-4.23,50.83,2.9,17.43,10,33.94,17.81,49.67,8.51,17.11,17.81,33.84,26.8,50.7l28.41,53.28c3.52,6.6,10.2,16.77-.06,20.4-7.57,2.69-16.78,2-24.68,2.22-34.9.74-71.93-2.43-104.89-14.63-24.51-9.07-50.07-25.87-55.11-53.41-3.41-18.6,3.83-37.5,11.46-54.13,7.74-16.86,16.23-33.36,23.47-50.45,7-16.48,13-33.45,16.16-51.12,3.31-18.54,3.29-37.34,1-56s-6.55-36.9-11.17-55.06c-2.34-9.23-4.77-18.44-7.08-27.68-1.85-7.43-4.46-15.12-4.3-22.85.08-4,.77-11.46,6-11.74,6.4-.33,6.44-10.34,0-10Z" transform="translate(-71.64 -521.16)"/><path d="M694.15,1244.45c243.59-24.18,486.56,16.47,729.48,29.74,121.27,6.62,241.68,2.73,362.64-7.33,120.26-10,240.49-23.23,361.29-23.86,61.3-.31,122.74,2.62,183.49,11.07q21.1,2.94,42.09,6.77c13,2.39,26.83,4.75,38.44,11.48,23,13.34,25,40.79,13.64,62.83-12.34,24-38.42,35.39-63.37,41.6-27.66,6.87-56.53,10-84.77,13.51a1663,1663,0,0,1-183.77,12.32c-60.57.7-120.76-3.14-181.16-7-30.39-2-60.84-3.45-91.3-2.8-31.58.66-63,3.79-94.43,6.87-61,6-121.05,8-182.26,4.38-62.4-3.7-124.72-9.09-187-14-123.31-9.71-246.68-19.31-370.33-23.6-62.43-2.16-124.92-3-187.38-1.75-52,1-104.1,3-156-.83-52.91-3.87-106.32-14.2-153.63-39.1-5.4-2.84-10.72-5.84-15.91-9-10.08-6.25-8.39-13.64-1.51-21.27,8.18-9.07,18.72-16.24,29.47-21.91,21.73-11.44,46.43-16.57,70.68-19,55.39-5.59,112.22-2,167.78-1.3q94,1.18,188.07,3.32c248,5.33,496,13.26,744.09,9.4,124-1.93,247.68-9.26,371.58-14.48,62.48-2.63,125.08-4,187.59-1.25,30.11,1.31,60.19,3.51,90.12,7,27.78,3.27,56.9,6.44,83.73,14.73,21.17,6.55,45.57,20.68,43.08,46.47-2.62,27.16-30.33,45.19-53.49,54-25.95,9.88-53.8,13.12-81.35,14.73-30.75,1.79-61.59,2.43-92.37,3.54l-372.65,13.38L1476,1416.46c-61.59,2.21-123.6,5.27-184.72-4.62-57.55-9.31-113.65-26.33-172-30.85-61.7-4.78-123.48,1.55-185.07,5a1365,1365,0,0,1-178-1.37,1329.86,1329.86,0,0,1-182.13-26.3c-13.85-3-27.67-6.17-41.41-9.63-6-1.53-12.71-2.84-18-6.22-9.7-6.15-8.43-15.22-3.63-24.54,10.86-21.11,32-34.61,53.5-43,21.79-8.5,44.9-12.77,67.89-16.54,30.44-5,61.09-8.65,91.82-11.27,61.17-5.23,122.62-6.36,184-5.55,123.11,1.62,246.15,9.34,369,16.31,123.47,7,247,13.92,370.65,16.08,122,2.14,243.56-1.92,365.22-11.52,116.35-9.17,235.54-19.12,350.57,6.54,25.76,5.75,56.69,11.48,78.95,26.47,10.87,7.32,19.79,19.31,18.85,33.06-1.14,16.7-18.68,23.7-32.1,28.91-26.14,10.12-54,14.74-81.58,18.92q-46.76,7.1-93.53,14l-180.47,27c-61.1,9.14-122.85,18.3-184.8,14.47-60-3.7-117.61-22.5-177.17-29.25-60-6.81-120.47-4.12-180.55-.4-61.89,3.83-123.62,7.48-185.67,7.44-60.84,0-121.66-2.36-182.42-5.37-124-6.16-248-13.42-372-20.2-30.89-1.68-61.83-3.06-92.7-5.12-30.13-2-56.89-8.39-84.36-20.85-21.58-9.79-43.32-19.08-67.56-16.34-11.14,1.26-23.14,4.67-34.36,2.54-17.76-3.37-17.64-21.94-11.29-35.39,19.47-41.16,70.48-54.09,111.13-62.39,58.44-11.93,119.85-24.1,179.55-15,27.8,4.24,53.55,15.08,80.54,22.43,26.29,7.16,52.73,7.88,79.73,5,54.74-6,108.57-21.62,161.89.21,23.42,9.59,45.7,21.81,71.34,24.29,23.87,2.3,47.74-3.45,70.28-10.82,23-7.52,45.35-17,68.76-23.21,25.47-6.75,50.45-7.62,76.14-1.3,26.18,6.44,51,17.51,77.35,23.3,25,5.51,49.66,4.21,74.52-1.56,26.65-6.19,52.39-16.17,79.47-20.53,29-4.66,58.18-.84,86.73,4.93,26.64,5.38,53,12.25,80,15.67s53.7,1.7,80.46-3.42c28.62-5.49,56.75-13.53,85.85-16.25,29.55-2.76,59.29-1.2,88.85.56,55.47,3.32,110,6,163.41-12.08,25.66-8.67,51.7-20.36,79.06-22.16,12.45-.83,25.06.69,36.34,6.3,11.63,5.78,20.37,15.35,29.12,24.69,14.43,15.42,28.93,26.11,49.48,31.66,15.74,4.24,38.33,5.69,50,18.45,20.73,22.73-16.41,52.66-33.63,63.62a135.85,135.85,0,0,1-72.49,21.43c-27.12,0-53-6.68-80.13-1.91s-52.7,16.37-79.21,23.93c-54.4,15.51-112.5,13.32-165.87-5.11-6.1-2.11-8.71,7.55-2.66,9.64,55,19,115.2,21.08,171.19,5.11,27.61-7.87,54.14-20.25,82.72-24.5,31.06-4.63,61.79,5.72,92.91,1.49a145.87,145.87,0,0,0,66.43-26.82c17.11-12.58,39.2-32.56,36.17-56.14-5.07-39.45-64-32.13-89.08-50.18-19.92-14.36-31.74-36.84-55.34-46.44-23.26-9.45-49-5-72.33,1.91-26.48,7.82-51.81,19.3-79,24.74-30.18,6-61.21,5.81-91.82,4.38-30.3-1.42-60.56-4.18-90.92-4-29.07.11-57.16,4.09-85.51,10.31-30.05,6.59-60.08,13.91-91.08,12.78-29.86-1.09-59-8.43-88-14.69-26.82-5.78-54.23-11-81.8-9.84-28.58,1.18-55.69,10.23-83,17.92-29.25,8.25-58,13.14-88.14,6.52-26.36-5.79-51.18-16.86-77.35-23.3a156.88,156.88,0,0,0-73.9-.57c-25.14,5.77-48.95,15.93-73.34,24.09-24.13,8.07-49.74,14.68-75.36,10.87-27.85-4.14-51.9-20.23-78.41-28.69-54.57-17.4-110.79,2.82-165.81,6.13-31.21,1.87-59.27-4.8-88.69-14.5-27.72-9.14-55.28-15.69-84.54-17-29.67-1.28-59.35,1.77-88.65,6.27-28.21,4.33-56.61,9.3-84.34,16.12-39.2,9.65-85.85,27.84-100.49,69.46-7.11,20.21,1.23,41.32,24,43.81,9.66,1.06,19.39-.89,28.92-2.18a89.93,89.93,0,0,1,43.4,4.58c26.46,9.34,49.75,23.39,77.8,28.22,30.83,5.3,62.66,5.41,93.84,7.11,128.66,7,257.31,14.37,386,21,64.72,3.35,129.5,6.12,194.31,6.37,63.38.24,126.44-3.23,189.67-7.18,64-4,128.5-7.09,192.28,1.08,62.07,8,122,27.27,184.89,29,61.68,1.71,122.91-8.18,183.71-17.28l192.24-28.77c30.55-4.57,61.23-8.66,91.67-14,27.22-4.72,58.5-10.42,82-25.91,18.35-12.09,22-34.07,10.67-52.66-13-21.35-40.25-28.78-62.71-35.38-116.42-34.23-239.57-27.62-359.06-18.45-61.33,4.7-122.59,9.68-184.07,12.06-65,2.51-130.09,3-195.14,2-258.69-3.66-516.56-31.29-775.26-32.84-62.65-.38-125.38,1.51-187.73,7.94-30.82,3.18-61.65,7.26-92.08,13.1-21.84,4.19-43.71,10-63.54,20.3-18.39,9.55-35.05,23.7-44.12,42.66-4.54,9.48-6.46,20.28.57,29.07,6.83,8.52,18.24,11.35,28.34,13.89a1324.6,1324.6,0,0,0,180,32.05,1337.15,1337.15,0,0,0,189.08,7.21c64.26-2.1,128.38-9.92,192.74-8,63.33,1.83,123.49,18.88,185.44,30s124.16,9.6,186.72,7.35l781.35-28.07c55-2,115.65,1.07,166.42-23.78,20.24-9.9,40.66-27.8,45.71-50.71,4.31-19.58-4.57-38-20.47-49.47-18.47-13.31-42-17.4-63.94-21.22-31.1-5.42-62.49-9.11-94-11.59-63.59-5-127.46-5.12-191.19-3.22-130.58,3.9-260.86,13.22-391.51,15.67-129.31,2.42-258.66,1.5-388-.7s-258.74-5.71-388.12-8.46q-98-2.08-196.06-3.34c-56-.64-114.21-5-169.82,3.8-22.78,3.59-45.51,10.21-65.26,22.39-13,8-41.44,27.11-31.74,45.88,4.84,9.38,18.47,14.67,27.26,19.29a308.92,308.92,0,0,0,37.29,16.5c24.79,9.12,50.64,15.14,76.73,19.05,54.12,8.12,109,7.67,163.58,6.54,61.56-1.27,123.06-1.77,184.63-.23,130.32,3.25,260.36,13,390.28,23.22,63.66,5,127.3,10.34,191,14.57a1177.61,1177.61,0,0,0,194.25-3c31.4-3.07,62.83-6.3,94.38-7.16,33.11-.9,66.22.81,99.25,3,63,4.12,125.78,7.76,189,6.58a1668.56,1668.56,0,0,0,191.45-14.65c45.85-6.16,110.07-9.74,136-55.12,9.62-16.84,13.34-38.49,5.08-56.62-9.86-21.61-33.32-29.25-54.9-33.52-60.78-12-123-17.31-184.92-19-125.82-3.37-251.3,9.46-376.47,20.35-127.4,11.08-254.2,17.47-382,11.13-126.54-6.28-252.51-20.47-378.84-29.69-121.88-8.89-244.46-13-366.27-.86-6.35.63-6.41,10.64,0,10Z" transform="translate(-71.64 -521.16)"/><path d="M2373.55,1439.32c19.86-24.3,54.93-18.82,82.42-17,16.63,1.07,33,.3,48.84-5.11,14-4.75,26.93-11.85,39.85-18.83,13.25-7.15,26.63-14.34,41.18-18.47,16.58-4.7,33.9-5.35,51-3.77,17.44,1.62,34.6,5.6,51.5,10.07,8,2.12,16.05,4.15,23.89,6.72,6.41,2.09,13,5.07,16.14,11.42s3.76,13.28,7.75,19.17a46.12,46.12,0,0,0,12.07,11.69c9.71,6.81,21.63,10.94,29.77,19.82,9,9.85,9.34,24.14,5.27,36.24-4.68,13.87-15.51,24.11-27.76,31.54-13.06,7.91-27.55,13-41.81,18.3q-24.65,9.09-49.55,17.43-49.82,16.68-100.56,30.38t-102.19,24.35q-25.72,5.31-51.6,9.87c-13.47,2.37-28.25,6.18-41.95,3.37-5.9-1.21-11.3-3.77-14.78-8.85l-1.79,6.84c66-29,138.25-38.33,208.45-52,35.28-6.88,70.46-14.9,104.34-27s65.77-29.35,100-40.63a240.71,240.71,0,0,1,26.51-7.18c7.69-1.58,15.61-2.26,23.17-4.42,14.83-4.22,24.19-15.62,23.81-31.3-.75-30.56-27.05-56-51.25-71-28.68-17.77-62.28-27.84-95.71-31.23a233.53,233.53,0,0,0-52.85.63,240,240,0,0,0-25.24,4.53c-9.27,2.21-18.47,5.45-28,6.29-9.31.81-17.43-2.24-26.45-3.81a44.63,44.63,0,0,0-25.27,3c-8.06,3.31-15.55,7.84-23.26,11.88q-12.13,6.35-24.57,12.1a549,549,0,0,1-105.73,36.19q-13.33,3.11-26.82,5.54l2.66,9.64c63.69-26.19,128.45-51.89,196.79-62.9,62.35-10,129.35-6.85,187.34,20,13.2,6.11,27.16,13,37.59,23.4,5,4.95,9.11,10.9,10.68,17.84,1.88,8.32-.26,17-3.35,24.71-9.87,24.78-29.29,44.86-51.17,59.53-22.36,15-47.5,25.32-73.1,33.31-31.5,9.84-64,16.83-96.54,22.35-34.47,5.86-69.12,8.94-104,11.42-32,2.27-64.49,5-94.93,15.65a186.28,186.28,0,0,0-22.14,9.35c-5.33,2.65-1.43,10.19,3.85,9.13,74.45-14.83,148.92-29.68,222.72-47.51,36.86-8.91,73.56-18.57,109.93-29.33,29.88-8.84,61.13-17.49,87.41-34.82,21.78-14.35,52.13-44.51,36.9-73-3.8-7.11-9.92-12.83-15.49-18.54s-11.22-11.43-17-17c-11.58-11.13-23.79-21.73-37.21-30.6a138.72,138.72,0,0,0-43.46-19.5c-17.62-4.28-35.86-5-53.9-5.55-35.38-1.08-71.12-2.06-106.1,4.36a213.11,213.11,0,0,0-50.08,15.86c-15.77,7.2-31,15.81-47.52,21.18-25.21,8.18-54.91,7-77.18,22.92a54.12,54.12,0,0,0-13.07,13.38c-3.68,5.3,5,10.3,8.63,5,14.69-21.19,44.83-22.59,67.8-27.43,31.61-6.66,58.11-25.45,88.64-35.06,32.42-10.2,66.74-11.44,100.47-10.95,33.48.48,69.84-1.08,100.93,13.26,27.91,12.87,50.2,34.84,71.4,56.56,5.33,5.45,11.48,10.87,14.87,17.82,3.56,7.32,2.38,15.54-.72,22.8-5.6,13.09-16.62,24.1-28,32.38-23.84,17.41-52.76,26.06-80.67,34.47-34.46,10.39-69.22,19.76-104.15,28.41-69.91,17.33-140.49,31.77-211.11,45.89l-26.72,5.33,3.86,9.14c30.65-15.27,65-19.91,98.72-22.63,35.36-2.85,70.6-5.12,105.71-10.48,34.7-5.31,69.34-12.44,103-22.31,26.8-7.86,53.37-18,77.18-32.77,22.85-14.18,43.25-33,56-56.91,7.28-13.65,13.33-29.92,8.33-45.36-4.49-13.86-16-23.88-28-31.45-54.77-34.79-124.19-43.52-187.69-37.89-70.53,6.26-137.84,30.3-203.06,56.59q-12.61,5.09-25.19,10.28c-5.89,2.42-3.79,10.81,2.66,9.64a558.53,558.53,0,0,0,103.5-29.34q24.42-9.57,47.89-21.33c7.77-3.91,15.35-8.19,23.09-12.18,8.11-4.19,16.59-7.41,25.86-5.89,8.28,1.37,16.07,4.37,24.58,4.38,8.69,0,17.26-2.17,25.61-4.39a240.51,240.51,0,0,1,51.2-8.25,227.7,227.7,0,0,1,99.94,18.13c27,11.68,54.34,29.68,66.53,57.57,5.68,13,7.69,31.16-8,37.73-6.7,2.81-14.16,3.45-21.25,4.67a221.26,221.26,0,0,0-25.87,6.21c-33.39,10.09-64.34,26.53-96.8,39.06-32.19,12.43-65.75,20.84-99.5,27.8-67.74,14-137.24,22.18-202.38,46.51-7.84,2.93-15.59,6.11-23.25,9.48-2.36,1-3.19,4.8-1.79,6.84,7.67,11.21,20.52,14.71,33.54,14.65,16.24-.09,32.69-4.17,48.58-7.11q55.42-10.21,110.11-24,54.2-13.62,107.44-30.66,26.83-8.58,53.39-18c16.17-5.76,32.54-11.35,48.19-18.43,26.1-11.8,51.52-33.3,50.09-64.66-.63-13.87-7.39-25.17-18.5-33.24-10.07-7.32-23.35-11.47-31.39-21.34-4.73-5.79-5.36-13.35-8.5-19.93-3.05-6.39-8.64-10.93-15-13.81-7.09-3.23-14.74-5.07-22.23-7.13-9.14-2.53-18.31-5-27.57-7-35-7.88-71.1-10.41-104.82,3.78-29.08,12.23-55.57,34-88,36.64-32.56,2.71-66.85-9.32-97.47,6.94a51.59,51.59,0,0,0-15.82,12.91c-4,4.94,3,12,7.07,7.07Z" transform="translate(-71.64 -521.16)"/><path d="M564.52,1421.59c-16.76-11.9-39.43-13.18-58-4.77a54.11,54.11,0,0,0-11.65,7.23c-4.12,3.33-7.52,8.39-12.4,10.64-5.95,2.75-8.14-9.24-9.64-13.11-2.5-6.46-4.9-13-7.53-19.39-4.09-9.93-10.26-18.46-21.85-19.06-6.11-.31-12.29,1.49-18.32,2.21a171.67,171.67,0,0,1-20.52,1.16c-27.66,0-54.84-6-81.71-11.93-43.6-9.6-88.71-18.65-132.81-6.34-18.79,5.25-36.65,14.62-50.18,28.86-7.57,8-14.66,17.67-17,28.59-2.31,10.73.5,21.37,6.54,30.38,7.45,11.1,18.08,19.57,28.13,28.18q17.55,15,35.45,29.69c17,13.88,43.72,37.06,65.63,19h-7.07c69.81,57.25,157.72,91,248,94.65,27.74,1.11,56.15-.12,82.38,10.48,6,2.41,8.56-7.26,2.66-9.64-22.38-9-46.71-9.8-70.52-10.41-22.45-.57-44.72-2.12-66.86-6a411.6,411.6,0,0,1-125.46-43.72,403.3,403.3,0,0,1-63.13-42.43,5.19,5.19,0,0,0-7.07,0c-8.18,6.73-19.49,2.78-27.76-1.67-10.34-5.56-19.18-13.6-28.2-21q-14.88-12.24-29.52-24.77c-8.48-7.26-17.45-14.33-24.64-22.93-6.78-8.11-11.36-18.06-8.54-28.73,2.63-9.93,9.67-18.52,17-25.52,13.31-12.8,30.49-20.54,48.3-24.76,41.78-9.92,83.86-.66,124.86,8.35,24.4,5.36,49.06,10.56,74.11,11.52a184.81,184.81,0,0,0,36.77-2.26c5.2-.84,11.21-2.3,15.67,1.37,4.13,3.4,6,9.15,7.86,14q4,10.18,7.89,20.38c1.92,5,3.54,10.82,8.36,13.79,10.78,6.65,19.9-5.53,27.17-11.59,16.39-13.67,41.4-14,58.58-1.77,5.26,3.73,10.26-4.93,5-8.64Z" transform="translate(-71.64 -521.16)"/><path d="M557.53,1423.91c-1.82,5.69-8.38,7.23-13.73,6.88-7.37-.49-13.39-5.29-18.8-9.89-6-5.14-11.9-10.55-19.05-14.13-7.43-3.73-15.47-5.88-23.59-7.48-38.52-7.6-77.44-13.56-116.13-20.3-36.8-6.41-73.63-13.94-110.81-17.79-34.59-3.58-70.66-3.19-103.63,9.09-14.62,5.44-29.47,12.87-39.35,25.34-9.51,12-13,27.52-11.34,42.6,3.72,33.37,29.16,57.28,54.69,76.29,53.26,39.67,118.14,63.24,184.29,68.18a339.24,339.24,0,0,0,49.9.07c9.08-.67,18.7-2.35,27.65.13,8.18,2.27,15,7.86,21.88,12.63a360.15,360.15,0,0,0,94.09,46.66c8.39,2.73,16.88,5.12,25.44,7.23,6.25,1.55,8.92-8.09,2.66-9.64a352.74,352.74,0,0,1-96.39-39.49q-11-6.57-21.48-13.9c-6.73-4.71-13.35-9.6-21.18-12.38-8.24-2.92-17.09-2.52-25.67-1.82-8.42.69-16.84,1.25-25.3,1.41a345.42,345.42,0,0,1-186.75-51.35,293.62,293.62,0,0,1-40-29.18c-12-10.61-23.36-23.07-29.46-38.14-5.66-14-7-30.84-.44-44.76,6.94-14.62,21.68-23.17,36.15-29,32.45-13,68.11-13.59,102.46-10.17,36.89,3.68,73.44,11.26,109.93,17.61,37.88,6.6,75.85,12.79,113.64,19.82,8.06,1.51,16.31,3.26,23.69,7s13.13,9.46,19.47,14.61c10.18,8.27,22.89,14.29,35.9,8.61a19.16,19.16,0,0,0,10.9-12c2-6.14-7.69-8.77-9.64-2.66Z" transform="translate(-71.64 -521.16)"/><path d="M556.17,1424.61c-31.94-13.36-63.68-27.42-95.95-40-27-10.49-56.89-17.5-84.62-5.67-13,5.52-24.14,14.9-30.33,27.7h8.63c-11-21.37-30.61-50.72-58.57-46.27-6.48,1-12.32,4.07-17.86,7.44-5.72,3.48-11.7,8.18-18.48,9.25-7.58,1.21-13.16-4.09-18.36-8.78a72.1,72.1,0,0,0-18.1-12.42c-28.79-13.24-61.29-6.59-88.31,7.66-14.33,7.55-27.73,17-40.48,26.94-12.13,9.46-21.51,21.23-22.07,37.19-1.08,30.69,25.34,57.68,45.67,77.48,22.43,21.85,48.4,40.31,77.75,51.58,29.82,11.46,63.54,14.59,94.6,6.48a128.22,128.22,0,0,0,22.23-8.1c6.45-3,14.08-9.34,21.54-8.89s10.49,9.6,13.73,15a71.87,71.87,0,0,0,14.09,16.85c24.86,22,59.81,28.9,91.5,34.37,37,6.39,74.18,12.3,111.26,18.44l28.55,4.72c6.3,1,9-8.59,2.66-9.64l-108.1-17.89c-32.38-5.36-67-8.86-96.95-23.14-12.9-6.15-25.25-14.62-33.15-26.78-3.6-5.54-6-12-10.93-16.63a19.68,19.68,0,0,0-17.84-4.79c-7.18,1.44-13.43,5.83-19.91,9a114.38,114.38,0,0,1-22.14,8,137.52,137.52,0,0,1-45.83,3.37c-30.48-2.67-59.12-15.05-84.05-32.41a259.62,259.62,0,0,1-34.89-29.56c-10.63-10.64-21.18-21.91-29.11-34.76C85,1448.5,78.77,1433.66,83,1419.52c4.44-14.72,20-24,31.91-32.27,24.62-17.18,53.56-32.32,84.57-27.83a65.39,65.39,0,0,1,20.7,6.45c6.44,3.34,11.41,8,16.86,12.68,5.24,4.5,11,8.2,18.08,8.69,6,.41,11.79-1.77,17-4.53,11-5.81,21.19-15.43,34.55-12,12.35,3.15,21.73,14.09,28.64,24.18a156.63,156.63,0,0,1,9.93,16.87c1.64,3.2,7,3.32,8.63,0,6.72-13.88,19.71-22.63,34.33-26.62,17.19-4.69,35-2.06,51.83,3,19,5.78,37.23,14.22,55.54,21.88l57.91,24.22c5.93,2.48,8.52-7.19,2.66-9.64Z" transform="translate(-71.64 -521.16)"/><path d="M2383.38,1405.68l3.23-5.23a5,5,0,1,0-8.63-5l-3.23,5.24a5,5,0,0,0,1.79,6.84,5.1,5.1,0,0,0,6.84-1.8Z" transform="translate(-71.64 -521.16)"/><path d="M2355.73,1426.23q2.57,55.51.47,111.1-1.07,27.53-3.29,55-1.11,13.73-2.51,27.42c-.3,2.84-4.33,31.63-1.92,31.78l-3.54-1.47.47.42c4.83,4.22,11.93-2.82,7.08-7.07-4.41-3.86-10.18-.85-10.32,4.87-.14,5.91,6.14,9,10.91,5.56,5.8-4.15,5.13-14.16,5.84-20.4q1.6-14.18,2.9-28.37,5.16-56.82,5.34-113.93.09-32.46-1.43-64.89c-.3-6.41-10.3-6.45-10,0Z" transform="translate(-71.64 -521.16)"/><path d="M2358.14,1421.77c-4.14,114.41-9.93,228.26-40.43,339.21-13.84,50.33-27.72,100-33.23,152-4.86,45.9-5.93,92.12-11,138-4.89,44.63-13.76,90-35.53,129.75-24.61,45-65.15,75.74-108,102.28-85.47,53-181.75,85.7-279.88,105.85-101.52,20.84-205.59,29.13-309.05,32-115.07,3.24-228.36-7.68-341-31.34-55.25-11.61-110-25.57-164.43-40.54-53.05-14.58-106.25-29.27-158.75-45.77-24.15-7.59-48.1-16.32-70.13-29-22.88-13.13-41.95-30.66-58.56-51.05-32.42-39.79-58.49-85.53-80.1-132-93.32-200.58-94.77-427.42-79.9-643.82,2-28.37,4.18-56.73,6.5-85.07h-10c-11.07,212.52-14.69,431.43,49.19,636.85,28.16,90.52,68,186,141.58,249.18,38.08,32.72,84,53.81,131.31,69.65,52.86,17.7,107.46,30.24,162.37,39.64,110,18.83,221.59,24.74,332.82,31.09,116.62,6.66,233.22,13.76,349.86,19.94,56.12,3,112.44,3.62,167.59-8.76,52.22-11.72,102-32.82,149.3-57.54,45.79-23.94,89.78-52.27,126.72-88.67,33.43-32.93,60.88-71.72,82.56-113.26,47.34-90.72,66.88-192.39,74.06-293.68,8.16-115.29,4.11-231.61,3.79-347.1l-.24-88.1-8.54,3.54c9,8.49,9.57,20.83,9.63,32.46.07,15.56-.3,31.13-.45,46.69l-.88,88.15q-.9,90-1.79,180l-.91,91.82c-.28,28,.46,56.25-2.7,84.1-6.43,56.66-39.45,101.16-73.63,144.74Q2224.69,2149.07,2167,2210c-37.08,39.11-75.39,80.83-121.52,109.4-48,29.72-104.81,37.76-159.41,47.55-57.54,10.32-115.59,19.59-174.19,20.06a507.93,507.93,0,0,1-89-7.2c-25.51-4.32-50.29-7.12-75.28,1.25-22.88,7.66-43.24,20.95-65.12,30.88a141.24,141.24,0,0,1-70.79,12.47c-49.48-4-95.14-28-141.38-44.06-23.73-8.25-47.94-14.58-73-16.78-26.08-2.29-52.32-.74-78.37,1.21-52.75,3.93-108.19,10.3-158.29-11.08-41.88-17.87-75.68-49.72-115.92-70.55-18.9-9.78-38.75-16.49-60-18.68-13.33-1.38-27.12-1.24-39.88-5.81-13.26-4.75-23.15-15-30.93-26.39-14.13-20.75-24.89-44.42-34.67-67.45a575.17,575.17,0,0,1-27.17-80.07c-13.46-51.8-18.9-104.61-18.33-158,.25-23.18.24-48-11.21-68.91-5.45-10-13.66-17.49-21.52-25.5-9.36-9.53-15.53-19.82-17.7-33.19-2.08-12.77-1.13-25.92-.69-38.78l1.63-47.12,3-87c1-29.43,3.29-59.15,2.27-88.6-.8-23.41-4.9-47.44-18-67.33-10.81-16.41-26.63-29.14-46.14-33.09l1.19,9.14,67.24-30.88-6.84-6.84a261.22,261.22,0,0,0-21.19,224.09c9.61,26.71,22.86,54.33,20.83,83.44-3.19,45.76-44,79.73-45.7,125.83-.86,23.75,12.06,42.39,24.28,61.54,14.29,22.41,18.08,45.41,19.56,71.56,1.26,22.23,1.9,45.44,11.85,65.85,11,22.58,34,32.65,49.91,50.9,16.68,19.19,22.9,44.91,32.56,67.84s24.07,42.7,42.25,59.78c17.94,16.84,38.24,31,58.43,44.92,23,15.93,46.3,31.54,70.51,45.64,45.32,26.38,95.38,48.54,148.49,50.94,27,1.23,52.21-4.41,78.18-11s55.82-13.25,79.11,4.43c19.08,14.48,30.53,35.86,53.27,45.85,21.83,9.59,46.49,9.33,69.58,5.23,27-4.79,52.28-15.88,78.49-23.54,27.53-8,54.31-10,82.44-4.06,46.83,9.88,92.15,35.36,141.05,33,23.66-1.14,43.64-10.42,63.1-23.33,20.53-13.62,41.58-29.31,67.64-25.6,24.93,3.54,46.12,19.27,69.94,26.48,25.42,7.7,51.62,3.53,76.29-4.89,26.58-9.07,51.65-22,78.62-30,28.57-8.48,58.1-12.94,87.32-18.51,48.15-9.18,94.05-24.35,136.75-48.67,80.11-45.63,145.18-117.58,180.82-202.74,10-23.88,19.42-50.3,13.9-76.48-2.7-12.77-9.38-24.09-13.92-36.21-5.27-14.08-6.21-28.82-4.68-43.68,5.06-48.76,38.9-108.59-.13-151.9-13.55-15-33.87-23.65-53.8-17.49l5.65,7.34c59.58-100.76,81.89-221.1,62.84-336.55-1-6.34-10.68-3.65-9.64,2.66,18.6,112.74-3.7,230.53-61.84,328.84-2.17,3.68,1.44,8.65,5.65,7.35,24.26-7.5,47.77,12,55.54,34.13,9.66,27.52.69,57.82-6.22,84.86-6.44,25.25-12.52,52.16-5.9,78,3.12,12.17,9.5,23,13.75,34.8,5.34,14.79,5.24,29.83,1.72,45-10.26,44.3-35.61,87.3-62.87,123.19A418.8,418.8,0,0,1,2180.9,2262,401.68,401.68,0,0,1,2059.07,2317c-27.53,7.15-55.71,11.26-83.57,16.81a424.63,424.63,0,0,0-80.63,24.29c-25.08,10.4-51,22.63-78.47,24.3-26.48,1.6-48.15-10.11-71.61-20.36-20.41-8.93-41.72-14.53-63.55-7.1-21.22,7.23-38.16,22.54-57.48,33.35-44.87,25.1-94.09,6.13-139.06-8.36-21.57-6.94-43.48-13.44-66.14-15.47-26.29-2.35-51.7,3.61-76.54,11.7-45.84,14.94-106.45,40.39-148.16,2-15.79-14.53-27.44-33.19-48.37-41-23-8.6-48.31-2.71-71.19,3.11-26.14,6.65-51.41,12.14-78.58,10.5-26.39-1.59-52.24-8.48-76.8-18-49.58-19.29-94.33-49.41-137.81-79.59-20.64-14.33-41.29-28.95-59-46.91-18.26-18.54-30-39.67-39.18-63.84-8-21-15.57-43-31.26-59.76-16.53-17.65-39.24-27.82-48.54-51.55-8.48-21.66-7.38-45.75-9.2-68.55s-7-43.3-19.33-62.86c-13.1-20.8-27.17-40.19-22.82-66.12,3.66-21.85,16-41.31,26-60.7,9.43-18.28,18-37.48,19-58.33,1.25-26.76-9.29-52.17-18.44-76.74-18.64-50.07-23.93-102.6-11.16-154.87a250.5,250.5,0,0,1,28.5-69.26c2.76-4.62-2.56-8.81-6.85-6.84l-67.24,30.88c-3.85,1.77-2.86,8.32,1.2,9.14,59.3,12,57.77,85.77,56.16,132.25q-3.15,90.62-6.28,181.23c-.82,23.69-2.44,49.4,12.72,69.34,6.79,8.94,15.85,15.76,22.83,24.52,9,11.27,13,25.35,14.56,39.48,2.87,25.9.31,52.3,1.72,78.32a585.27,585.27,0,0,0,62.94,233.8c10.28,20.15,21.36,42.27,40.54,55.42,21.43,14.68,48.46,10.36,72.6,15.83,44.8,10.15,80.54,41.78,118.53,65.64,19.76,12.41,40.64,23.06,63.31,29,25.3,6.59,51.67,7.79,77.69,7,54.53-1.72,109.82-12.39,164-1.1,49.74,10.37,95,34.94,143.69,48.64,22.51,6.32,46.13,10.31,69.57,8.26,23.79-2.08,45.17-10.84,66.2-21.69,22.67-11.68,45.62-25.37,71.64-27.29,29.52-2.18,59.48,7.33,88.84,9.82,58.56,5,117.39-1.15,175.24-10.25,29.19-4.59,58.29-9.89,87.34-15.32,26.46-4.94,53-10.43,78.32-19.67,50.77-18.5,90.6-54,128.46-91.41q60.81-60.09,115.69-125.81,26.55-31.8,51.62-64.81c16-21.06,31.33-42.86,42.38-67,23.64-51.55,19.3-109.72,19.85-165q1.83-183.63,3.65-367.28c.2-20,3.71-45.28-12.35-60.51-3.11-2.94-8.55-.89-8.54,3.53.31,114.09,2.22,228.31.26,342.39-1.82,106.14-10.51,213.75-47,314.24-33.48,92.11-89.95,172.9-171.73,228.11-88.25,59.58-192.11,102-299.42,104.19-56.79,1.18-113.77-4-170.44-7.19l-171.39-9.78c-110.84-6.33-222.09-10.71-332.4-23.8-55-6.53-109.76-15.5-163.61-28.5-50.71-12.23-102-27-148.57-51-43.84-22.58-80.61-54.79-109.57-94.64-28.07-38.62-49-82-66.27-126.37-76.55-196.72-82.38-411.69-74.28-620q1.48-38.44,3.55-76.87c.33-6.48-9.48-6.35-10,0-18.32,223.91-30.12,456.65,48.77,671.27,17.63,48,39.58,94.41,66.48,137.89,26.63,43,57.06,85.73,101.76,111.38s97.09,37.44,146.32,51.68c55.41,16,110.94,31.69,166.93,45.61,111.47,27.71,225,48.08,340,51a1904.82,1904.82,0,0,0,326.45-20.13c100.72-15,200.65-40.68,292.4-85.63,45.52-22.3,91.57-48.86,128.88-83.54,33.56-31.19,55.28-71.4,67.29-115.33,25.12-91.9,14.41-189.21,35.65-281.89,12.84-56,31.33-110.29,41.3-167,9.91-56.4,14.65-113.57,17.61-170.71,1.47-28.4,2.5-56.83,3.53-85.25.24-6.44-9.76-6.43-10,0Z" transform="translate(-71.64 -521.16)"/><path d="M870.82,2307c-14.46,12.4-11,33.53-1.28,47.78,13.08,19.23,36,24.26,56,33.21,12,5.35,21,12.87,30.31,22,8.17,8,17.06,14.84,27.47,19.73,20.51,9.62,43.15,12.46,65.32,15.81,24,3.63,46.74,8.7,68.18,20.49,22.58,12.41,42.67,28.8,65.13,41.41,21.61,12.13,46.49,21.64,71.69,19.17,24.76-2.42,46.06-18.72,70.87-20,13.92-.71,27.17,4.21,39.93,9.19,11.84,4.63,23.67,9.05,36,12.32a294.61,294.61,0,0,0,76.39,9.46c52.3-.16,104.19-12.38,152.91-30.85,11.77-4.46,23.55-11,35.77-14,7.49-1.85,13.24-.29,19.19,4.45,4.81,3.83,9.26,7.74,14.92,10.31,20.93,9.48,45.52,2.87,66.86-1.67,43.3-9.22,87.65-21.16,125.1-45.65a180.38,180.38,0,0,0,47.19-44.87c7.44-10.17,14.71-21.59,25.69-28.32,9.51-5.84,22.81-8.47,32-.7,7.84,6.59,12.62,16,23.58,18,9.2,1.68,17.71-3,24-9.44,12.07-12.34,22.69-33.82,17.29-51.41-2.16-7-7.52-11.84-15.08-11.66a5,5,0,0,0-4.31,2.47,528.66,528.66,0,0,1-36,64.07c-12.09,18.36-25.33,41.28-45.8,51.33-10.43,5.12-19.33,3.22-27.6-4.58-8-7.55-15.79-11.7-27.18-10.38-21.45,2.5-42.28,13.52-60.44,24.59-38.52,23.46-75,56.87-121.79,61.72a84.26,84.26,0,0,1-33.54-2.88c-11-3.37-20.79-9.71-31.9-12.68-22.08-5.89-43.2,4.13-62,14.88-20.79,11.9-41.34,23.12-65,28.34-23,5.09-46.78,3.74-68.33-6.16-18.89-8.68-35.34-21.69-52.63-33-18.31-12.05-37.57-21.44-59.49-24.46-48.29-6.65-96,11.59-144.39,6.62a196.4,196.4,0,0,1-68.5-20.21c-19.79-10.06-36.81-24.14-55-36.76-16.4-11.41-34.49-21.86-54.81-23.55-20.73-1.73-38.81,9.18-58.87,11.75-10.27,1.32-19.68-1.35-25-10.86-4.89-8.8-6.75-19.06-11.35-28.07a103.64,103.64,0,0,0-39.3-41.56,101.77,101.77,0,0,0-27.14-11.09c-2.82-.71-5.15.92-6.15,3.49-7.45,19.25-10.52,42.23,2.57,59.85,11.31,15.21,28.13,17.72,45.49,12.78,8.6-2.45,17.21-6.46,26.2-7.2,10-.82,15.77,4.71,20,13.27,3.74,7.59,6.75,15.44,13.55,20.89,5.67,4.53,12.62,6.52,19.79,6.85,17,.77,33.14-6.59,50-6.46,9.71.07,17.11,3.74,24.39,10,7.6,6.56,14.8,12.71,24.34,16.29,19.18,7.2,40.48,3.48,60.24,1.4,10.31-1.09,20.76-2,31.11-1,11.51,1.09,22.7,4.55,33.4,8.8,21.3,8.46,41.28,19.89,62.57,28.41a474.64,474.64,0,0,0,67.54,21.07c46.21,10.9,93.68,16,141,18.67,96.69,5.48,194.47-1.46,287.3-30.37a692.66,692.66,0,0,0,227.61-121.31q12.51-10.07,24.53-20.71c4.83-4.27-2.26-11.32-7.07-7.07a680.57,680.57,0,0,1-218.25,129.52c-87.34,31.64-179.69,43.27-272.29,41.54-92.93-1.74-189.39-11.86-274.08-52.68-19.29-9.3-38.63-19.62-59.78-24-20.47-4.24-40.66-.89-61.17,1-10.07.94-20.47,1.61-30.47-.27s-18.29-6.54-26-13.27c-6.87-6-13.7-12-22.71-14.48-7.48-2.06-15.36-1.79-23-.79-14.58,1.9-32,9.23-46.6,4.42-16.62-5.48-15.41-28.25-30.24-36.53-15.3-8.54-32.77,1.48-47.92,5.21-8.82,2.17-17.59,2.18-25.17-3.44-8-6-12.51-15.62-13.36-25.42-1-11.14,2-22,6-32.34l-6.15,3.49a92.45,92.45,0,0,1,65.69,60.74c3.15,9.23,6.24,18.68,14.14,25,15.68,12.53,37.06,4.21,53.93-.88,10.31-3.12,20.54-5.68,31.39-4.58,10.27,1.05,20.1,4.94,29.15,9.77,19.12,10.22,35.61,24.55,53.52,36.62a205.84,205.84,0,0,0,62.89,28.35,213.05,213.05,0,0,0,70.82,5.91c25.06-2,49.82-7,75-8.08,24-1,47,2.69,68.23,14.24,18.84,10.24,35.5,23.9,53.86,34.91,18.92,11.35,39.39,18.63,61.64,18.77,23,.14,45.67-6.45,66.46-16,21.18-9.74,40.37-25.91,63.49-30.92,24-5.22,43.74,12.75,66.84,15.91,46.27,6.32,87.9-21.54,124.25-46.19,19.17-13,38.76-26.23,60.67-34.2,10-3.64,24.89-9.71,34.66-3,8.22,5.66,13.14,13.47,23.73,15.14,20.26,3.18,38.39-14.43,49.63-29.06a512.17,512.17,0,0,0,40.38-61.37q9-16,16.84-32.67l-4.32,2.48c7.86-.19,6.73,12.53,5.8,17.64-1.64,9-6.56,18.17-12.29,25.23-6.36,7.86-15.76,13.85-24.87,6.31-7.49-6.2-11.88-14.48-21.58-17.84-21.22-7.34-41.07,8-53.33,23.76-7,9-13.17,18.49-20.81,26.94a161.68,161.68,0,0,1-23.24,21.13c-34.19,25.46-75.91,38.35-117,47.84-10.41,2.41-20.87,4.68-31.37,6.68-11.5,2.2-23.78,4.09-35.4,1.64a38.26,38.26,0,0,1-14.08-5.91c-4.63-3.21-8.51-7.48-13.5-10.18-10.94-5.92-22.57-2.28-33.28,2.23-46,19.41-94.26,34.35-144.23,38.89-24.42,2.22-49.23,2.08-73.53-1.45-24.62-3.57-47.37-11.3-70.52-20.09-11.37-4.32-23.21-8-35.49-8.06-11.44,0-22.49,3.3-33.09,7.3-11.22,4.24-22.26,9.27-34.07,11.7s-24.23,1.62-36-1.27c-48.4-11.92-82.44-52.86-129.13-68.82-39.52-13.5-87.72-7.26-122.36-33.56-9.48-7.19-16.81-16.79-26.52-23.72-9-6.41-19.35-10.47-29.56-14.44-19.21-7.46-39.78-15.86-45.12-38-2-8.21-.45-16.08,6.09-21.69,4.9-4.19-2.2-11.24-7.07-7.07Z" transform="translate(-71.64 -521.16)"/><path d="M585.54,1391.66c33.33,27.21,8,77-.37,109.75-10.85,42.44-14.82,86.28-17.89,129.86-.36,5-.7,10.1-1,15.15-.32,4.74-.93,9.72.53,14.35,2.55,8.1,10.37,11,18.19,10.08,7.33-.88,15.36-5.1,22.75-3,7.17,2,12,9.06,14.17,15.83,5.93,18.58-7.29,37.16-14.39,53.46-8.48,19.44-13.24,40.1-16.71,61-8.31,50-14.47,100.54-21.59,150.77-.89,6.25,7.48,8.89,9.64,2.66a564,564,0,0,0,27.28-120.19,553.86,553.86,0,0,0,3.62-61.88c0-20.94-1.91-41.83-1.75-62.76.15-20.49,4.39-39.51,10.43-59,5.49-17.74,11.59-35.69,12.39-54.4.84-19.21-6-35.29-16.22-51.14s-18.16-31.7-22.64-50c-9.91-40.36-5.11-82.91-.35-123.64.74-6.38-9.27-6.33-10,0-4.23,36.25-8,73.06-2.59,109.4a163.57,163.57,0,0,0,16,51c8.5,16.51,21.8,30.62,25,49.45,3.19,18.51-2.24,37.37-7.6,54.93-5.56,18.22-11.61,36.21-13.52,55.26-2.09,21,0,42,.6,63a549.94,549.94,0,0,1-1.54,61,553.52,553.52,0,0,1-28.75,136.23l9.64,2.66c6.53-46,12.8-92.1,19.62-138.09,3.17-21.36,7-42.8,14.45-63.13,6.86-18.64,20.19-36.41,20.47-56.93.2-14.62-8.56-31.51-23.59-35.31-8-2-15.68,1-23.46,2.51-3.5.69-8.1,1.5-9.91-2.44-1.88-4.1-.2-11.18.09-15.48,3-44.92,6.5-90.09,17.18-134,5.74-23.61,16-46.6,18.08-71,1.62-19.25-3.66-40.45-19.14-53.09-5-4-12.06,3-7.07,7.07Z" transform="translate(-71.64 -521.16)"/><path d="M2336,1407.81c-23.85,7.58-32.87,33.89-29.52,56.79a112.59,112.59,0,0,0,13.8,39c5.58,9.65,14.4,18.18,26.32,15.85l-4.86-8.36c-18,21.1-14.93,50.47-7.29,75.19,4.55,14.75,10.43,29.17,13.22,44.41,3,16.56.08,32.61-4.27,48.64-4,14.88-8.1,29.6-10.64,44.83-2.47,14.85-4,29.84-5.15,44.86-2.23,30.1-2.63,60.32-5.3,90.4-3,33.29-9.07,66.68-23.85,96.93-2.81,5.76,5.81,10.84,8.64,5,26.21-53.69,26.11-114.2,29.26-172.55,1.61-29.88,4.14-59.87,11.74-88.92,4-15.37,9.1-30.52,10.58-46.43,1.43-15.43-1.87-30.57-6.48-45.21-8.61-27.34-25.27-64.49-3.39-90.13a5,5,0,0,0-4.87-8.35c-8.48,1.66-14.35-9.44-17.33-15.67-4.86-10.16-9.11-21.14-10.5-32.38-2.15-17.34,4.23-38.44,22.55-44.27,6.1-2,3.49-11.6-2.66-9.64Z" transform="translate(-71.64 -521.16)"/><path d="M2362,1426.18a95.1,95.1,0,0,1,24.8,11.69,67.45,67.45,0,0,1,10.79,8.47c3.3,3.32,3.16,6.05-.65,8.91-12.49,9.34-31.83,2.46-40.86-8.27-4.15-4.93-11.19,2.17-7.07,7.07a43.34,43.34,0,0,0,27.79,14.85c10,1.27,22.34-.67,29.37-8.59,9-10.21.75-19.69-7.8-26.35a104.55,104.55,0,0,0-33.71-17.42c-6.16-1.89-8.8,7.75-2.66,9.64Z" transform="translate(-71.64 -521.16)"/><path d="M2353.81,1445.34c24.68,24.44,28.93,61.1,29.71,94.16.94,39.77-.69,80-6.24,119.4-5.63,40-15.57,79.83-32.31,116.75s-39.45,71-49.87,110.74c-11.76,44.9-11.34,91.83-10.8,137.89.08,6.43,10.08,6.45,10,0-.49-42.16-1-85,8.28-126.34a262.55,262.55,0,0,1,21.3-58.75c9.16-18.53,19.49-36.46,28.22-55.21,34.51-74.12,42.46-157.55,41.53-238.4-.44-37.61-4.59-79.43-32.75-107.31-4.58-4.53-11.66,2.53-7.07,7.07Z" transform="translate(-71.64 -521.16)"/><path d="M583.37,1354.72c37.78,36.46,90,52,141.67,44,15.91-2.47,31.7-6.42,47.86-6.93,16.47-.52,31.67,4.2,47.34,8.58,27.11,7.58,52,5.51,79.2-.1s57.38-13.28,83.51.71c22.82,12.23,39.25,33.75,65.25,40.21s53-1.29,77.49-10.31c28.13-10.37,55.22-22,85-26.8a251.64,251.64,0,0,1,92.56,2.35c29.67,6.37,58,17,88.27,20.85,32.35,4.09,65.27,3.58,97.82,3.77,32.36.18,64.72,0,97.08-.14,64.67-.31,129.37-.64,194,1.83a1716.09,1716.09,0,0,1,196.11,19c29.8,4.59,59.44,7.58,89.44,3,30.59-4.71,59.8-15.3,89.52-23.55a600.85,600.85,0,0,1,186.31-21.23c15.79.69,31.53,2,47.23,3.92,6.37.76,6.32-9.24,0-10a613.79,613.79,0,0,0-183.41,5.55c-29.83,5.45-58.74,13.82-87.76,22.44-30.05,8.93-60.27,16.4-91.86,15.3-31.85-1.11-63.29-8-94.82-12.19s-62.93-7.14-94.52-9.26c-64.48-4.31-129.14-5-193.74-4.94-64.12.08-128.24,1-192.35-.08-32.55-.53-64.54-2.46-96.13-10.88-28.82-7.68-56.85-16.32-86.81-18.27a263.49,263.49,0,0,0-86.55,8.81c-27.43,7.54-52.93,20.66-80.33,28.29-14.25,4-29.42,6.53-44.19,4.14-13.68-2.21-25.41-8.81-36.32-17.06-20.68-15.62-38.84-31-65.93-32.51-26-1.46-51.23,7.15-76.63,11.05-15.22,2.33-30.21,2.57-45.27-1-14.07-3.3-27.66-8.47-42-10.5-30.43-4.29-59.76,7.77-90,8.39a153.7,153.7,0,0,1-110-43.42c-4.63-4.47-11.71,2.59-7.07,7.07Z" transform="translate(-71.64 -521.16)"/><path d="M942.91,1398.3l-167.16,15.59c-24.51,2.29-51.13,5.54-74-5.7-19-9.32-34.08-25.11-53.6-33.55-26.69-11.55-53.92-2.43-79.42,7.81-5.9,2.37-3.33,12,2.66,9.64,23.11-9.28,48.73-19,73.07-8.23,19,8.41,33.68,23.86,52.24,33,22.38,11,47.37,10,71.54,7.76,27.07-2.45,54.12-5,81.18-7.56l93.53-8.73c6.35-.59,6.41-10.6,0-10Z" transform="translate(-71.64 -521.16)"/><g id="Layer_17" data-name="Layer 17"><path d="M584.08,1258.6c2.44-12.53,22.84-6.15,31-3.86,15.08,4.21,29.12,6.23,44.84,4.77,17.08-1.59,33.77-5.69,50.73-8.1,18.46-2.62,37.2-2.65,55.76-1.21,37.55,2.92,74.27,11.9,111.33,18.13,36.1,6.06,72.54,8.54,109.13,8.48,75.16-.13,150.36-7.27,225.42-10.72q115.13-5.29,230.34-7.59c153-3.27,306.1-3.39,459.15-2.82q115.11.42,230.22,1.08l113,.56,58.39.29c18.18.09,36.63-.21,54.57,3.14,29.18,5.46,63.68,25.82,61.8,59.94-1.76,32.13-34.68,52.73-62,61.89-33.9,11.36-70,12.39-105.44,12.82-37.56.46-75.13.78-112.69,1.17L1909.11,1399c-76.26.79-152.55,2-228.81.23-75.33-1.79-149.87-8.39-224.64-17.4-37.26-4.49-74.59-8.72-112.1-10.22s-74.88.43-112.19,3.89c-74.78,6.93-148.89,16.83-224.07,18.73-76.48,1.93-153-1.23-229.29-6.72-38.22-2.75-76.4-6.08-114.55-9.67q-28.14-2.65-56.26-5.44c-17.48-1.72-35.62-2.32-52.73-6.5-14.62-3.57-28.55-11.33-34-26.13-4.38-11.88-2.74-25.43,1.88-37,12-30,42.91-42.27,72.65-47.45,35.44-6.17,72.5-7.6,108.4-9.15a707.49,707.49,0,0,1,113.83,4.69c75.81,8.93,151.32,16.4,227.71,17.68q55.38.93,110.73-1.49c6.41-.27,6.45-10.27,0-10a1849.34,1849.34,0,0,1-240.05-5.24c-39.06-3.41-77.84-9-116.83-13-40-4.09-79.82-3.9-119.87-1.29-34,2.21-69.94,2.8-103,11.73-26.8,7.24-51.12,22.22-62.25,48.57-9.53,22.55-7.61,50.23,12.75,66.14,11.38,8.89,25.77,12.24,39.79,14.17,17.95,2.46,36.1,3.78,54.13,5.54,158.36,15.49,318,29,477,15.74,77.73-6.46,155.06-20,233.28-18.21s155.78,16.12,233.81,22.3c79.63,6.32,159.58,7,239.42,6.48s159.61-1.56,239.41-2.38c78.79-.82,157.9.35,236.64-2.8,34-1.35,69.63-5.24,100.48-20.66,23.59-11.8,46.54-33.1,49.2-60.77,2.62-27.31-16.69-51.1-40-62.82-31.92-16-70.37-12.83-105-13l-239.25-1.19c-160.6-.79-321.21-1.67-481.81.2-159.78,1.85-319.43,6.9-478.94,16.48-39.27,2.35-78.61,4.48-118,3.59s-77.94-6.1-116.63-13.45c-37-7-74.38-14.64-112.21-13.86-18.16.38-35.81,3.39-53.64,6.6-19,3.43-38.89,6.67-58,1.7-14.92-3.89-47.14-15.37-51.77,8.35-1.22,6.29,8.42,9,9.65,2.66Z" transform="translate(-71.64 -521.16)"/><path d="M1636,675.45c-4.72,10.17,1,19,7.45,26.77,6.78,8.17,12.25,16.09,15.18,26.44,5.87,20.7,3.08,43.09-2,63.63a208.78,208.78,0,0,1-67.09,108.13c-18.26,15.48-38.45,28.21-53.35,47.29-13.66,17.5-23.19,37.58-31.48,58.06-9.06,22.37-19,45.65-22.49,69.66-3.39,23.36,1.64,45,16.24,63.68,15.3,19.55,36.6,35.22,57.73,47.93a273,273,0,0,0,71.36,30c2.8.73,6.77-1.49,6.33-4.82-2.34-17.84-10.7-33.49-20.17-48.51-9.33-14.8-20.23-29.45-25.37-46.38-12.66-41.74,26.41-69,53.23-93.42,32.12-29.28,61-63.31,79.35-103,18.61-40.37,26-87.06,14.65-130.54-12.62-48.14-48.12-85-82.08-119.39-4.52-4.59-11.59,2.49-7.07,7.07,30.09,30.52,62,62.72,76.23,104.15,14.69,42.74,8.93,90.58-9.31,131.33-17.68,39.5-45.92,73.12-77.59,102.19-26.57,24.38-64.27,50.55-59.64,91.61,4.48,39.65,42.62,65.66,47.77,104.91l6.33-4.83c-42.76-11.21-84.54-33.26-115.62-65.05-7.36-7.53-14-15.94-18.28-25.61-4.85-10.85-6-22.8-4.91-34.54,2.13-23.59,12.2-46.51,20.79-68.35,8-20.34,17.15-40.57,30.36-58.12,14-18.68,33.47-31.27,51.29-45.93a218.47,218.47,0,0,0,68.74-101.86c6.89-21.58,11.28-45.2,8.47-67.87-1.35-10.91-4.34-21.65-10-31.17-2.84-4.79-6.43-8.9-10-13.14-3.11-3.71-8.86-10-6.39-15.27,2.69-5.79-5.93-10.88-8.64-5Z" transform="translate(-71.64 -521.16)"/><path d="M1411,566.34c65.45,39.22,103.2,116.27,92.12,192-5.65,38.61-22.62,75.41-49.12,104.12-24.22,26.23-55.86,47.95-70.1,81.86-9.54,22.75-8.09,48.51-6,72.59a387.92,387.92,0,0,0,14.5,76.65l6.15-6.15c-41.71-5.7-73.59-35.45-97.25-68.43a343.84,343.84,0,0,1-32.82-55.45c-8.78-19-16.31-41.86-10.41-62.79,6.32-22.37,27.44-32.24,46.4-42.21a193.51,193.51,0,0,0,52.49-40.76c15.41-16.73,28.6-35.37,41.48-54.08,13.79-20,27.76-40.13,38.25-62.13,10.69-22.4,17.64-46.71,16.22-71.72-1.3-23-9.32-45.43-25.7-62-4.54-4.58-11.61,2.49-7.07,7.07,32.5,32.81,25.87,84.29,7.54,122.37C1417,719.5,1402.79,739.8,1388.85,760c-13.18,19.13-26.75,38.12-42.92,54.88a183.22,183.22,0,0,1-26,22.71c-9.1,6.43-19,11.45-28.79,16.63-18.85,9.9-36.64,22.28-42.7,43.87-5.93,21.11,0,43.7,8.26,63.32,8.33,19.8,19.52,38.65,31.61,56.37,25.53,37.42,60.69,72.86,107.6,79.27,3.56.49,7.34-2.1,6.15-6.15a374.83,374.83,0,0,1-13.81-70.21c-2.15-22.31-4.3-46.83,3.24-68.35,12.41-35.45,46.88-57.67,71.11-84.46,52.69-58.25,67-144.58,35.66-216.53A205.54,205.54,0,0,0,1416,557.71c-5.54-3.32-10.57,5.32-5,8.63Z" transform="translate(-71.64 -521.16)"/><path d="M578.74,1396.39c12.54,6.29,14.33-17.85,1-16.05-8.32,1.13-10,10.93-10.22,17.69-.44,14.82.24,29.77.37,44.59q.75,90.08,1.49,180.15c1,113.33-4.27,230.78,27.26,340.87,15.14,52.85,39.4,102.55,66.35,150.29,13.39,23.73,27.48,47.07,41.58,70.4,13.12,21.71,26.32,43.45,41.68,63.68,14.26,18.78,30.25,36.13,49.13,50.35,20.05,15.1,42.94,25.94,66.58,34.14,51.36,17.82,106.41,25.33,159.61,35.66q87.75,17,175.5,34.07c57.66,11.08,115.53,21.53,174,27.39,119.18,12,239.21,3.72,358-8.95,58.21-6.21,116.84-11.82,174.62-21.31a481.39,481.39,0,0,0,155.41-53.55c23.73-13,46.72-27.32,69.6-41.76,22-13.89,43.85-28.22,63.72-45.09,36.91-31.36,62.26-72.08,78.86-117.29,16.83-45.82,25.09-94.25,32.51-142.32q13.47-87.15,24.66-174.63,22.71-177.1,36.1-355.24,3.32-44.07,6.06-88.19c.4-6.42-9.6-6.4-10,0q-10.57,169.4-29.49,338.12c-12.18,108.36-25.06,217.35-44.84,324.62-8.4,45.56-19.69,91.42-41.2,132.75-22.79,43.79-57,76.06-97.68,103.29-42.66,28.56-87.07,56.45-134,77.46-50.71,22.71-105,32.1-159.8,38.81-111.34,13.63-223.22,27.06-335.5,28.9-56.72.93-113.47-1.37-169.81-8.14-55.68-6.68-110.82-17.2-165.86-27.87q-83.43-16.17-166.84-32.4c-50.36-9.78-102.3-17.1-150.92-34-23.09-8-45.38-18.76-64.85-33.65-19.1-14.61-35.2-32.85-49.32-52.22-29.4-40.31-54.34-84.71-78.83-128.11-26-46-49.45-93.8-64.39-144.66-15.12-51.44-21.63-104.89-24.56-158.29-3-55-2.68-110.23-3.14-165.32q-.71-85.62-1.42-171.23l-.33-39.24-.17-21.41c0-1.14-.66-23.38,4.13-21-5.74-2.88-10.81,5.74-5,8.63Z" transform="translate(-71.64 -521.16)"/><path d="M2360.28,1439.72c65.54,5.33,126.81-21.45,188-40.66,55.08-17.29,119.32-31.22,174.37-6.27,24.43,11.08,47.05,30,56.48,55.81,8.65,23.64,4.78,52.88-14.37,70.41-10.45,9.57-24.22,14.37-37.78,17.56-14.79,3.47-29.91,5.52-44.84,8.22-33.84,6.12-67.51,13.13-101.06,20.7-67.47,15.23-134.41,32.73-201.37,50l-24.89,6.43c-6.22,1.61-3.58,11.26,2.66,9.65,69.55-18,139-36.34,209-52.54,34.78-8.06,69.68-15.56,104.77-22.15,16.55-3.11,33.22-5.65,49.74-8.88,14-2.74,28.27-6.55,40.51-14.17,22.88-14.22,34.09-41,31.72-67.47-2.49-27.82-19.28-51.51-41.17-67.94-49.66-37.26-116.47-32.65-173.43-18.42-64.46,16.1-125.94,47.92-193.34,50.27a214.81,214.81,0,0,1-25-.6c-6.42-.52-6.38,9.48,0,10Z" transform="translate(-71.64 -521.16)"/><path d="M554.9,1448.4l29.3-3.3-1.32-9.82c-15.29,5.23-30.69-.23-44.87-6.33-15-6.46-29.6-13-45.49-17-32.85-8.34-67.17-11.68-100.65-16.66l-105.15-15.64c-29.9-4.45-61.2-12.85-90,.57a79.09,79.09,0,0,0-45,61.08,81.28,81.28,0,0,0,4.71,39.67c5.26,13.51,14.09,24.43,24.65,34.21,22.8,21.13,47.15,42.67,74.88,57.09,29.06,15.13,61.54,21.5,93.24,28.6L453,1624.13l51.39,11.52c15.86,3.55,31.94,7.35,48.29,7.5a89.21,89.21,0,0,0,24-3c6.21-1.67,3.58-11.32-2.66-9.65-15.66,4.21-31.83,2.68-47.57-.35-16.23-3.11-32.32-7.06-48.44-10.67L379,1597.33c-31.36-7-63.57-12.67-93.95-23.37-29.3-10.32-53.78-28.24-77.09-48.36-11.12-9.6-23.17-19-32.31-30.62a69.7,69.7,0,0,1,56.21-112.38c16.45.24,33,3.85,49.23,6.27l100.23,14.91c32.51,4.83,65.47,8.51,97.64,15.31a223.29,223.29,0,0,1,45,14.51c13.28,5.9,26.71,12.26,41.35,13.68a47.84,47.84,0,0,0,20.22-2.36c5-1.71,4.61-10.49-1.33-9.82l-29.3,3.3c-6.32.72-6.39,10.73,0,10Z" transform="translate(-71.64 -521.16)"/><path d="M855.55,2318.18c.51,19.29,14.75,33.18,28.72,44.7a417.94,417.94,0,0,0,49.94,35.27c35,21.15,72.8,37.52,111.3,51.23,40.46,14.42,81.92,26.13,123.5,36.85,45.58,11.76,91.64,21.76,138.21,28.66,45.64,6.77,91.74,10.64,137.9,10.11,23.72-.28,47.27-2.18,70.9-4.12a399,399,0,0,1,71.67.45c22.88,2.22,45.62,4.09,68.63,3.49a509.87,509.87,0,0,0,67.32-6.54c45.66-7.35,90.27-20.05,134.17-34.4,21.66-7.07,43.17-14.57,64.67-22.1,19.67-6.89,39.57-13.8,57.7-24.23,34.37-19.77,55-53.29,81.14-81.83a190.36,190.36,0,0,1,21-19.93c5-4-2.11-11.08-7.08-7.07-29.39,23.69-48.18,57.34-76,82.61-31.08,28.27-74.51,39.26-113.34,52.58-84.1,28.83-171.82,55.14-261.73,50.53-22.91-1.17-45.64-4.84-68.6-5.26-23.25-.43-46.37,2.54-69.53,4.16-45.19,3.16-90.62,1.76-135.65-3-88.41-9.26-175.84-30.6-260.64-56.85-38.71-12-77-25.81-113.36-43.75a480.14,480.14,0,0,1-52-29.63c-16.34-10.78-33.34-22.47-46.76-36.83-6.58-7-11.86-15.27-12.12-25.15-.17-6.42-10.17-6.45-10,0Z" transform="translate(-71.64 -521.16)"/><path d="M1902.73,657.74c6.8,9,16.31,16,22,25.82,6,10.27,2.85,20.2-.35,30.9-6.11,20.46-15.69,39.6-27,57.62-25,39.67-56.33,75.27-87,110.54-29.92,34.38-63.93,68.76-76.65,113.75-11.11,39.3-.13,81.71,25.88,112.67,30.29,36.06,76.78,56.17,122.83,61.3,6.39.72,6.34-9.29,0-10-41.14-4.59-81.76-22.17-110.5-52.48-28-29.53-39.72-72.09-27.83-111.35,6.6-21.76,18.32-40.72,32.31-58.48,14.61-18.54,30.42-36.14,45.91-53.94,29.78-34.26,60-69.1,84.15-107.66,12.2-19.47,22.35-40.37,28.55-62.54,3.08-11,5.26-21.19.2-32-5.48-11.71-16.18-19.13-23.81-29.24-3.83-5.07-12.51-.09-8.63,5Z" transform="translate(-71.64 -521.16)"/><path d="M1897.6,637.31c2.57,9,9.16,15.15,16.48,20.57,8.86,6.57,17.92,12.79,26.49,19.75,15.78,12.8,31.91,26.8,41.82,44.85,10.34,18.83,9.61,41,8.14,61.86a278,278,0,0,1-10.43,57.85,284.5,284.5,0,0,1-55.47,104c-13.49,15.95-29.33,29-44.34,43.42a130.06,130.06,0,0,0-33.25,51c-15.13,43.3-4.31,92,26.57,125.65,4.36,4.75,11.42-2.34,7.07-7.07-27.75-30.23-37.57-73.64-25-112.76,6.45-20.16,18.3-37.23,33.66-51.62,14.94-14,30.27-27.06,43.44-42.82a296.47,296.47,0,0,0,55.39-101.81,292.45,292.45,0,0,0,11.65-57.09c2-19.9,3.65-42.23-2.58-61.52-6.71-20.78-22.09-37.34-38.17-51.47-9.27-8.14-19-15.83-28.93-23.09-8.29-6-19.83-11.83-22.85-22.41-1.76-6.18-11.42-3.55-9.64,2.66Z" transform="translate(-71.64 -521.16)"/><path d="M1074,800.85c30.73,5.1,65,10.75,89.43,31.72,27,23.21,32.87,60.65,26.66,94.21-3.58,19.39-10.49,38-18.2,56.11-7.39,17.33-15.51,34.78-16.95,53.84-2.13,28.11,13.87,51.73,31.15,72.25,18.87,22.42,42.39,44.46,47.33,74.72,1,6.33,10.67,3.64,9.64-2.66-4.46-27.33-23.53-48.74-41.1-68.91s-37.51-42.6-37.21-71c.21-19.81,9.45-38.26,17-56.12,7.71-18.24,14.65-37,18.16-56.52,6.1-34,1.27-71.73-23.56-97.52-25.72-26.73-64.63-34-99.68-39.81-6.29-1.05-9,8.59-2.66,9.64Z" transform="translate(-71.64 -521.16)"/><path d="M1069.92,813c7.18,16.54,17.48,31.34,26.15,47.08,9.15,16.6,15,34.23,16.24,53.23,2.46,37.74-10.38,74.15-28,107-10.16,18.88-21.85,36.87-33.52,54.83-3.52,5.42,5.13,10.43,8.63,5,21.32-32.8,43-66.25,54.69-103.92,11.4-36.72,12.33-76.79-4.6-112-9.3-19.33-22.38-36.58-30.94-56.3-2.55-5.89-11.17-.81-8.63,5Z" transform="translate(-71.64 -521.16)"/><path d="M1078,1035.7c-15.68,11.35-29.1,25.86-36.62,43.9-7.62,18.31-8.28,39.62.12,57.79,8.07,17.44,24.39,29.38,41.19,37.65a228.34,228.34,0,0,0,61.88,19.83,242.49,242.49,0,0,0,74.76,1.05c6.35-.89,3.65-10.53-2.66-9.65a228.75,228.75,0,0,1-117.23-14.64c-15.71-6.38-32-14.78-42.65-28.36-11.5-14.61-13.84-34.2-9-51.83,5.35-19.42,19.18-35.48,35.24-47.11,5.16-3.74.17-12.42-5-8.63Z" transform="translate(-71.64 -521.16)"/></g></g></svg>