<svg xmlns="http://www.w3.org/2000/svg" viewBox="0 0 2940.79 1259.2"><g id="Rilette"><path d="M1379.7,1391.31a322.67,322.67,0,0,1,101.41-36,314.19,314.19,0,0,1,53.91-4.7c19.56,0,39,2.35,58.57,2.67,17.93.28,35.68-1.78,52.7-7.6,15.63-5.35,30.32-13.07,44.38-21.67,28.3-17.33,54.37-38.77,85-52.09,31.84-13.85,70.83-20.29,101,.82,5.1,3.57,11.32-4.49,6.66-8.63-26.91-24-66.35-27.62-99.74-16.67-37.23,12.2-65.65,39.39-92.32,66.87-12.46,12.84-25.78,26.29-42.43,33.54a49.29,49.29,0,0,1-24.71,4.11c-10.7-1.12-20.58-6.17-30.25-10.5-39-17.45-81.91-26.34-124.65-24.59-21.7.89-42.43,6.15-58.42,21.59-14.63,14.13-23.61,33-32,51.19-2.93,6.38,6.55,12,9.5,5.55,7.16-15.59,14.59-31.79,26.14-44.68,12.92-14.4,29.7-20.85,48.74-22.31,41.22-3.15,84,4.92,121.83,21.3,17.48,7.56,34,16.06,53.66,12.8,16.67-2.77,31.15-13,43.55-23.94,13.38-11.81,25-25.41,38-37.63,13.83-13,28.82-24.9,45.65-33.82,33.68-17.86,79.34-22,109.66,5l6.66-8.63c-26.85-18.78-61.09-18-91.3-8.66-32.75,10.1-60.17,30-88.38,48.73-29,19.28-59.66,36.93-95.28,38.75-20.58,1-41.1-1.65-61.64-2.3a327.69,327.69,0,0,0-54.49,2.92,332.42,332.42,0,0,0-117,39.13c-6.18,3.45-.64,13,5.55,9.5Z" transform="translate(-19.41 -805.29)"/><path d="M1958.52,1388.43a95,95,0,0,1,73-27.92c14.91.89,28.69,7.18,43.49,8.76,14.29,1.53,28.33-2.43,41.19-8.4,13.43-6.24,25.6-14.76,38-22.71a445,445,0,0,1,40-22.9c27.2-13.64,56.62-24.07,87-27.24,33.34-3.48,67.69,1.27,97.3,17.53a5.57,5.57,0,0,0,8.08-6.21c-3.27-13.2-15.27-20.46-27.53-24.15-14.1-4.24-29.66-5.2-44.29-5.86A315.4,315.4,0,0,0,2133,1318a303.31,303.31,0,0,0-37.72,28.34c-6.37,5.61-12.6,11.69-20.39,15.32-8.2,3.83-17.53,4-26.42,3.88-19.79-.35-39-.06-58.56,3.76a219.8,219.8,0,0,0-57.14,19.85c-6.32,3.2-.75,12.69,5.55,9.5a208.66,208.66,0,0,1,99.46-22.42c16.19.4,32.71,1.35,47.07-7.49,13.23-8.13,24-20.19,36.48-29.42a304.61,304.61,0,0,1,170.09-59.09,287.2,287.2,0,0,1,51.43,2.8c12.16,1.81,29.63,5.37,33.08,19.28l8.08-6.21c-55.45-30.46-121.66-22.77-177.78,1.47a380.36,380.36,0,0,0-42.5,21.86c-13.43,7.94-26.18,17-39.64,24.84-12.9,7.56-27.12,14.28-42.36,14.4-15.57.12-30.24-7-45.64-8.72-31.2-3.41-63.43,8.45-85.37,30.75-5,5,2.8,12.84,7.78,7.78Z" transform="translate(-19.41 -805.29)"/><path d="M2211.57,1060.87c1.31,9.18,7.83,16.78,15.92,21,9.64,5,20.49,5.12,30.94,2.87,12.29-2.64,24.17-8,35.76-12.74s22.81-9.72,34-15.06c22.06-10.52,42.87-23.69,65.18-33.65,23.88-10.65,49.08-11.63,74.82-10.58,6.18.25,11.61.4,15.65,5.64,3.33,4.3,6,8.67,10.33,12a35.26,35.26,0,0,0,30.82,6,5.57,5.57,0,0,0,3.29-8.08c-28.15-48.74-96.08-33.76-140.72-24.19-24.89,5.33-48.52,13.72-68.72,29.55-16.37,12.83-32.52,31.7-54.14,35.05-12.83,2-24.8-3.63-36.12-8.92-11.71-5.47-23.65-10.88-36.87-10.41-7,.25-7.09,11.25,0,11,22.45-.79,40.43,17.16,62.45,19.46,21.63,2.27,39.69-11,55.37-24.18,8.41-7,16.57-14.46,25.81-20.42,10.6-6.83,22.27-11.63,34.31-15.26a335,335,0,0,1,36.9-8.41c13.87-2.53,27.8-5.19,41.88-6.13,26-1.76,56.23,4,70.35,28.41l3.29-8.08a24.08,24.08,0,0,1-24.3-6.89c-3-3.31-4.92-7.44-8.14-10.56-3.7-3.58-8.32-5.31-13.34-6-11.31-1.52-23.3-1.27-34.69-.81a145.61,145.61,0,0,0-34.92,5.2c-21.58,6.28-40.76,18.55-60.49,28.94a647.26,647.26,0,0,1-64.54,29.64c-11.71,4.61-24.34,10.38-37.2,9.94-10.33-.35-20.73-6.39-22.28-17.26-1-7-11.6-4-10.61,2.93Z" transform="translate(-19.41 -805.29)"/><path d="M1363.39,1594c-4.72-20.44-26.36-30.49-45.82-29.94-12.92.36-25.36,4.23-37.61,8-11.6,3.57-23.2,7.16-34.72,11-22.83,7.63-45.42,16.3-66.67,27.68-10.76,5.77-20.89,12.54-31.37,18.77a172.78,172.78,0,0,1-33.24,15.23,393,393,0,0,1-39,11c-11.93,2.68-24.86,4.18-35.79-2.42l-4.24,10.06c23.66,5.07,47-.53,68.86-9.94,22.71-9.8,44.15-23.05,64.87-36.46q15.61-10.1,30.7-21c9.44-6.83,18.54-14.24,28.53-20.27,10.25-6.17,21.18-9.9,33.24-9.72s24,3.66,35.34,7.92a242.87,242.87,0,0,1,70.09,41.27c5.39,4.52,13.21-3.22,7.78-7.78a258.16,258.16,0,0,0-60.57-38.17c-21.85-9.73-46.76-18.44-70.8-12.09-23,6.06-41.49,24.18-60.55,37.41a660,660,0,0,1-64.61,39.88c-24.24,13-52,24.34-79.95,18.35-6-1.29-9.74,6.73-4.24,10,18.72,11.31,41.15,4.61,60.67-.73,23.32-6.38,44.86-14.57,65.45-27.36,20.36-12.65,41.11-23.58,63.51-32.18s45.55-15.9,68.65-22.63c12.43-3.63,26.09-7,38.94-3.46,10.24,2.81,19.42,9.76,21.9,20.47,1.59,6.89,12.2,4,10.6-2.93Z" transform="translate(-19.41 -805.29)"/><path d="M1139.36,1362.8c-5.25,10.06-11.14,21.53-21.1,27.71-12.55,7.81-27.16,1.26-40-2.37-29-8.18-59.37-14.06-89.59-11.58-25.6,2.1-51.18,10-71.8,25.7-10.31,7.83-18.45,17.5-26.51,27.53S873.9,1450,862.6,1456.65c-13.71,8.06-29.65,11.62-44.82,15.89l-53.86,15.16c-4.29,1.2-5,6.06-2.43,9.19,18.12,22.22,50.44,2.83,68-9.59,23.68-16.76,45.24-36.24,67.73-54.51,22.13-18,45.74-35.2,72.51-45.58,29-11.26,60.67-13.65,91.38-9,35.47,5.31,69.28,18.73,100.35,36.38,6.17,3.5,11.72-6,5.55-9.5-53.19-30.22-117.14-49.67-178.24-35.26-57.23,13.5-99.52,56.62-143.91,92.17-12.14,9.72-24.77,20-38.59,27.23-11,5.79-27.71,11.32-37-.07l-2.43,9.19,48.09-13.53c14.3-4,28.93-7.51,42.62-13.36a89.24,89.24,0,0,0,32.39-24c8.45-9.65,15.75-20.31,25-29.22,44.44-42.68,112.14-33.66,165.89-17.89,14.81,4.35,30.27,8.3,44.08-1.06,11-7.47,17.9-19.39,23.92-30.93,3.27-6.27-6.22-11.84-9.5-5.55Z" transform="translate(-19.41 -805.29)"/><path d="M807.36,1313c-28-7-56.51-14-82.23-27.54-12.68-6.66-24-15.43-36.33-22.67-13.22-7.75-27.64-11.77-42.2-16.16-26.81-8.08-49.79-23.94-75.42-34.73a130.92,130.92,0,0,0-73.77-8.47c-24.42,4.17-47.76,14.79-67.86,29.13a192.2,192.2,0,0,0-27.79,24c-8.25,8.67-15.17,18.5-23.49,27.1-8.75,9-19.2,16.11-32.34,14.2-6.47-.94-12.67-3.31-19-4.92a61.8,61.8,0,0,0-21.7-1.9c-26.31,2.69-51.23,20.75-68.88,39.57-9.55,10.18-17.6,22.48-20.15,36.41-2.59,14.15.14,28.39,6.29,41.28,13.37,28.05,41.56,44.19,69,56v-9.5c-9.83,6.41-21.88,2.32-29.83-5.19-8.31-7.86-13.83-18.7-18.62-28.93-10-21.24-16-46-11.92-69.42,3.46-19.92,14.15-36.92,31.64-47.35,14.76-8.8,34.11-12.6,50-4.46,9.15,4.67,15.86,12.86,24.93,17.63a30.88,30.88,0,0,0,28.39.66c21.66-10.37,26.09-34.88,32.68-55.47,6.51-20.34,20.17-34.16,39.31-43.16,18.33-8.62,38.78-12.33,58.66-15.41,28.76-4.45,57.81-6.28,84.23,8,11.93,6.44,22.8,14.64,33.75,22.57l38.72,28.07c5.74,4.17,11.23-5.37,5.55-9.49l-37.1-26.9c-10.56-7.66-21-15.57-32.35-22.07-24.18-13.87-50.41-16.34-77.73-13.25-40.28,4.55-93.21,12.15-115.88,50.59-11.95,20.26-10.2,51.07-31.65,64.94-10.83,7-20.74,2.73-30-4.7-8.24-6.65-16.21-12.87-26.64-15.63-18.76-5-39.24.53-54.89,11.42-17.93,12.48-29.17,31.17-32.56,52.72-4.38,27.78,3,56.06,15.53,80.85,5.95,11.81,13.1,23.75,24.15,31.47,10.76,7.52,25.82,9.38,37.12,2,3.09-2,4.05-7.75,0-9.5-23.74-10.26-48.51-23.3-62-46.4-6.18-10.59-9.83-22.91-8.64-35.24S234,1349.89,242,1340.8a144.36,144.36,0,0,1,30.2-25.45c10.88-7,23.22-12.91,36.35-13.51,13.69-.63,25.92,6.26,39.4,7.3,11.45.88,21.87-3.71,30.63-10.77,9.21-7.43,16.23-17,23.82-26a184.4,184.4,0,0,1,25.22-24.6c18.25-14.7,39.67-25.86,62.45-31.53,23.33-5.81,47.59-5,70.24,3.18,24.78,9,46.52,24.63,71.23,33.86,15,5.6,31.09,8.31,45.44,15.61,13.83,7,25.92,17,39.5,24.45,27.35,15.06,57.88,22.8,87.95,30.31,6.87,1.72,9.8-8.89,2.93-10.6Z" transform="translate(-19.41 -805.29)"/><path d="M828.15,1309.94c-15.44-3.25-31.24-5.85-46.29-10.67s-26.51-14.67-40.18-22.12-29-9.13-44.3-11.49A131.22,131.22,0,0,1,653.29,1251c-6.2-3.43-11.75,6.06-5.55,9.5A137.67,137.67,0,0,0,692.68,1276c15.38,2.49,31.18,3.59,45,11.52,6.63,3.81,12.74,8.45,19.26,12.45a100.29,100.29,0,0,0,20.35,9.37c15.51,5.24,32,7.85,48,11.22,6.9,1.46,9.85-9.15,2.92-10.61Z" transform="translate(-19.41 -805.29)"/><path d="M608,1251.79l149-70c24.17-11.36,48.18-23.38,73.22-32.74,24.54-9.17,50-14.59,76-17.76,26.13-3.18,52.91-6.18,79.24-6.21a143.4,143.4,0,0,1,38.4,4.83c12.24,3.36,24,8.12,35.87,12.62,23.8,9,47.71,14.8,73.24,15.7,26.22.93,52.41-2.31,78.24-6.52,13-2.13,26.57-4.14,38-11.29,10.88-6.82,19.31-16.81,29-25.07a184.39,184.39,0,0,1,69.9-36.68l-5.35-9.19C1291.89,1117.05,1224,1139,1158,1156.1c-17.54,4.56-35.3,9.87-53.22,12.69-10.06,1.58-20.14,1.56-30-1.11-8.76-2.37-17-6.3-25-10.46-34-17.65-68.46-34.47-106.46-41.68-39.63-7.52-81.74-4.47-117.63,15-6.22,3.38-.67,12.88,5.55,9.5,32.6-17.71,71.28-20.79,107.37-14.24,38.12,6.91,72.28,23.71,106.4,41.3,16.92,8.73,34.28,15.16,53.63,13.44,18.64-1.67,37-7.39,55.12-12,33.65-8.59,67.21-18.06,99.39-31.25,35.55-14.57,69.16-33.67,97.33-60,4.06-3.8-.16-10.64-5.35-9.2a195.58,195.58,0,0,0-63.08,30.33c-9.5,6.95-18,14.89-26.54,22.9-9.09,8.49-18.41,14-30.62,16.77a389.8,389.8,0,0,1-77,9.26,209.67,209.67,0,0,1-76.79-12.23c-23.83-8.63-46.75-18.69-72.35-20.56-26.24-1.91-53.16,1.61-79.26,4.28-26.41,2.7-52.82,6.62-78.17,14.73-24.2,7.76-47.24,18.68-70.2,29.47l-168.68,79.28c-6.4,3-.82,12.49,5.55,9.5Z" transform="translate(-19.41 -805.29)"/><path d="M1081.63,1237.49c21.86-8.42,44.92-12.37,67.84-16.67,21.33-4,42.28-9,62.61-16.66,37.55-14.22,71.94-35.39,103.15-60.51,31.91-25.69,59-55.6,85.65-86.49,23.81-27.55,55.15-58.74,94.8-45,18.66,6.48,34.32,19.45,51.41,29a123.91,123.91,0,0,0,60.12,15.8c45,.31,86.09-20.4,123.52-43.35,20.61-12.64,40.94-25.76,61.37-38.69,19.62-12.4,39-25.53,59.33-36.68,19.46-10.65,40.51-18.69,63-17.79,21.11.83,41.3,8.67,60.45,17s38.07,17.63,58.23,23.35a184.85,184.85,0,0,0,56.59,6.73c37.77-1.32,75.43-13.68,106.15-35.8a189.85,189.85,0,0,0,21.43-18c5.07-5-2.71-12.73-7.78-7.78-27.51,26.84-63.69,43.86-101.72,49a177.92,177.92,0,0,1-57.56-1.44c-20.13-3.91-38.92-11.92-57.57-20.21s-37.54-17-57.65-21.27a111.86,111.86,0,0,0-60.88,3.77c-20.93,7.36-39.75,19.3-58.4,31.1l-62.14,39.3c-38.07,24.07-77,50.3-122.36,57.8-21.49,3.56-44.11,2.43-64.52-5.57-18.38-7.2-33.88-20-51.16-29.35-16.65-9-34.77-14-53.65-10.13-17.67,3.63-33,14.4-46.08,26.4-14.4,13.23-26.46,28.65-39.27,43.34a587.32,587.32,0,0,1-42.07,43.63c-29.45,27.46-62.23,51.61-98.44,69.43a303.84,303.84,0,0,1-57.16,21.41c-22.16,5.8-44.93,8.77-67.25,13.84a238.63,238.63,0,0,0-32.93,9.81c-6.54,2.52-3.7,13.16,2.92,10.6Z" transform="translate(-19.41 -805.29)"/><path d="M1807.17,1061.29c24.1,13.16,51.85,15.4,78.82,14.71,27.86-.71,55.9-3.7,83-10.57,49-12.43,95.43-39.34,123-82.72a145.85,145.85,0,0,0,15-31.17c4.23-12.43,6.5-25.42,10.55-37.9,3.66-11.32,9.12-21.78,18.06-29.83,8-7.19,17.95-11.77,28.18-14.75,21.73-6.33,44.69-6.28,67.11-7.13a584.75,584.75,0,0,0,89.76-10.4c33-6.43,64.55-16.35,96.15-27.46,14.14-5,29.6-9.91,44.76-7.37,12.55,2.11,24.12,8.77,29.29,20.8,2.79,6.48,12.27.89,9.5-5.55-9.82-22.86-37.26-29.25-59.68-25.78-14.75,2.28-28.62,8.06-42.62,13q-21.43,7.53-43.42,13.33a567,567,0,0,1-87.86,16c-25.95,2.62-52.11,1.95-78,4.82-21.77,2.42-44.24,7.71-60.94,22.76-19.21,17.31-22.61,42.94-29.51,66.45-14.27,48.65-55.55,84.45-101.63,102.57-29.6,11.63-61.23,17.13-92.86,19.16-30.47,1.94-63.44,2.63-91-12.42-6.22-3.39-11.77,6.1-5.55,9.5Z" transform="translate(-19.41 -805.29)"/><path d="M2499.7,831.45c-11.48,27.52,3.21,56.3,25.47,73.39,28.68,22,65.39,20,98.75,11.37,40-10.34,78.57-30.41,120.87-28.08,37.81,2.08,67.9,28.25,71.4,66.6a70,70,0,0,1-11.47,45.85c-8.44,12.69-19.16,24.48-18.7,40.7.77,27.73,30.93,42.33,46.73,61.12,27.09,32.23,2.42,71.15-16.68,100.38-9.68,14.82-19.94,29.37-27.88,45.24-7.35,14.71-13,30.2-18.87,45.52-12.75,33-28.49,65.79-62.67,80.91-30.54,13.51-65.73,11.75-98.35,11.41-31.31-.32-64.09-.74-93.83,10.53-27.36,10.37-47.25,30.57-64.08,53.88-17.5,24.25-31.59,51.5-53,72.71-11.65,11.56-25.31,20.34-41.24,24.67-20.22,5.5-41.52,4.65-62.06,8.29-38.76,6.88-70,33.06-107.44,43.58-39.1,11-80.38,6-120.31,4.32-36-1.55-73.14-.81-106.4,14.77-28.68,13.44-51.38,36.4-75,56.9-26.63,23.12-55.58,42.77-92.35,41.17-39.2-1.71-75.84-21.23-115.53-18.6-59.37,3.92-102.84,51.49-151,80.58-25.86,15.63-54.92,26.38-85.4,19.68-33.26-7.3-61.88-29.27-96.11-33-15.65-1.71-30.46,1.82-44.44,8.81-16.41,8.2-31.39,20.92-49.74,24.57-21,4.18-40.66-7.68-59.33-15.36a250.43,250.43,0,0,0-58.87-16.14,258.3,258.3,0,0,0-114.84,9.15c-38.67,12.11-77.69,33.23-119.26,31.22-67.64-3.27-94.68-79.13-154.15-100-58.56-20.59-111.55,27.29-165.63,40.69-35.19,8.73-61.37-6.13-79.5-36.58-16.26-27.32-29.92-51.92-57.28-69.65-48.64-31.52-118.18-37-154.7-85.7-22.38-29.82-23.16-73-2.53-104S346.47,1407,382,1416.77c20.32,5.56,37.13,19,55.1,29.33,15.1,8.72,31.21,14.91,48.57,17.17,34.39,4.46,68.55-6,98.88-21.65,33.07-17,62.57-40.41,90.14-65.19,5.27-4.74-2.53-12.5-7.78-7.78-56.19,50.52-140.72,112.6-218.54,71.13-32.84-17.5-60-40.62-99.51-36.44-30.79,3.26-59.92,19.85-76.12,46.62-16.71,27.62-19,63.61-6.17,93.19,11.86,27.34,35.76,46.14,61.71,59.36,27,13.78,56.24,22.62,83.59,35.71,14,6.71,27.71,14.51,39.45,24.8,13.14,11.52,22,25.91,30.48,41,14.51,25.91,31.45,52,63.07,57.09,27.34,4.43,54.35-7.23,78.76-18.13,29-12.94,59.48-29.79,92.12-29.4,33.1.39,58.06,22.79,80.42,44.64,21,20.56,42.13,43.13,70.24,53.85,36.66,14,75.4,2.7,110.68-9.92,41.7-14.92,81.54-28.26,126.52-26.62a244.29,244.29,0,0,1,65.34,11.39c19.37,6.18,37.38,17.25,57.24,21.78,37.79,8.62,60.5-21.73,94-30.81,37-10,72.48,17.34,106.3,28,61.26,19.34,110.84-20.8,157.83-54.4,24.66-17.64,51.19-35.58,81.6-41,39.53-7.11,77.29,11.62,116,16.28,34.56,4.16,64.63-7.21,91.86-27.93,26.11-19.86,48.31-44.78,76.24-62.25,70-43.73,155.41-7.29,231.33-24.37,39.46-8.87,71.62-36.39,111.11-44.77,21.23-4.5,43.27-3.38,64.38-8.62a99.67,99.67,0,0,0,39.07-19.72c47.72-38.82,62.47-111.58,124.74-133.28s132.47,6,193.07-22.57c29.32-13.82,46.78-40.06,59.09-69.07,7.29-17.19,13.16-35,20.8-52,7.48-16.67,17.45-31.83,27.48-47,17-25.77,39.24-56.66,34.37-89.4-4.84-32.55-35.86-43.94-52.59-68.64-12.48-18.42-.53-33.72,10.23-49.36a79.66,79.66,0,0,0,14.18-39.94c2-27.36-9.55-55.93-31.3-73-28.3-22.16-66.92-20.23-100-12.26-43.27,10.42-87.5,36-133.3,27.49-33.1-6.18-67.08-40.44-52.38-75.67,2.72-6.53-7.92-9.38-10.61-2.93Z" transform="translate(-19.41 -805.29)"/><path d="M2509.77,868.58c114.87-12.92,256.15-24,350,57.72,92.18,80.23,90.51,216.44,43.52,320.54-54.35,120.38-170.27,197.67-279.56,263.62-58.11,35.06-116.31,69.87-174,105.56-60.68,37.51-122.34,74.34-188.58,101.29-71.34,29-145.49,40.22-221.61,48.5-36.2,4-72.46,7.83-108.3,14.4-37.44,6.85-74,17.35-110.19,29-69.56,22.34-138.83,48.68-212,56.43-77.94,8.25-156.11-2.53-234.11-3.75a711.18,711.18,0,0,0-111.9,7.18c-39.3,5.6-78.32,13.33-117.87,17-37.76,3.48-76,3.06-112.85-6.54-34.6-9-67-24.6-100.51-36.68-31.61-11.38-63.77-18.38-97.51-17.31-34.54,1.11-68.47,8.63-102.36,14.73-38.72,7-77.68,11.6-116.69,4.16-34.23-6.53-66.66-19.87-98.37-33.92-30.78-13.63-61.26-28.15-93.22-38.86-35.09-11.76-71.64-18.29-107-29.24-69.39-21.49-122.68-67.67-174.07-117.16-45.71-44-104.06-97.64-91.87-168.06,11.78-68,81.16-68.58,134.94-80.81,23-5.23,44.89-14,61.15-31.7,4.78-5.21-3-13-7.78-7.78-39,42.45-106.09,27.71-153.83,53.61C33,1418.79,28.82,1485.79,52.52,1534.6c14.39,29.61,37.2,54.22,60.39,77.14,25.93,25.63,52.21,51.24,80.45,74.35,26.1,21.37,54.13,40.55,85.18,54,34.49,15,71.43,22.43,107.63,32,70.53,18.57,132.9,57.91,202.93,77.45,35.85,10,72,11.77,108.88,7.12,37.24-4.7,73.74-14.11,111.06-18.26A253.91,253.91,0,0,1,922,1851c34.5,11.85,67.48,28,102.69,37.82,75.27,21,152.63,4.26,228-7.21,81.19-12.36,160.68-6.85,242.26-3.22,41.64,1.85,83.5,2.25,124.93-3,36.08-4.62,71.42-13.45,106.22-23.91,74.49-22.4,146.86-50.87,224-63.38,79.57-12.9,161-14.59,239.24-35.07,140.74-36.84,260.71-126.44,384-199.69,113.85-67.62,238.41-137.42,312.43-251.4,60.28-92.84,86-223.86,29.71-324.61-62.11-111.21-196.48-132.15-312.6-127.39-31.12,1.28-62.13,4.19-93.07,7.67-6.95.78-7,11.79,0,11Z" transform="translate(-19.41 -805.29)"/><path d="M2938.39,1192.12c34.85,190.7-72.22,396.94-248.25,478.31-55.18,25.51-115.37,37.41-171.82,59.58-48.92,19.22-94,46.33-138.14,74.66-44.68,28.7-88.64,58.82-135.87,83.29-52.83,27.38-107.33,43.09-166.53,49-31.32,3.12-62.78,4.85-94,9.17-30.71,4.25-60.49,12-90,21.44-60.21,19.37-118.41,39.83-181.47,48.19-63.4,8.4-127.58,9.59-191.41,12-66.91,2.5-133.82,4.87-200.76,6.4-262.69,6-524.19-6.72-783-54.42-118.52-21.85-239.41-51-343.91-113.36C100.53,1811,18.85,1718.16,31.66,1602.94a176.4,176.4,0,0,1,26.79-75.77c3.82-6-5.69-11.5-9.5-5.55-58.78,92-23.09,209.42,47.73,283.32,80.18,83.67,196.44,127.77,306.18,156.67,126.73,33.38,258.24,52.07,388.39,65.89,135.71,14.41,272,19.84,408.48,19.3,136.76-.54,273.74-5.06,410.34-11.62,63.73-3.06,127.85-8.59,189.57-25.58,64.72-17.82,125.95-45.22,193.08-53.67,62-7.81,124.81-7.66,184.76-27.46,51.29-16.94,98.43-44,143.88-72.74,47.67-30.16,94-62.57,143.92-89.07,55.24-29.35,114.61-44.9,173.57-64.64,95.17-31.85,175.36-89.88,232.81-172.6,54.54-78.52,85.87-174.22,84.4-270.08a426.74,426.74,0,0,0-7.07-70.15c-1.27-7-11.87-4-10.6,2.93Z" transform="translate(-19.41 -805.29)"/><path d="M24.77,1513.66c.08,112.7,3.05,239.59,89.18,324,17.57,17.23,38,31.53,60.73,41.17,26.15,11.12,54.26,13.52,81.63,20.1,56.59,13.6,91.45,64.94,148.1,78.85,59.06,14.5,120.88,3.81,180.17,18.47,58.48,14.47,112.92,41.92,171.78,55.1,125.38,28.07,245.87-32.5,370.93-29.05,65.75,1.81,128.28,24.24,192.46,36,61.36,11.27,119.24,6.19,179.45-8.79,61.91-15.41,122.37-34.3,186.93-31.85,63.36,2.41,127,15.81,188.76-5.2,27.54-9.37,53.26-23.16,79.66-35.2,28.71-13.09,58.47-22.2,89.34-28.56,61.32-12.64,124.81-16.34,184.13-37.61,53.21-19.07,100.24-50.88,148-80.37,24.35-15,49.08-29.58,75.13-41.47,28.24-12.89,57.66-20.72,87.8-27.72,28.32-6.57,56.94-13.35,82.91-26.85,23.89-12.43,44.1-30.65,62.82-49.75,19.61-20,37.93-41.38,59.19-59.7,20.77-17.89,44.32-32.08,67.42-46.67,44.84-28.3,85.12-59.4,106.07-109.75,22.17-53.28,24.86-113.29,31.21-170l11.55-103.23c.79-7-10.22-7-11,0-7.28,65.1-12.43,130.88-22.66,195.6-9,56.87-28.23,108.38-74,145.57-40.38,32.77-88.58,54.15-126.68,90-41.84,39.41-75.35,87-131.14,107.91-27,10.11-55.52,15.06-83.37,22.09a389.78,389.78,0,0,0-76.35,28c-49.49,24.26-94.24,56.82-142.18,83.83-53.4,30.09-108.92,45.8-169.16,55.5-59,9.5-117.34,17.78-172.26,42.54-27.12,12.23-53.37,26.63-81.71,36-30.23,10-61.65,11.85-93.27,10.43-32.84-1.48-65.5-6-98.39-6.68-28.68-.56-57.07,2.77-85.14,8.48-60.77,12.37-119.81,34.88-182.08,39-63,4.2-123.81-14.28-184.57-28.16-58.06-13.27-114.48-17.74-173.71-9.86-62.41,8.31-123.52,25.15-186.33,30.65-62.13,5.44-119-6.44-177.24-27.26-54.14-19.34-107.22-39.83-165.22-43.19-61-3.52-121.08,1.56-173.22-36.05-21.47-15.49-41.16-33.55-65.94-43.78-26.24-10.84-54.91-12.48-82.16-19.64C84,1845.64,44,1713.44,37.64,1605.61c-1.81-30.61-1.85-61.3-1.87-91.95,0-7.08-11-7.09-11,0Z" transform="translate(-19.41 -805.29)"/><path d="M1820.06,1098.74c34.47-8.59,62.28-32,95.18-44.37,29.41-11,60.78-15.17,91.55-20.53,29.76-5.18,60.21-11.49,86.62-26.84,27.33-15.89,45.3-40.77,59.54-68.41s25.67-57.83,46.87-81.11c20.14-22.11,48.63-34.32,78.3-36.1s59.91,6.17,84.31,23.41c14.94,10.56,28.25,22.86,47,25.8s37.52-1.86,55.48-6.83c19.46-5.39,39-10.41,58.75-14.74,19.25-4.22,38.9-8.75,58.52-10.83,8.29-.89,17.33-1.2,25.15,2.18,7.62,3.31,12.61,10.14,18.46,15.72,5.1,4.85,11.25,9.46,18.57,9.65a23.41,23.41,0,0,0,17.53-7.24,13.77,13.77,0,0,0,2-16.45c-3.39-6.22-12.89-.67-9.5,5.55,2.51,4.62-6.89,7.37-10,7.14-7-.51-12.61-8.29-17.1-12.88-5.6-5.74-11.68-10.47-19.41-13-8-2.56-16.6-2.63-24.85-1.81-18.67,1.84-37.32,6-55.65,9.89q-29.31,6.22-58.21,14.18c-17.75,4.89-36.09,10.82-54.75,9s-31.85-14.62-46.44-24.92c-23.93-16.89-53.6-25.42-82.8-25.15-28.82.26-57.4,9.24-80.06,27.27-23.93,19-37.94,47.14-51,74.08-13.32,27.45-26.78,55.93-51,75.59-23,18.71-52.39,27-81,32.76-30,6-60.63,9.37-90.21,17.58a227.71,227.71,0,0,0-44.38,17.5c-15.56,8.09-30.46,17.44-46.42,24.75a137.9,137.9,0,0,1-24,8.46c-6.87,1.71-4,12.32,2.92,10.61Z" transform="translate(-19.41 -805.29)"/><path d="M2420,887.48c19.25-32.05,60.15-29.33,91.23-18.74,37.89,12.91,66.34,42.2,100.35,62.16,32.93,19.32,69.3,28.08,104.91,10.35,31.92-15.9,66-53.68,105.13-35,39.63,18.9-.75,57.2-17.48,75-17.45,18.59-31.73,41.4-21.69,67.37,9,23.28,31,39.42,49,55.42,17.73,15.74,42.8,38,30.61,64.38-7.09,15.34-24.29,23-38.65,29.86-14,6.7-28.31,13.2-39.7,24-21,19.89-29,49.42-35.58,76.62-6.75,27.84-11.55,61.32-32.92,82.32-32.65,32.1-79.4,8.77-116-1.77-38.24-11-74.5-7.17-108.52,14.07-33.79,21.09-59.16,52.21-82.81,83.66-24.74,32.88-49.85,68.12-85.27,90.37-36,22.62-77.41,23.7-118.54,20.37-38.12-3.09-76.82-9.82-115-3.74-17.73,2.82-35,8.84-50.08,18.76-16.53,10.9-29.52,26.14-45.59,37.59-38.77,27.61-84.53,7.14-127.7,13.8-32.75,5-56.88,28-79.69,50.19-23.42,22.79-50.55,50.32-86.36,44.83-36.65-5.61-64.74-36.13-102.8-37.23-60.89-1.76-96.75,63.2-143.28,91.69-31.24,19.13-62.84,15.59-93.88-2.22-28.91-16.59-55.46-40.89-89-47.73-34.38-7-65,10-94.69,24.85-16.26,8.1-33.83,16.64-52.4,16.67-22.45,0-37.46-15.44-56.1-25.27-27.4-14.43-56-5.92-82.58,5.94-24.28,10.82-57,33.81-84.86,23.84-18.53-6.64-24.58-26.67-37.19-39.9-12.29-12.89-29.66-17.49-46.82-19.41-49.84-5.59-100.72-6.1-150.79-9l-77.68-4.44c-23.69-1.35-49.48-.34-72.34-7.45-36.51-11.34-52.74-48.68-75.13-76.27-10.66-13.14-23.2-24.43-38.89-31.15-18.8-8-39.41-9.12-59.29-12.83-39.13-7.31-69.42-33.25-79.91-72.27-10.13-37.65,4.13-75.77,36.12-97.94,32.68-22.66,71.84-23.07,106.19-4.29,30.17,16.5,60.78,45.12,97.59,42.33,39.23-3,57.47-42.13,89.87-58.4,34.92-17.53,79.32-11.27,108.15,14.88,5.23,4.74,13-3,7.78-7.78-26.41-24-63.41-33.1-98.12-25.07-18,4.16-33.6,13.24-47.33,25.44-15.61,13.86-30.09,32.43-51.06,38.19-41.43,11.38-78.63-29.55-113.42-45.14-31.3-14-66.58-11.69-96.5,4.95-29.26,16.27-50.31,45.26-53.27,79s11.29,68.43,36.17,91c13.28,12.06,29.07,19.88,46.48,24,21.73,5.13,44.78,5.15,65.62,13.81,35.81,14.88,50.57,54.54,75.36,81.56,30.21,32.9,71.75,31.92,113.34,34.3l163.12,9.32c25.78,1.47,53.14.55,78.47,5.91,11.43,2.41,21.93,7.07,29.77,15.93,6.81,7.7,11.4,17.09,18,25,19.94,24,48.82,20.88,75.1,10.17,28.76-11.71,59-33.65,91.43-31.11,22.26,1.73,37.47,19.52,57.1,27.87,14.93,6.36,31.09,6.38,46.61,2.28,36.51-9.64,67.5-39.06,106.28-40.32,38.35-1.25,69.28,27.88,100.29,46.25,27.92,16.55,58.82,25.39,90.15,12.94,28.42-11.29,50.47-34.13,72.48-54.53,22.81-21.14,49.77-45.82,83.07-44.63,39.54,1.4,69.1,35.77,108.71,37.83,32.93,1.72,58.9-20.37,81.18-41.81,27.17-26.14,53.13-53.68,93.35-55.14,43.68-1.58,85.3,12,123.11-17.15,16.76-12.9,30.81-29.15,49.58-39.33,18.49-10,39.45-13.87,60.3-14.61,42.45-1.52,84.41,7.93,126.84,7.57,38.94-.33,74.59-11,105.2-35.59,65.82-52.79,98.44-153.47,185.85-177.56,46.55-12.84,86.45,15.7,131.47,20.75,32.28,3.62,60.56-11.1,75.6-39.76,14.69-28,17.92-60.37,27.09-90.27,4.67-15.26,10.85-30.67,21.48-42.83,11.39-13.05,27.09-20.05,42.4-27.4,24.73-11.87,52.36-29.88,46.63-61.59-4.4-24.35-27-41.75-44.5-57.06-19.24-16.87-47.67-39.53-39.83-68.69,8.09-30,42-44.53,54.17-72.43,12.38-28.31-8.73-53.12-37-56.63-39.16-4.87-65.14,24.38-97.53,40.38-47.06,23.24-92-7.15-129.5-34.38-29.31-21.28-58.08-40.78-94.86-45.81-29.71-4.06-59.87,3.38-76.08,30.36-3.65,6.09,5.85,11.63,9.5,5.56Z" transform="translate(-19.41 -805.29)"/><path d="M845.82,1280.59c-28.57,20.91-62.87,30.49-96.89,38.39-8.37,2-18.61,6-27.21,4.32-8.16-1.56-14.87-9.73-20.27-15.51-12-12.78-21.8-27.29-32.12-41.37-19.63-26.78-44-54.53-78.22-61.23-16.34-3.19-32.26-.28-46.94,7.4-15.39,8.07-28.2,20.09-43.12,28.91-15.36,9.09-32.58,14.36-49.6,6.57-14.2-6.5-27.22-16.85-43.75-15.14-15.29,1.59-28.74,11.67-36.6,24.6-8.84,14.53-11,32.19-10.79,48.89.07,6.38,1.38,15.32-2.78,20.78-4.84,6.34-13.9,1.91-18.33-2.55-6-6.07-9.64-14.11-15.22-20.57a52,52,0,0,0-16-12.28c-24.94-12.48-56.79-6.86-76.38,12.8-21.34,21.42-27.91,55.14-20.58,83.92,3.61,14.15,11.17,28,22.86,37.08,13.29,10.26,28.17,9.72,44,7.47,8.56-1.21,17-2.15,25.21,1.17,6.56,2.65,9.41-8,2.92-10.61-16.05-6.49-32.3,1.42-48.71,0-14.77-1.26-25.31-13.12-31.33-25.76-12.21-25.66-8.41-60.79,10.44-82.35,17.52-20,49.63-26.36,72.12-10.63,12.56,8.78,16.47,25.86,30.28,33.14,13.32,7,28.4,1.43,31.56-13.83,1.5-7.27.77-14.68.88-22a95.7,95.7,0,0,1,3.33-25.26c4.27-14.79,14.63-28.65,30.24-32.43s28.94,7.73,42.42,13.7c15.55,6.89,31.52,5.71,47-.91,30-12.83,52.92-45.41,88.38-42.29,34.09,3,58.9,32,77.69,57.66,10,13.7,19.65,27.77,31,40.4,5.42,6,11.25,12.22,18,16.74,7.3,4.86,15.4,5.4,23.85,3.92,16.76-2.93,33.59-7.41,49.92-12.16,16.08-4.68,32-10.43,46.83-18.18a165.65,165.65,0,0,0,21.37-13.29c5.66-4.14.18-13.69-5.55-9.5Z" transform="translate(-19.41 -805.29)"/><path d="M651.83,1254.89q36.55-33.66,75.2-64.94c12-9.71,24.08-21,37.65-28.5,14.91-8.25,32.47-1.59,47.77,2.44,30.16,7.93,60.88,17.46,92.46,14.69,14.45-1.27,28.72-4.95,41.37-12.19,10.94-6.25,20.39-14.81,30.12-22.73,9.27-7.55,19.52-15.38,31.55-17.63,10.87-2,21.41,1.67,30,8.27,18.55,14.25,29.52,36.16,48.9,49.62,21.8,15.14,49.94,16.76,75.18,11.14,27.54-6.14,51.24-21.2,72.91-38.73,43.84-35.45,88-88.88,150.1-85.89a81.63,81.63,0,0,1,20.9,3.89c6.77,2.15,9.66-8.46,2.93-10.61-28.14-8.94-57.81-2.85-83.87,9.6-27.42,13.11-50.1,33.53-72.61,53.54-21.83,19.41-44.49,39.76-71.9,50.9-24.12,9.81-53.5,14-77.84,2.57-22.58-10.62-34.43-33.34-52.15-49.72-8-7.44-17.59-13.64-28.58-15.44-12.09-2-23.8,1.08-34.33,7.08-11,6.29-20.47,15-30.29,22.94-10.83,8.77-22.28,15.9-35.87,19.5-31.3,8.28-63.64,0-94-8.19-8-2.15-16-4.34-24.12-6.28s-16.32-4.07-24.6-3.86c-15.41.39-27.12,10.31-38.69,19.34q-39.91,31.14-77.72,64.88-9.18,8.19-18.22,16.54c-5.22,4.8,2.57,12.57,7.77,7.77Z" transform="translate(-19.41 -805.29)"/><path d="M198.28,1345.1c-32.63,6.45-66.14,13.65-95.37,30.21a121.66,121.66,0,0,0-59.6,79.81c-8.25,35.62-5.82,75.05,5.35,109.78a168.23,168.23,0,0,0,63.44,86.43c31.43,22.43,68.35,35.32,105,46.35,20.54,6.18,41.22,11.89,61.55,18.75,19.23,6.49,38,14.14,56.55,22.48,37.55,16.91,73.89,36.34,111.08,54,36.76,17.49,74.47,32.68,113.61,44a690.45,690.45,0,0,0,241.6,25.6q15-1.1,30-2.85c6.95-.81,7-11.82,0-11a682.2,682.2,0,0,1-236-13.75,674,674,0,0,1-112.85-37.49c-36.11-15.67-71-34-106.31-51.32-35.72-17.46-72-33.45-110-45.31-37.83-11.81-76.84-21-112.76-38.15-31.8-15.19-61-36.57-79.28-67.29C55.71,1564.24,48.58,1527,49.79,1491c1.17-35.11,12-69.79,39.55-93.09,24.73-20.93,57.3-30.34,88.31-37.31,7.83-1.76,15.69-3.36,23.56-4.91,6.94-1.37,4-12-2.93-10.61Z" transform="translate(-19.41 -805.29)"/><path d="M2492.84,868.67a424.83,424.83,0,0,1,172.57-26.82c58,3,116.24,17.72,167.84,44.65,23.76,12.41,46.19,27.71,64.74,47.18a168.62,168.62,0,0,1,40.78,73.47c15,56.31,6.88,117.27-12.81,171.36-20,54.84-52.58,104.29-91.16,147.78-40,45.13-86.13,84.35-133.3,121.74-48.82,38.7-98.43,76.49-149,112.87-51.12,36.78-103.46,71.94-157.67,104-53.26,31.54-108.43,62-167.37,81.57a403.21,403.21,0,0,1-92.68,19.31c-32.58,2.78-65.36,2.1-98,.3-16.19-.89-32.36-2.07-48.54-3.25-7.06-.52-7,10.48,0,11,66.55,4.86,134.15,9.47,199.89-5,61.81-13.64,119.31-42.08,174.31-72.63,56.41-31.34,110.77-66.26,163.68-103.17,52.57-36.69,103.73-75.36,154.36-114.68,48.76-37.86,97.18-76.57,140.31-120.88,41.68-42.81,78.31-91,103.24-145.59,24.37-53.29,37.95-112.58,31.84-171.3-3.1-29.8-11.26-59.35-27.09-85-14.38-23.29-34.31-42.55-56.56-58.29C2825,863.85,2767,844.17,2710.11,835.46a439.51,439.51,0,0,0-178,9,421.21,421.21,0,0,0-42.2,13.56c-6.56,2.49-3.71,13.13,2.92,10.61Z" transform="translate(-19.41 -805.29)"/><path d="M2943.07,1168.35c3.25,51.45,6.46,103.2,1.95,154.68-4.16,47.5-16,93.7-37.42,136.41-41.42,82.68-110.43,147.53-186.45,198.44-46.07,30.85-95,57.21-144.36,82.28-6.32,3.2-.76,12.7,5.55,9.5,87.5-44.4,174.64-93.59,244.86-163.18,32.23-31.94,60.78-68,82.7-107.82a380,380,0,0,0,43.77-134.2c7.73-58.42,4.1-117.53.4-176.11-.44-7-11.44-7.08-11,0Z" transform="translate(-19.41 -805.29)"/><path d="M1377.4,1070.88a285.11,285.11,0,0,0,161.3-6.54c25.18-8.6,48.45-21,70.64-35.59,21-13.81,41.28-28.86,63.14-41.37,21.22-12.15,44.39-21.81,69.07-23.19,29.09-1.64,57.23,7.29,85.52,12.55,14,2.6,28.19,4.47,42.43,4a175.8,175.8,0,0,0,40.42-6.53c26.74-7.36,51.84-19.43,77.45-29.84,45.19-18.38,108.54-34,147.44,5.8,5,5.07,12.74-2.71,7.78-7.78-33.71-34.46-87.3-32-130.07-18.91-52.28,16-100.48,49.66-157.26,46-28.86-1.85-56.57-11.33-85.18-15a147,147,0,0,0-76.26,10.07c-47.81,19.83-85.62,57.11-132.41,78.89-56.11,26.13-121.16,32-181.09,16.82-6.86-1.74-9.79,8.87-2.92,10.61Z" transform="translate(-19.41 -805.29)"/><path d="M946.3,1150.33c104.75,3.24,206.84,45.66,312.26,27,88-15.59,164-66.85,239.53-111.6,38.75-23,78.34-45.16,120.65-61,49.62-18.51,102.11-26.52,154.47-32.78s104.76-11.57,156.14-23.77c49.84-11.83,98.46-28.17,147.13-44,94.25-30.74,194.63-63.43,295-47.75a335.09,335.09,0,0,1,35.71,7.65c7.4,2,10.56-9.48,3.16-11.48-97.33-26.34-197.15-3.74-291.06,25.39-49.45,15.35-98.32,32.6-148.11,46.88-50.79,14.56-102.1,23.9-154.54,30.13-52.72,6.26-105.9,11.24-157.43,24.59-45.17,11.7-87.58,31.06-128.33,53.54-78.21,43.17-152,98.4-238.61,124-48.08,14.19-97.21,15.58-146.76,9.6-53.18-6.42-105.35-19.39-158.6-25.35-13.49-1.51-27-2.53-40.59-2.95-7.66-.23-7.65,11.67,0,11.91Z" transform="translate(-19.41 -805.29)"/><path d="M2302.13,847.82a454.33,454.33,0,0,0-149.06,4.31,442,442,0,0,0-73.27,21.12c-23.35,9-45.48,20.46-67.89,31.52-23.19,11.45-46.8,21.32-72.28,26.33-25.9,5.1-52.44,5.83-78.76,5.4-50.24-.82-100.3-5.39-150.28,2.15-86.37,13-165.17,54.13-242.38,92.76s-157.5,78.09-244.83,85.84c-44,3.9-88.26.77-132.36,2.1-41.44,1.25-84.27,6.34-121,26.86a166,166,0,0,0-25.24,17.49c-5.9,4.9,2.57,13.28,8.42,8.42,32.94-27.35,75.18-37,117-39.86,43.4-3,86.93.07,130.37-1.67,86.76-3.47,166.36-36.13,243.37-73.85s153.21-80.68,237.44-100.35c47.35-11,94.77-11,143.1-9.12,50.43,1.94,102.28,3.67,150.57-13.48,23.25-8.25,45.06-19.9,67.11-30.83a463.71,463.71,0,0,1,70.65-28.48A439.75,439.75,0,0,1,2262,855.92q18.57.9,37,3.39c7.49,1,10.73-10.46,3.16-11.49Z" transform="translate(-19.41 -805.29)"/><path d="M632.46,1246l111.59-49.27c37-16.32,73.72-33.21,110.92-49,8.28-3.5,17-6.75,26-7.63a67.86,67.86,0,0,1,26,2.84c17.35,5.14,32.72,15.15,47.82,24.82,27.62,17.68,61.27,37.09,95.38,29.79,16.52-3.54,29.55-14.06,41.31-25.63,11.25-11.07,22.22-23.91,37.48-29.45,7.15-2.59,4.06-14.1-3.16-11.48-13.74,5-24.55,14.41-34.77,24.56s-20,21-33.15,27c-32.57,14.87-69.51-7.48-96.37-24.63-29.85-19-62.25-37.85-98.58-25.91-18.54,6.09-36.31,15.26-54.14,23.13l-55.34,24.44-127,56.08c-7,3.09-.94,13.35,6,10.28Z" transform="translate(-19.41 -805.29)"/></g></svg>