<svg xmlns="http://www.w3.org/2000/svg" viewBox="0 0 2933.43 2493.06"><g id="tagine"><path d="M797.23,155.4c31.13-3.17,59.49-20.47,91-20.82,12.82-.14,26.6,2.42,36.81,10.7,10.57,8.56,15,21.65,14.44,35-1.32,30.43-26.54,51.1-51.13,64.83-28.52,15.93-59.47,27.35-90.75,36.52-32,9.38-64.6,16.33-97.25,22.91q-52,10.5-104.14,20.79Q569.29,330.67,542.4,336c-15.33,3-33.55,6.66-47.62-2.35-5.36-3.44-10-8.66-11.76-14.87-2-7.23,1-13.92,5.39-19.6,8.71-11.26,20.14-21.09,31.38-29.73,45.82-35.18,102.57-52.33,157.65-66.86q10.34-2.73,20.69-5.36c6.23-1.6,3.59-11.24-2.66-9.65C635.91,202.86,574,219.08,523,254.82a231.39,231.39,0,0,0-34.67,29.5C478.18,294.92,468.39,308,474,323.41c5,13.64,18.17,22.71,32.18,25,17.86,2.91,36.06-2.16,53.49-5.63L675.2,319.71c35.4-7.06,70.88-13.92,105.8-23.13,34.21-9,67.94-20.38,99.65-36.19,27.23-13.57,56.15-32.09,65.75-62.74,4.33-13.83,4.35-29.27-1.59-42.63-5.69-12.8-16.93-21.81-30-26.42-30.92-10.94-62,2.64-91.54,11.3a145.26,145.26,0,0,1-26.08,5.5c-6.34.65-6.41,10.65,0,10Z" transform="translate(-36.94 -124.52)"/><path d="M492.86,394.59c2.3,36.44,25.56,64.47,47.74,91.56,12.31,15,24.71,30.3,33.49,47.75,11,21.9,13.49,46.26,11,70.41-2.57,25.44-10,50.13-17.3,74.54Q556.49,717.06,545,755.23c-15.28,50.9-30.84,101.72-47.18,152.3-32.44,100.48-67.95,200.11-110.4,296.84-37.78,86.08-81.35,170.2-136.72,246.4a849.28,849.28,0,0,1-93.33,107.75c-29.36,28.74-59.88,56.85-84,90.33-22.52,31.28-39.37,69.63-36.08,109,1.69,20.26,9.25,39.25,25,52.59,16.19,13.69,37.23,21.94,57,29.12,89.27,32.47,186.75,25.94,279.5,16.67,50-5,99.89-10.61,150.06-13.65,52-3.16,104.16-4.91,156.07-9.83s102.89-13.66,153-27.66c49.64-13.86,98.07-31.64,146.23-49.88,97.36-36.87,194.7-73.88,291.08-113.26,183.34-74.89,363.92-159.23,528.93-269.54,76.6-51.22,149.75-107.82,217.17-170.68,33.68-31.39,65.92-64.35,96.36-98.9,29.92-34,61-69.28,83.22-108.9,19.63-34.94,33.34-77.71,16.59-116.51-13.85-32.07-44.14-50.58-76.75-59.5-37.2-10.18-76.06-9.9-114.3-10.72q-69.3-1.49-138.31-8.86A1681,1681,0,0,1,1361.88,643a1659.26,1659.26,0,0,1-242-142.12c-39.26-27.79-79.6-56.54-110.47-93.87-29.8-36-47.21-80-57.47-125.2-10-43.92-13.65-88.94-17-133.76-.48-6.38-10.49-6.43-10,0,6.48,85.6,14.07,178,65.31,250.25,26,36.69,61.45,64.91,97.3,91.44q56.48,41.79,116.42,78.6A1691.48,1691.48,0,0,0,1713,775.8a1672.76,1672.76,0,0,0,273.66,39c41.85,2.44,84,1.05,125.75,4.89,35.55,3.28,75.57,11.17,101,38.47,33,35.46,23,85.23,2.55,124.24-21.33,40.61-52.68,76.26-82.75,110.58-59.94,68.42-126.86,130.54-198.23,186.86-150.69,118.93-320.48,211.14-495.14,289.61-94,42.21-189.57,80.59-285.6,117.77-94.71,36.66-189.39,76.29-287,104.82a854.93,854.93,0,0,1-153.86,29.87c-51.86,5.28-104,7.14-156,10.16-97.05,5.63-193.81,23-291.18,21.55-47-.68-94.23-6.44-138.85-21.84-21.44-7.4-46.79-16.42-62.93-33.11-17.11-17.7-19.35-43.93-16.09-67.2,5.81-41.48,30.66-76.86,58.06-107.27,28.41-31.53,60.59-59.38,89.41-90.52,129.75-140.19,206.4-322.84,270-500.39,34.9-97.42,65.32-196.36,95-295.48,13.86-46.36,32.87-94.48,35.16-143.25,2-41.73-15.24-74.45-40.58-106.08-22.35-27.9-50.06-56.23-52.43-93.87-.4-6.39-10.41-6.44-10,0Z" transform="translate(-36.94 -124.52)"/><path d="M482.42,355.18c18.51,83.56,98.75,135.76,118.79,218.37,13.67,56.31-6.26,114-24.62,166.75-16.11,46.37-32.33,92.7-49,138.86C460.94,1063.52,385.94,1247.34,275,1410.08a1249.19,1249.19,0,0,1-90.18,117.2c-31.8,36.49-68.06,69.52-96.34,109-24.31,33.91-40.79,73.2-37.64,115.58,2.72,36.59,20,72.86,54.19,89.58,21.28,10.41,45.13,12.8,68.44,14.61q41.37,3.21,82.78,6c55.59,3.83,111.23,7.09,166.94,8.59,109.69,3,220-.88,328.16-20.61,108.66-19.82,211.74-58.73,313-101.84s202.61-87.28,302.81-133.3c197.18-90.56,388.57-193,561.88-324.38q62.54-47.42,121.87-98.88c37.29-32.38,74.49-65.41,107.46-102.27,30.13-33.71,57-71.17,73.2-113.68a226.42,226.42,0,0,0,14.37-64c1.42-19.55.18-41.14-12.6-57-14-17.39-38.13-22.89-58.4-29.23q-39.57-12.37-79.69-22.87c-53.47-14.1-107.48-26.07-161.66-37.11-108.54-22.12-217.83-40.53-325.89-65-192.87-43.67-387.47-109.69-539.08-241.29-30.5-26.47-68.67-58.29-111.39-39.83-19.77,8.55-34.94,24.56-50.42,39A321,321,0,0,1,849.62,501a330.57,330.57,0,0,1-135.56,43.66,315.44,315.44,0,0,1-69.43-1c-25.08-3.25-48.85-11.32-59.77-36.06-10.27-23.25-14.62-50.08-21.11-74.56l-22.08-83.33-6.15,6.15c82.33,18.09,169.22,6.29,245-30.26A374.54,374.54,0,0,0,881,255C905,231.16,950.22,187.22,924.31,151c-11-15.31-30.83-23.51-49.36-23.1-26.88.59-50.61,16.36-72.08,30.87-3.89,2.63-2.73,9.48,2.53,9.32,34.91-1.07,79.6-29.84,109.86-.74,36.47,35.07-44.6,60.58-66,69.85-81.34,35.31-164.82,68.55-249.85,94-38.7,11.56-86.6,21-121.05-6.32v7.07A355.45,355.45,0,0,1,687.65,207.64L685,198a578.4,578.4,0,0,0-229,171.93c-2.75,3.44-1,8.2,3.54,8.54C599,389,740.34,343.29,849.27,255.91A535.13,535.13,0,0,0,934.45,170c2.31-2.94,1.67-7.15-2.21-8.36a284,284,0,0,0-169.23.16c-6.12,1.92-3.59,11.33,2.66,9.65a301.48,301.48,0,0,1,111.13-9.11c12.94,1.36,27.78,2.65,39.67,8.48,22.68,11.13,20,40.16,5,56.72C905.33,245.3,880.1,251.7,858.17,259L707.07,309.1l-74.52,24.72c-21.85,7.25-43.65,15.77-66.06,21.14-30.86,7.38-84.62,12.54-95.35-27.15L462,331.66c47,70.47,94.53,143.52,118.77,225.49,11.92,40.29,17.46,82.4,13.21,124.33-4.59,45.31-21.36,88.3-40.45,129.27-39.77,85.37-83,169.25-124.64,253.73L301.35,1323.35c-38.74,78.63-77.14,157.7-123.67,232.11-23.11,37-48.81,71.62-75.61,106-22.06,28.25-45.66,60.42-50.43,97C41.11,1839,146.2,1868.59,207.52,1876.86c81.26,11,164.77-.95,245.59-10.69,163-19.64,324.83-49.32,483.77-90.55,157.85-40.94,312.8-93.32,462.33-158.47,150.07-65.38,294.58-143.8,429.83-236.11,66.54-45.41,131.32-93.91,192.4-146.47,59.34-51.06,115.12-107.17,159.87-171.66a572.46,572.46,0,0,0,57.36-103.26c14.56-34.42,26.95-74.51,10-110.41-27.22-57.56-105.51-62.48-160.6-65.09a2319.1,2319.1,0,0,1-541.7-90.91q-64.47-18.88-127.76-41.5c-6.08-2.17-8.69,7.49-2.66,9.64a2335.88,2335.88,0,0,0,519.68,120.51q66.75,7.61,133.86,11.3c34.41,1.9,69.14,2.61,102.59,11.87,30.16,8.35,60.07,24.93,70.74,56.23,13.95,40.88-8.51,87-26.46,123.15-70.35,141.58-198,246.83-323,338.81-128.9,94.86-267.34,176.47-411.74,245.38-145.13,69.25-296.25,125.66-450.58,170.68-154.83,45.18-312.92,79-472.42,102.67-80.38,12-161.61,23-242.79,27.67-41.08,2.35-82.74,2.2-123.34-5.23-38.11-7-82-20.07-110.75-47.41-32-30.44-21.06-73.08-1.34-107,20.21-34.74,48-64.53,71.2-97.25,49.31-69.57,89.22-145.21,127.24-221.37,82.82-165.92,164-332.66,246-499C562,817,605.07,740.09,605.43,653.7c.34-80.13-31.75-156.27-70.6-224.87C515,393.8,493,360.08,470.64,326.61c-3.07-4.59-10.68-1.82-9.14,3.85,9.92,36.7,51.06,42.06,83.48,38.39,22.69-2.58,43.82-10,65.39-17.15l89-29.52c59.48-19.74,119.2-38.9,178.48-59.24,21.27-7.29,44.47-16.65,57-36.54,9.94-15.81,12.54-38.43.14-53.67-16.21-19.93-51-20.43-74.32-21.61A315.28,315.28,0,0,0,763,161.83l2.66,9.65a274.31,274.31,0,0,1,163.91-.17l-2.2-8.35C841.64,271.59,714,343.87,577.36,364.31a528.31,528.31,0,0,1-117.88,4.16L463,377A568.69,568.69,0,0,1,687.65,207.64c5.86-2.44,3.8-10.86-2.66-9.64A363.85,363.85,0,0,0,471.32,324.85c-1.55,1.9-2.28,5.26,0,7.07,31.95,25.36,73.33,23.24,111.05,14.23,48.61-11.6,96.19-30.56,142.91-48.09q72-27,142.47-58.06c25.19-11.1,84.72-31.37,62-70.44-8.85-15.22-27.53-24-44.62-25.11-27.2-1.79-52.68,12.83-79.72,13.66l2.52,9.31c17.81-12,36.59-24.92,58.22-28.61,18.35-3.13,40.71,2.88,51.07,19.51,13.29,21.36-4.22,44.55-17.47,61a345.87,345.87,0,0,1-37.53,39.58c-54.64,49.36-124.64,81.27-197.41,91.76a354.88,354.88,0,0,1-126.62-4.5,5.06,5.06,0,0,0-6.15,6.15l22.08,83.33c6.47,24.41,11.11,50.46,20.8,73.84,17.31,41.74,64.6,46,104.42,46.52,92,1.3,176.87-36.18,243.12-98.72,16.68-15.76,35.31-32.72,59.51-33.69,24.81-1,47,15.14,65.2,30.18,36.5,30.16,72.31,59.94,112.29,85.56,81.08,52,170.2,90.46,261.5,120.49,201.64,66.33,413.59,90,619.45,139.17,51.71,12.35,103.72,25.62,154,43.08,11.29,3.93,23.11,8.83,30.95,18.28,8.31,10,10.8,23.51,11.13,36.16.6,23.2-4.12,46.65-11.59,68.53-31,90.87-110.72,158.49-181,219.48-161.84,140.5-342.43,255-533.74,350.88-96.6,48.44-195.17,92.81-294.14,136.16-100.16,43.87-200,89.85-303.54,125.41-104.53,35.92-212.56,55.48-322.81,61.77-109.72,6.25-219.72,1-329.23-6.44q-41.61-2.85-83.19-6c-26-2-53.68-4-76.16-18.61-33.77-21.9-44.15-65.76-39.62-103.62,5.73-47.93,37-87.9,68.44-122.47,32-35.21,65-69.22,94.7-106.46,120.06-150.29,202.74-325.93,271.9-504.32C532,899.41,566,806.89,596.18,713.61c15.58-48.12,27.36-100.32,12.67-150.2-11.51-39.1-36.49-72.13-60.21-104.56-23.85-32.6-47.69-66.23-56.58-106.33-1.39-6.28-11-3.62-9.64,2.66Z" transform="translate(-36.94 -124.52)"/><path d="M2275.87,939.76c20.39,43.21,41.94,89.76,35.62,138.83-5.66,44-31.36,82.34-58.25,116.35-57.7,73-119.65,144.57-194,201-73.21,55.61-151.8,105-230.38,152.63q-116.91,70.82-238.85,132.8a3687.53,3687.53,0,0,1-506.43,211.65q-129.67,43.15-262.33,76.59c-95.76,24.11-192.69,44.74-290.94,55.59-97.6,10.78-197.39,12.44-294.57-3.29-42.65-6.91-82.61-21.24-109.13-57.12C105,1935.53,94.17,1899.59,87,1864.31c-3.64-17.85-6.34-35.86-8.78-53.91l-9.64,2.66c22.24,73.27,65,145.79,131.55,186.82,35.46,21.89,75.24,31.08,116.72,30.27,54.05-1,108.44-9,162.22-14.12l325.45-30.91c52.33-5,105.12-8.52,156.91-17.81,48.29-8.67,93.87-24.74,137.53-47,42.06-21.45,81.79-47.07,122.21-71.4,43.07-25.94,87.26-48.88,133.71-68.2,47-19.54,94.76-37,141.65-56.8q64.83-27.32,128.06-58.22a2523.65,2523.65,0,0,0,481.52-307.56c37-30,73.54-60.8,108.27-93.41,31.78-29.83,62.08-62.46,83.35-100.8,21-37.79,31.05-80.17,28-123.37-3.17-44.46-18.48-87.3-39.73-126.22a454.28,454.28,0,0,0-37.16-56.85l-7.85,6.06c59.66,57.71,73.16,148,53,225.91-22.33,86.1-79.29,159.38-140.51,221.88-124,126.61-281.2,213.9-438.34,292.48-177.11,88.57-358.71,168.76-546.16,233-190.06,65.1-385,114.32-579.69,163.5-94.79,23.94-189.78,43.59-288,32.2-47.57-5.51-95.21-17.32-139.07-36.74-18.55-8.21-38.06-18.88-49.63-36.16-12.87-19.23-10.12-42-7.2-63.65,2.51-18.61,4.67-37.16-1.48-55.31-2.06-6.06-11.72-3.46-9.65,2.66,13.52,39.86-15.45,83.62,9.7,121.34,22.26,33.4,68.4,47.7,104.75,58.8,92.83,28.34,190.56,27.69,285.2,9.23,50.72-9.89,100.72-23.39,150.79-36.09s100.19-25.5,150.18-38.66c101.34-26.67,202.33-54.84,302.15-86.79,194.85-62.36,383.64-141.63,567.47-231.18,164.69-80.23,331.22-166.31,466.16-292.36,64-59.78,124.35-129.33,158.06-211.1,30.67-74.39,35-162.22-5.21-234.11A198.42,198.42,0,0,0,2248,856.46c-3.91-3.77-11.41,1.38-7.86,6.06,53.67,70.67,94.59,163.52,67.51,252.94-26,85.91-103.5,147.31-169.34,203a2511.2,2511.2,0,0,1-462.71,310.27c-84,43.72-170.5,82.09-258.72,116.54-45.56,17.8-91.29,35.5-134.89,57.79-40.37,20.65-78.62,45.09-117.39,68.54-39.78,24.06-80.38,47.41-124,63.91-47.69,18-98,25.88-148.5,31.16-104.89,11-210,20-315,30l-156,14.82c-50.36,4.79-104.36,15.13-154.55,4.56-77.8-16.4-134.2-81.19-167-150.23a397.19,397.19,0,0,1-21.29-55.46c-1.93-6.35-10.48-3.53-9.64,2.66,9.3,68.76,23.35,151.08,86.25,192.1,38.14,24.88,87.54,28.9,131.71,33.29a1075.82,1075.82,0,0,0,149.65,4c100.87-4,200.92-20.38,299.36-42.17,93.83-20.76,186.75-45.91,278.53-74.37a3701.78,3701.78,0,0,0,525.63-208.29c170-82.86,334.79-178.29,489.37-287.29,39.36-27.76,77.11-57.51,111.32-91.5,34.7-34.49,66.18-72,97.55-109.51,26.84-32.08,54.25-65.1,70.72-104,17.69-41.72,16.92-84.78,2.63-127.42-7.28-21.72-17-42.54-26.77-63.23-2.74-5.82-11.37-.75-8.63,5Z" transform="translate(-36.94 -124.52)"/><path d="M148,2013.24c-5.19-2.76,9-4,12.17.91,1.45,2.27,1.8,5.1,2.46,7.64,1.38,5.35,1.94,10.91,3.19,16.29a145.4,145.4,0,0,0,11.37,31.38c10,20.15,24.54,37.8,41.11,52.86,34.82,31.64,77.95,53,121.13,70.71,118.49,48.69,241.94,87.09,366.1,118.29a2923.55,2923.55,0,0,0,376.64,68.76c133.44,15.43,267.57,19.56,401.74,23.37,137,3.88,274.39,7.23,411.21-3.33,132.1-10.2,262.82-33.4,392.16-61.55,65-14.15,129.73-29.56,194.37-45.24,60.42-14.66,121.1-28.9,180.09-48.69,102.77-34.46,208.42-89.31,265.47-185.7,48.08-81.21,50.18-197.38-23.77-264.72-69.29-63.09-170.61-60.22-251.33-100.3-20.55-10.21-39.1-23.34-54.74-40.17l-6.06,7.85,170.39,86.73c47,24,97.28,45.7,138.86,78.77,39.91,31.75,67.14,76.21,57.53,128.8-10,54.59-50.38,99.67-89.83,136.1-78.34,72.34-175.92,119.91-275.65,155.23-107.94,38.23-220.22,65.48-332,89.5-242.35,52.06-490.14,79.86-738.1,78.59-252.17-1.29-499.9-39.19-747.15-85.82-205.66-38.78-468.05-70.9-578.57-276.46a306.23,306.23,0,0,1-26.86-69.13c-1.59-6.23-11.24-3.59-9.64,2.66,24.67,96.35,95.05,173.32,178.21,224.63,100.48,62,218.5,86.7,333,108.68,254.82,49,510.16,96,770.16,104,255.89,7.89,512.44-15.76,763.45-65.48,118.86-23.54,237.79-51.43,353.09-88.91,101.15-32.88,200.75-75.94,284.6-142.48,72.39-57.46,167.68-159,109.85-257.24-23.44-39.81-64.47-66.37-104.06-88C2794.13,1752,2738,1725.08,2682.8,1697l-86.43-44c-5-2.56-10,3.6-6.06,7.86,64.6,69.54,167.21,69.07,249.38,105,46.48,20.33,83.73,54.26,100.81,102.92,17.72,50.52,14.16,107.31-7.06,156.19-46.85,107.94-158.7,170-264.79,206.8-59.39,20.61-120.65,35.19-181.68,50-63.76,15.49-127.57,30.75-191.65,44.84-132,29-265.34,53.11-400.19,63.53-136.82,10.56-274.19,7.21-411.21,3.33-134.16-3.81-268.3-7.93-401.74-23.37a2907.23,2907.23,0,0,1-386.83-71.66c-123.45-31.62-247.87-69.3-365-120-44.15-19.1-88.9-43-121.16-79.5-16.53-18.72-28.82-40.92-34.16-65.41-2.65-12.16-5.68-40.67-25.12-36.49-11.05,2.38-18.83,18.53-7,24.84,5.68,3,10.74-5.61,5-8.64Z" transform="translate(-36.94 -124.52)"/><path d="M2009.59,1538.13a169.12,169.12,0,0,1-120.37-17.05l-2.53,9.31q74.89,8.88,148.71,24.74l1.33-9.82-71.1-3.25c-17.62-.8-38.92-.42-51.65-14.73l-4.86,8.35q75.12,10.74,150.62,18.54l-1.33-9.82c-16,2.3-32.92-1.44-48.79-3.41l-50.15-6.21-100.31-12.43v10a340.92,340.92,0,0,0,70-4.56c18.19-3.09,45.94-10.59,57.54,9.46,3.22,5.57,11.86.54,8.63-5-11.79-20.4-37.08-19.76-57.32-16.15-26.19,4.68-52.19,7.3-78.82,6.29-6.59-.24-6.2,9.24,0,10L1961.43,1545l51.14,6.34c16.08,2,32.31,5,48.5,2.69,6-.87,3.8-9.3-1.33-9.83q-74.16-7.65-148-18.18c-4.84-.69-8.41,4.37-4.87,8.36,13.24,14.88,34.24,16.54,52.88,17.4q38.46,1.77,76.94,3.51c5.58.26,6.87-8.63,1.33-9.82q-75.06-16.1-151.37-25.1c-5.07-.6-6.58,7-2.52,9.32a179.67,179.67,0,0,0,128.08,18.06c6.27-1.46,3.61-11.11-2.66-9.64Z" transform="translate(-36.94 -124.52)"/><path d="M1920.51,1619a709.69,709.69,0,0,1-175.06-20.54v9.65c15.88-4.29,32,.37,47.73,2.83s31.69,1.71,47.7,1.13a260.75,260.75,0,0,1,89.33,11.92,254,254,0,0,1,47.34,20.75l2.53-9.31c-34.19.8-68.08-4.35-101.85-8.92l-103.32-14-58.05-7.86-1.33,9.82a1945.82,1945.82,0,0,1,241.93,25.22l1.33-9.82a976.56,976.56,0,0,1-109.4-3.12q-27.59-2.36-55-6.3c-8.94-1.3-17.87-2.68-26.77-4.26-7.93-1.41-15.68-3.11-22.57-7.47-5.46-3.45-10.48,5.2-5,8.64,14.35,9.07,33.41,10,49.8,12.45q27.75,4.08,55.7,6.6a975.94,975.94,0,0,0,113.3,3.46c5.38-.15,7.11-8.85,1.33-9.82a1965.46,1965.46,0,0,0-244.59-25.58c-5.51-.23-7,9-1.32,9.82,69.11,9.36,138.18,19.89,207.47,27.88,19.39,2.24,38.87,3.71,58.4,3.25,4.85-.12,6.94-6.83,2.52-9.32a264.29,264.29,0,0,0-133.92-34.25c-17.3.27-34.7,2.17-51.92-.42-18-2.7-35.9-7.86-54-3-4.69,1.27-4.84,8.46,0,9.65A721.49,721.49,0,0,0,1920.51,1629c6.44,0,6.45-10,0-10Z" transform="translate(-36.94 -124.52)"/><path d="M2540.45,1750.54q5.91-4.3,4.5,1.68,4.62.94,9.21,2,6.87,1.61,13.69,3.45c10.61,2.87,21.1,6.19,31.5,9.75,20.84,7.16,41.28,15.42,61.71,23.67l2.66-9.65q-79.86-24.65-157.42-55.9l-2.66,9.65a909.3,909.3,0,0,1,149.7,53.45c44.79,20.66,90.44,44,129.12,74.95,33.51,26.8,65.8,63.23,68.55,108.11,2.5,40.9-21.12,75.35-52.5,99.21-31.79,24.18-69.62,39.71-107.16,52.51q-76.93,26.25-154.65,50.19c-102.43,31.64-205.95,60-310.88,82.07-108,22.74-217.41,38.58-327.66,44.82-111.59,6.33-223.45,4.23-335.15,2.76-219.14-2.88-440.15-8.33-654.3-59.6-52.09-12.47-104.29-26.66-158.05-29.31-48.23-2.38-95.11-4.31-142.58-14.41a659,659,0,0,1-255.27-115.28,642.76,642.76,0,0,1-55.31-46.38l-4.87,8.35a808.1,808.1,0,0,1,145.46,54.46c44.23,21.7,84.51,50.45,130.79,67.88,47.83,18,98.32,28.35,148.14,39.22q79.92,17.41,160.41,32.1c214.07,38.92,431.21,62.53,648.88,64.81,219.25,2.31,436.25-21.14,652.15-57.94,108.12-18.44,216.54-37.41,323.84-60.24,97.57-20.76,189.56-55.48,269.8-115.84,32.77-24.66,75.79-54,73.48-100-2-40.44-28.21-79.74-53.67-109.74C2739,1799,2662.8,1760,2585.36,1737.15c-20.14-5.93-40.57-10.74-61.19-14.68-6.27-1.2-9,8.38-2.66,9.64,90.22,18,175,59.91,243.63,121.34,32.93,29.49,84,72.7,67.38,122.1-13.78,41-46.83,78.93-78,107.82a355.71,355.71,0,0,1-110.88,69.88c-47.52,18.68-98.11,24.79-148.65,29s-100.58,8.52-150.16,19.71c-51,11.51-100.85,27.34-151.42,40.48-104.38,27.12-211.7,35.51-319.07,40.85q-162,8-324.21,4.88a4695.94,4695.94,0,0,1-646.72-57.41c-98.78-15.72-198.14-32.78-295-58.16-85.93-22.53-171.34-53.89-243.19-107.34A437.83,437.83,0,0,1,314.5,2021c-4.52-4.59-11.59,2.48-7.07,7.07,63.73,64.71,145.59,106.12,231,134.44,94.33,31.27,193.19,49,290.88,66a4714.91,4714.91,0,0,0,665.87,68.3q168.32,5.25,336.71-1.58c110-4.47,221.26-10.21,329-34.53,52.56-11.87,103.94-28.35,156.12-41.71,54.76-14,109.55-21.15,165.8-25.71,50.81-4.12,102.22-8.74,150.66-25.65a367,367,0,0,0,110.41-61.88,361.15,361.15,0,0,0,84.12-97.94c11-18.85,20.69-39.62,17.61-62-2.92-21.2-16-39.3-29.62-55.11-59.05-68.66-138.33-120.56-223.76-150a524.93,524.93,0,0,0-68.07-18.29l-2.66,9.64c80.72,15.43,161.64,45.16,225.23,98.54,31,26,57.35,57.69,75.15,94.11,11.56,23.67,20,52.15,7.62,77.21-10.23,20.77-32,36.4-49.64,50.54-77.39,61.87-167.61,99.5-263.72,121.17-103.44,23.32-208.61,40.94-313.05,59.14-210.9,36.75-422.88,62.16-637.21,62.47-211.79.31-423.33-19.88-632.07-55.19-101.65-17.2-204-36.08-303.75-62.43-23.41-6.18-46.63-13.3-69.06-22.46-23.69-9.68-45-22.68-67.06-35.52a811.29,811.29,0,0,0-128.32-60.4c-23.1-8.5-46.58-15.87-70.34-22.29-4.7-1.27-8.58,4.88-4.86,8.36a664.65,664.65,0,0,0,382.64,175c25,2.67,50,2.84,75.14,3.89,29.79,1.26,59.24,6.3,88.34,12.6,55.35,12,110,26.6,165.75,36.62,54.45,9.77,109.34,17,164.39,22.48,112.85,11.16,226.29,14.63,339.63,16.5,116.24,1.91,232.74,4.54,349,.09,112.63-4.32,224.47-17.9,335.07-39.47,110-21.45,218.48-50.15,325.69-82.67,54.44-16.51,108.58-34,162.52-52.11,38.34-12.87,76.78-26.79,110.92-48.89,30.19-19.55,57.64-46.37,67.61-81.91,10.91-38.92-1.8-78-25.8-109.26-27.5-35.75-65.9-61.15-104.65-83.17a915.42,915.42,0,0,0-144.78-66.27c-24.84-8.85-50.06-16.53-75.55-23.24-6.39-1.67-8.48,7.3-2.66,9.65q77.52,31.23,157.42,55.9c6.3,1.94,8.47-7.3,2.66-9.65-20.43-8.24-40.87-16.5-61.72-23.66-10.39-3.57-20.88-6.87-31.49-9.75-8.7-2.36-19.17-6.47-28.19-6.47-18.66,0,.57,28.75,7.77,11.63,2.49-5.93-7.18-8.52-9.64-2.66Z" transform="translate(-36.94 -124.52)"/><path d="M2568.7,2282.81c5.32,33.93,9.51,72.62-18.84,97.88-11.65,10.38-26.17,17.18-40.38,23.28-18,7.71-36.19,14.89-54.44,21.93a2100,2100,0,0,1-213.48,69.24c-146.31,39.08-296.47,63-447.45,74-154.66,11.26-310.15,8.9-464.63-4-158.29-13.24-315.52-37.57-471.05-69.65q-58.26-12-116.22-25.44c-33.34-7.71-66.9-15.26-99.08-27.05-60.87-22.31-121.85-68.3-126.29-138.44a101.14,101.14,0,0,1,7-44.06l-9.83-1.33c-1.09,68.21,34,132.09,91.36,168.69,30.85,19.68,65.63,32.13,99.78,44.76,39.23,14.52,78.49,29,118.25,42,79.44,26,160.25,42.9,243.23,52.56,84.89,9.87,170.4,16.54,255.72,21.37,86,4.87,172.14,6.25,258.19,1.64s171.56-13.52,257.2-21.48c149.34-13.87,301.17-23.1,446.8-61.29,68.06-17.86,134.7-42.58,195.87-77.62,29.94-17.15,60.28-36.37,85.58-60,22.38-20.89,39.49-49,35.23-80.64a59,59,0,0,0-17.22-34.91c-4.61-4.5-11.69,2.57-7.07,7.07,25.92,25.32,14.5,65-6.36,89.36-22.17,25.88-53.18,45.26-82.09,62.76-58.6,35.46-122.67,60.86-188.47,79.4-137.69,38.78-281.45,49.06-423.27,62.24-81.7,7.59-163.38,15.95-245.23,21.87a2271.42,2271.42,0,0,1-245.6,4.55c-82.58-3-165-9.52-247.28-17-80.83-7.36-161.52-17.06-240.13-37.92-75.65-20.08-149.89-47.21-222.77-75.65-33.76-13.17-67.64-28.89-94.25-54.07a185.12,185.12,0,0,1-57.47-137.68c.1-6-7.85-6.29-9.82-1.33-22.88,57.87,9.26,122.17,55.89,157.73,57.56,43.89,134,56.29,202.84,71.73,160.44,36,322.73,64.22,486.31,81.25,162.25,16.88,325.82,22.63,488.76,13.57,156.51-8.69,312.5-30.9,464.59-69.13a2122.66,2122.66,0,0,0,223.53-69.27c33.68-12.54,69.51-24.23,100.9-42,28.17-15.92,44.26-40.47,45.57-73.08.65-16.25-1.78-32.48-4.29-48.5-1-6.34-10.63-3.65-9.64,2.66Z" transform="translate(-36.94 -124.52)"/><path d="M2647.18,1674.08c-90.3,3.75-169.12-49.79-251-79.47-46.46-16.85-95-23.84-144-28.78-52.63-5.3-105.31-10.17-158-15.24-29.79-2.86-59.58-5.79-89.37-8.59-29.53-2.78-59.2-5-88.83-2.43l2.52,9.32c20.87-15.8,47.26-19.45,72.74-20.19a496.14,496.14,0,0,1,79.87,4.44c52.77,7,104.31,21.29,155,37.22,101.94,32,202.92,72,310.35,80.78,33.19,2.73,66.88,3,99.28,11.52a212.69,212.69,0,0,1,80.82,41.46l6.06-7.85c-93.83-46.52-192-84-292.57-113.17-100.74-29.18-203.8-49.94-307.77-63.51-58.26-7.6-119.47-16.06-176.82,1.33-5.52,1.68-4.26,9.47,1.33,9.82A2560.11,2560.11,0,0,1,2585,1653.92q43,14.16,85.54,29.83c22.43,8.27,49.12,16.79,60.93,39.48,3,5.71,11.6.66,8.63-5-10.13-19.48-30.19-29.8-49.76-37.61-24.93-9.95-50.44-18.64-75.84-27.31q-78.59-26.82-158.8-48.51a2568.91,2568.91,0,0,0-323.49-65.5q-92.31-12.59-185.33-18.52l1.32,9.83c51.24-15.55,105.55-9.48,157.77-3.06q76.83,9.45,152.86,24.39c101.46,20,201.5,47.57,298.44,83.67a1688.15,1688.15,0,0,1,160.4,69.34c4.75,2.35,10.71-4,6.05-7.86a225.5,225.5,0,0,0-70.49-39.57c-28.31-9.69-58.13-12.37-87.8-14.33-28.32-1.87-56.38-4.3-84.34-9.29-27.11-4.83-53.92-11.3-80.45-18.67-105-29.19-206.41-73.14-314.66-89.94a528.22,528.22,0,0,0-89.6-6.66c-28.68.47-59.26,3.81-82.85,21.66-3.47,2.63-3,9.79,2.53,9.32,26.32-2.27,52.7-.8,79,1.52,26.46,2.35,52.9,5,79.35,7.59l158.94,15.3c49.84,4.8,99.88,10.08,147.66,25.9,42.56,14.09,82.65,34.42,123.89,51.77,45.18,19,92.75,34.49,142.36,32.43,6.42-.26,6.45-10.27,0-10Z" transform="translate(-36.94 -124.52)"/><path d="M2644.94,1764.87l-171.16-59.09c-54.89-19-109.62-38.52-165.17-55.47-54.65-16.67-110.27-30.45-167.05-37.41-58.62-7.19-117.79-7.37-176.76-7.92L1762,1603.07c-6.44-.06-6.44,9.91,0,10a2936.6,2936.6,0,0,1,370.22,28.64c121.33,17.21,242.07,41.5,360.16,74.34,57.2,15.91,115.53,36.31,159.74,77.54l6.06-7.85c-110.56-50.7-221.82-101.68-339.22-134.68a995.38,995.38,0,0,0-180.74-33.46c-64.11-5.76-128.55-6.27-192.86-7.4l-219.19-3.85c-6.44-.11-6.44,9.87,0,10A3117.92,3117.92,0,0,1,2460.84,1719q101.34,26.73,200.7,60.23c6.21,2.1,8.5-7.31,2.66-9.64-53.17-21.19-106.39-42.39-160.8-60.23-53.74-17.63-108.51-31.4-164.48-39.72-112.19-16.69-225.86-15.23-338.85-21.28-63.82-3.41-127.61-9.33-190.27-22.28l-1.33,9.82c111.25-10.53,223.44-3.72,333.57,14.25,110.41,18,218.8,46.72,325.65,79.54,60.56,18.6,120.69,38.58,180.7,58.88,6.11,2.07,8.73-7.59,2.66-9.64-107.35-36.32-215.17-71.63-325-99.83-108.06-27.76-218.28-48.64-329.77-55.69a1194.51,1194.51,0,0,0-187.82,2.49c-5.2.49-7.27,8.59-1.33,9.82,111.45,23,225.61,24,338.88,28.3,56.45,2.15,112.93,5.17,169,12.32a976.38,976.38,0,0,1,166.68,36.57c61,19,120.49,42.67,179.85,66.32l2.66-9.64a3132.8,3132.8,0,0,0-728.83-152.13q-104.4-9.09-209.24-11.14v10l195.28,3.43c63.77,1.12,127.66,1.39,191.31,5.8a996.07,996.07,0,0,1,182.14,29.33c58.6,15.23,115.83,35.31,172,57.79,63,25.19,124.61,53.42,186.22,81.68,4.83,2.21,10.52-3.7,6.06-7.86-39.67-37-90.47-58.07-141.73-73.62-57.57-17.46-116.5-31.15-175.29-43.83a2955.21,2955.21,0,0,0-369.87-55.52q-104.92-9-210.3-10.48v10l179,1.68c59.06.55,118.31.18,177.18,5.64,115.61,10.72,225.21,50.92,334.19,88.54l190,65.58c6.1,2.11,8.72-7.55,2.66-9.64Z" transform="translate(-36.94 -124.52)"/><path d="M178.6,2025.64c11.36-6.74,1.9-22.36-9.37-22.18-19.29.3-12.95,27.08-8.26,37.35,19.73,43.15,55.26,76.82,94.55,102.33,41.29,26.8,87.23,45.69,133.13,63,60.49,22.78,121.27,45,182.67,65.22,63,20.76,127,39,192.14,51.83,63.82,12.58,128.45,20.42,193.09,27.36,136.69,14.66,273.57,28.25,410.73,37.84,262.36,18.35,527.29,20.75,787.76-20.2,122.72-19.3,244.12-48.08,361.55-88.78a1751.43,1751.43,0,0,0,166.49-67.28c53.76-25.05,107.89-52,157.05-85.4,44.76-30.38,85.29-69.17,104.59-120.8,18.29-48.93,14.3-102.43-18-144.42C2894,1819,2845.56,1785.27,2800.55,1757a701.13,701.13,0,0,0-239.9-94.65L2558,1672c111.13,21,231.49,44.67,313.39,129.47,35.55,36.8,59.53,83.21,65,134.38,5,47.39-4.45,95.94-24.77,138.9a274.85,274.85,0,0,1-94.93,110.87c-47.32,31.87-101.84,50.53-156.34,66-120.64,34.22-242.67,65.32-365.05,92.65-126.31,28.2-254,50.09-383.17,59.59-129.68,9.53-259.92,8.19-389.75,2.63-255.14-10.94-510.9-31.89-764.09-65.48-114.21-15.15-229.81-36.31-335.3-84.38C329.35,2214,231.07,2144.79,200.88,2041a193.08,193.08,0,0,1-6.62-73.76l-9.32,2.53c41.83,74.22,85.3,151,151.78,206.23,67,55.63,151.58,81.79,235,101.24,195.68,45.62,395.29,76.68,595.2,96.29a4811.2,4811.2,0,0,0,613.87,20.88q153.89-4.62,307.23-19.57c98.68-9.78,197.29-23.36,293.43-48.17a1369.75,1369.75,0,0,0,478.38-230q25.14-18.87,49.4-38.86c5-4.08-2.13-11.12-7.07-7.07a1364.07,1364.07,0,0,1-466.38,250.23c-187.3,57.19-386.72,71.75-581.41,80.64a4795,4795,0,0,1-598.87-10.22,4804.09,4804.09,0,0,1-595.87-85.21c-87.89-18.26-179.57-35.51-259.12-79.05-77.64-42.49-130.35-111.9-174.86-186.6-11-18.44-21.55-37.13-32.08-55.82-2.63-4.66-8.85-2.11-9.32,2.52-10.48,103.65,63,193,143.84,248.2,96.63,65.93,212.44,99,326.36,119.66,124,22.45,250.4,34.18,375.78,46.34Q1232,2401,1434.51,2412.14c136.19,7.52,272.75,12,409.09,5.77,133.45-6.07,265.54-24.45,396.3-51.51,130-26.89,258.34-61,386.54-95.15,102.6-27.36,210.26-61.43,272.48-153.95,51.94-77.25,66.77-181.65,21.83-265.54-53.51-99.87-165.27-146.37-270-171-29.85-7-60-12.72-90.1-18.42-6.29-1.19-9,8.4-2.66,9.64,108.29,21.14,211.15,67.69,297.82,136.12,41.88,33.06,85.62,71.16,89.82,128,4,54.3-23.59,105.43-61.43,142.44-39.38,38.51-88.92,65.4-137.3,90.82a1646.1,1646.1,0,0,1-156.35,71.87c-105.31,42-214.58,73.63-325.51,96.74-235.26,49-476.66,59-716.28,50.22-125.75-4.6-251.25-14.26-376.51-26-124.79-11.67-250.83-21.37-374.39-42.83-120-20.82-235.14-59.93-349.16-101.71-88.06-32.27-190-63.2-251.79-138.56a203.92,203.92,0,0,1-19.13-27.61,156.92,156.92,0,0,1-8.62-16.83c-1.26-3-2.82-6.06-3-9.37l-.57-2.94q3.44-13.56,8-5.36c-5.53,3.28-.51,11.93,5,8.63Z" transform="translate(-36.94 -124.52)"/><path d="M1747,1634.93c253.17-21.33,512.21-13.37,750.92,82.45,105.12,42.19,210.22,101,292.5,179.76,20.62,19.73,44.22,48.12,37.86,78.9-5.86,28.35-35.32,51.15-56,69.34-47.58,41.9-102.32,74-160.93,97.91-57.64,23.48-117.76,41.2-177.73,57.64q-91.33,25.05-184.37,43.19c-124.2,24.36-250,39.82-376.3,48-252.38,16.37-506,3.88-757-24.73-123.06-14-246.39-30.45-368.17-53.24-106.92-20-215.58-48.55-307.45-109a467.53,467.53,0,0,1-62.9-49.63l-4.86,8.35c250.53,84.77,501.38,177.52,762.88,222.65,130.2,22.47,261.73,30.88,393.67,23,135.2-8.12,269.06-30,402.63-51.58l406-65.51c109.21-17.62,224.7-28.26,327.1-73,43.71-19.09,84.86-45.77,115.79-82.5,16.31-19.38,32.52-42.07,36.83-67.56,4.58-27-8.13-51.91-22.8-73.7-62.46-92.84-176.06-143-278.45-177.8-234-79.44-486.65-74.83-730.68-78.09l-101-1.36c-6.44-.08-6.44,9.92,0,10,125,1.68,250.23,1.74,375.18,7,119.76,5,239.92,15.93,356.68,44.09,58.21,14,115.51,32.33,170.46,56.18,51.33,22.27,102.12,48.69,144.88,85.2,20.54,17.55,39.23,37.39,54.34,59.84,8.19,12.17,16,25.19,20,39.43,5.16,18.51,1.1,36.7-7.6,53.44-23,44.25-63.95,78.26-107.09,101.8-91.57,50-199.32,62.05-300.69,78.4l-396.35,64c-131.35,21.19-262.7,44.09-395.27,56.37-130.83,12.12-261.68,11.1-392-6.57-254.55-34.52-498.4-120.47-740.65-202.43l-91.23-30.87c-4.75-1.61-8.43,5-4.87,8.36,81.23,76.2,186.31,117.74,293.09,143.78,117.55,28.66,238.93,44,358.77,59.56,260.6,33.82,524,51.71,786.81,39.69,257.38-11.78,518.79-50.75,762.52-136.68,58.75-20.72,115.47-46.71,166.14-83.3a542.81,542.81,0,0,0,68.5-58.53c17.56-17.75,34.5-38,33-64.56-1.49-26.11-18.35-48.81-36-66.88-19.3-19.8-41.6-37.09-63.54-53.84a976.13,976.13,0,0,0-150.89-94.27c-228.17-115.65-488.49-143.78-741-130-33.63,1.83-67.19,4.54-100.75,7.36-6.37.54-6.43,10.54,0,10Z" transform="translate(-36.94 -124.52)"/><path d="M502.48,2287c-10.36,63,40.65,115.52,94.2,139.33,33.63,15,69.62,22.88,104.93,32.72,37.46,10.45,71.72,25.89,106.25,43.57,34.24,17.54,68.64,32.72,106.28,41.41s76.52,12.54,115.09,15.88c83.08,7.18,166.36,11.66,249.63,15.86,166.94,8.44,334.23,17.57,501.41,11,154.5-6,309.29-25.88,457.45-71.33,70.73-21.7,139.79-49.22,205.41-83.46,30.57-15.95,61.69-32.56,89-53.72,23.16-17.93,45.45-40.54,54.67-69a82.6,82.6,0,0,0,2.44-40.07l-9.65,2.65c13.43,70.17-39.65,132.67-98.36,162.84-66,33.9-143.22,42.14-214.65,58.74-151.91,35.3-301.72,81.53-456.53,103.12-78.14,10.9-157,14.66-235.76,8.34-81.27-6.52-161.69-20.84-242.87-28.4-157.71-14.69-317.79-13.8-472.9-49.31-68.83-15.75-136.45-38.41-198.85-71.74a570.43,570.43,0,0,1-89.58-58.86c-25.6-20.66-50.14-44.81-64.44-74.89a106.76,106.76,0,0,1-10.6-49.84l-8.53,3.54c25.75,26.36,47,56.68,72.37,83.36a569.69,569.69,0,0,0,74,65c54.25,40.1,114.93,71,178.07,94.49,145,53.86,301.33,67.32,454.46,77.15,154.07,9.88,308.85,12.74,463,2.15,152.23-10.45,304-34.13,450.5-77.32,122.42-36.09,257.63-83.7,339.92-187.11a328.35,328.35,0,0,0,26.05-37.9c3.27-5.56-5.37-10.59-8.63-5.05-67.12,113.9-197.22,168.42-317.45,207.28-143.26,46.29-292.2,73.19-442,86.33-150.62,13.2-302.17,12.83-453.08,5-153-7.94-309.36-18-456.89-62.36-65.22-19.62-128.42-46.53-186.35-82.5-58.34-36.23-107.75-81.45-151.1-134.52-11.49-14.08-23.07-28-35.78-41.06-3.12-3.2-8.39-.7-8.54,3.53-2.31,68.42,57.44,119,108.43,154.75,59.37,41.63,126.46,71.35,195.64,92.49,154.44,47.19,317,50.5,476.83,62.05,84.37,6.1,167.74,18.16,251.69,28,81.83,9.63,163.34,11.48,245.37,3.07,161.12-16.51,316.78-63.53,473.65-101.45,39.39-9.52,79-18.09,118.61-26.43,36.8-7.74,73.7-16.19,108.52-30.68,59.43-24.74,115.54-72.91,126.23-139.67a128.55,128.55,0,0,0-.78-44.82c-1.22-6.35-10.74-3.62-9.65,2.65,11.8,67.59-68.27,111.28-117,138.35-63.43,35.22-130.37,63.8-199.21,86.61-139.93,46.36-286.62,68.95-433.47,77.59-159.46,9.38-319.28,2.87-478.65-5-79.88-3.94-159.79-7.74-239.59-13.17-76.48-5.2-157-7.19-230.28-31.74-35.89-12-68.46-31.34-102.48-47.59-32-15.29-65.44-25.14-99.63-34.21C616.44,2426,542.56,2403.33,517,2336.12a89.35,89.35,0,0,1-4.91-46.48c1-6.29-8.6-9-9.64-2.66Z" transform="translate(-36.94 -124.52)"/><path d="M944,209.39c-10.53,79.24,21.34,157.08,70.77,217.85,53.54,65.82,128.18,110.41,203.36,147.37,80.67,39.66,163.44,76.19,246.78,109.84,86.81,35,176,65.22,268.09,82.78,92.35,17.6,186.51,20.83,279.71,31.82,47.45,5.59,94.76,13.38,140.84,26.2,38.61,10.75,83.24,29.29,82.42,76.51-.79,45.26-36.74,77.1-68.63,104.12a720.41,720.41,0,0,0-89.6,91.31c-27.52,33.27-53.39,67.87-81.54,100.63a744.61,744.61,0,0,1-95.21,92.44c-71,57.71-150.26,104.49-228.61,151.25-84,50.12-168.69,99.3-254.91,145.49-42.64,22.84-86,44.38-131,62.26-44.38,17.64-89.9,32.2-135.53,46.22-92.2,28.34-184.51,56.51-277.67,81.53-92.89,25-186.81,46.6-282,60.91-89.95,13.53-183,22.62-274,16.27-76.58-5.35-165-27.38-209.55-96.09-12-18.53-19.26-39.85-17.51-62.11,1.59-20.41,10.63-39.42,21.79-56.28,23.28-35.2,55.16-64.51,81.93-97,106.73-129.55,183.25-280.61,245.32-435.77,31.76-79.4,59.89-160.2,86.79-241.35,28.21-85.07,58-172.1,61.65-262.46,1.74-43.48-3.41-87-17.73-128.17l-9.13,3.85c49.74,80.94,28.14,182.39,5.86,268.57-24.07,93.13-57.07,183.85-96.87,271.38-78.91,173.58-183.49,334.47-299.28,485.53-52.05,67.92-129.61,142.55-119.14,236,4.27,38.06,24.92,71.33,59.11,89.36,33.82,17.83,73.83,20.35,111.34,19.28,50.23-1.45,100.62-7.12,150.51-12.82q77.85-8.89,155.22-21.51c105.19-17,209.61-38.37,313.53-61.87s207.25-49,310.61-74.52c100.33-24.82,198.77-53,292.33-97.65,174.65-83.31,338.81-193.11,488.09-315.84a2514.61,2514.61,0,0,0,212.33-196c54-56,129.14-145.81,66.49-223-60.38-74.39-170.5-54.1-254.22-56.57-95.41-2.82-190.17-18.23-282.1-43.71-183.81-50.94-353.82-141.26-507.81-252.74-37.08-26.85-75.56-54.41-119.66-68.4-42.88-13.6-84.91-8.39-124.14,13.13-20.39,11.19-39.26,24.88-59.29,36.7a388.49,388.49,0,0,1-63.47,30.06,411.7,411.7,0,0,1-135.43,25.1A403.24,403.24,0,0,1,532.28,509c-4.55-1.5-8.8,5.2-4.86,8.36,60.56,48.56,142.51,65.34,217.87,47.92,39-9,73.2-27.6,104.11-52.65,31.71-25.7,62.35-57.67,103.11-68.22,47.1-12.19,96.59,10.25,136.36,34,37.28,22.22,70.81,50,104.76,76.83,32.76,25.93,66.23,51.52,103.57,70.57,42.18,21.52,88.27,32.45,134.85,39.48,56.55,8.54,113.6,14.22,170.38,21l180.4,21.59c6.38.76,6.32-9.24,0-10-104.13-12.46-208.31-24.51-312.39-37.41-48.72-6-98-13.57-143.74-32.08-40.58-16.42-76.77-41.91-111.17-68.59C1151.29,510,1083.78,445.11,1000,432.67c-41.75-6.21-77.84,9.13-110.51,34.05-32.17,24.52-60.49,53.76-97.3,71.61-82,39.75-186.45,29.1-257.7-28l-4.87,8.36c83.83,27.65,175.93,27.34,259.79-.1,42.33-13.86,79.22-35.65,116.63-59.31,20.12-12.72,41.11-24.79,64.55-30.06,22.84-5.13,46.46-3.19,68.83,3.24,45.29,13,84.68,41.64,122.37,68.92,37.32,27,75.33,53,114.5,77.27,78.83,48.89,161.61,91.5,247.68,126.17,85.06,34.25,173.42,60.59,263.74,76.68a1171.83,1171.83,0,0,0,137.49,16.31c47.85,2.78,95.58-.19,143.41,1.41,45,1.5,92.31,10.81,125.83,43.28,35.21,34.1,36.43,82.5,15.78,124.82-20.92,42.87-55.7,77.11-88.74,110.71q-49.33,50.18-101.45,97.52a2564.92,2564.92,0,0,1-462.12,333.8c-88.8,50.22-180,94.37-277.82,124.08-99.37,30.17-201.31,52.71-302.24,77-203.86,49.07-409.33,94.11-618,117.06-47.81,5.26-96.19,10.81-144.33,11.56-38.77.6-81.42-3-113.75-26.62-36.69-26.79-46.7-74.22-38.55-117,8.79-46.09,37.16-85.34,65.49-121.52,115.21-147.17,223.43-299.14,309-465.81,42-81.91,78.64-166.7,107.83-254q22-65.67,38-133.13c10.25-43.23,18.23-87.65,17.2-132.25-.93-40.39-10-80.25-31.29-114.91-2.86-4.65-11.06-1.69-9.14,3.86,31.7,91.23,15.34,188.61-10.39,279.15-24.22,85.22-53.84,169.37-84.15,252.6C406.64,1171.77,336,1331.93,234.94,1473a1150.91,1150.91,0,0,1-81.53,101.4C127.67,1602.92,99,1631.82,86,1668.82,58.21,1747.94,132.73,1813.74,199.1,1840c75.72,29.93,161.42,28.13,241.32,23.69,96.26-5.35,191.8-20.21,286-40.52,95.67-20.63,190-46.84,283.84-74.65,93.38-27.68,188.29-53.58,278.88-89.59,89.94-35.75,174.17-84.84,258.05-132.72,83.51-47.66,166.86-96.1,247.77-148.09,75.32-48.4,147-102.41,205.89-170.36,28.68-33.12,54.92-68.23,82.79-102s57.51-64.56,90.79-92.76c30.29-25.67,61.9-54.1,69.76-95,7.11-36.92-10-68.46-42.76-85.7-38.17-20.06-84.72-27.45-126.78-34.53-46.13-7.76-92.72-12.32-139.29-16.48-96.68-8.63-192.26-18.13-286.18-43.88C1556.41,712,1467,676,1379.06,637.31c-81.47-35.84-165.22-70.6-240.85-117.95-73.8-46.2-139.71-109.12-170.29-192.44C954.09,289.25,948.7,249.26,954,209.39c.85-6.36-9.16-6.3-10,0Z" transform="translate(-36.94 -124.52)"/><path d="M938.09,212.89l37,156.6c1.48,6.26,11.12,3.61,9.64-2.66l-37-156.6c-1.48-6.26-11.12-3.61-9.64,2.66Z" transform="translate(-36.94 -124.52)"/><path d="M988.05,264.73a392,392,0,0,0,50.32,164.81,384.33,384.33,0,0,0,27.37,41.36c3.84,5.06,12.52.09,8.63-5a381.68,381.68,0,0,1-76.32-201.12c-.48-6.38-10.48-6.43-10,0Z" transform="translate(-36.94 -124.52)"/><path d="M947.13,216.73Q984.95,320.22,1030,420.87c7,15.71,13.66,31.86,21.94,47,7.38,13.47,17.18,24.94,30.84,32.31,13.46,7.27,28.46,10.79,43,15.27a336.4,336.4,0,0,1,47.86,19.1c34.86,17,67.19,38.54,99.35,60.05,5.37,3.59,10.38-5.07,5-8.63-28-18.7-56-37.42-85.76-53.15a402.27,402.27,0,0,0-45.18-20.6c-14.78-5.61-30.15-9.24-45-14.51s-27.57-13.2-36.42-26.48c-9-13.56-15.15-29.16-21.84-43.95q-22.41-49.53-43.06-99.82-23.07-56.25-43.92-113.37c-2.19-6-11.86-3.41-9.65,2.66Z" transform="translate(-36.94 -124.52)"/><path d="M127,1904.87c17.59,20.33,35,40.8,52.79,61,6.7,7.62,14.42,15.3,24.45,18.22,9.25,2.68,19.44,1.11,26.47-5.73,4.61-4.49-2.46-11.56-7.08-7.07-6.32,6.17-16,4.52-22.94.27-8.47-5.22-14.73-13.79-21.15-21.21l-45.47-52.54c-4.22-4.88-11.26,2.22-7.07,7.07Z" transform="translate(-36.94 -124.52)"/><path d="M2255.83,1165.28a441.33,441.33,0,0,1-146.93,169.26l6.06,7.85,119.54-112.17c4.7-4.42-2.35-11.43-7.08-7.07-104.76,96.66-218.16,183.49-336.7,262.54-118.29,78.88-241.52,150.14-367,217-127.54,67.91-257.06,133.18-388.46,193.31-70.38,32.2-142.38,59.93-217.45,79.11-74.09,18.92-149.86,30.66-226,37.65-73.19,6.72-147.27,10.45-220.78,8.51-68.75-1.82-139-10.28-202.56-37.92a348.4,348.4,0,0,1-43.86-23c-5.5-3.38-10.53,5.26-5,8.63,119.91,73.8,271.78,66.64,406.93,58.65,153.51-9.08,305.32-35.57,448-94.34,69.92-28.8,137.77-62.47,205.66-95.68q97.57-47.73,194.06-97.64c128.31-66.75,254.62-137.62,376.24-216,120.44-77.6,236.3-162.64,343.79-257.47q20.29-17.91,40.18-36.28l-7.08-7.07-119.53,112.17c-4.07,3.82,1.31,11.09,6.06,7.85a451.47,451.47,0,0,0,150.52-172.84c2.84-5.75-5.78-10.82-8.64-5Z" transform="translate(-36.94 -124.52)"/><path d="M2268.45,909.54c34.3,125.65,6.19,263.09-66.32,370.2-36.06,53.27-83.54,99-139.29,131.33-36.25,21-75.46,36.09-113.25,54-40,18.92-78.13,41.54-116.14,64.16-154.67,92-308.74,185.19-464.09,276.07-36.07,21.09-72.62,41.51-110.57,59.06-39.74,18.37-80.88,32.46-123.27,43.31-41.52,10.62-83.59,18.84-125.19,29.12-42,10.38-83.37,23.09-124.62,36.08-83.21,26.2-166.22,52.25-252.65,65.67a1095,1095,0,0,1-262.73,8.66q-33-2.88-65.8-7.79c-6.3-.94-9,8.69-2.66,9.64a1109,1109,0,0,0,263.55,7.79c88.23-8,173.78-28,258.31-54,42.57-13.11,84.87-27,127.61-39.59,42.54-12.48,85.58-22.55,128.83-32.23,42.89-9.61,85.82-19.61,127.2-34.61,39.67-14.36,77.75-32.75,114.8-52.85,79.13-42.93,155.66-91,233-137l239.46-142.51c38.55-23,76.83-46.49,116.24-67.94,39.14-21.3,80.3-38,120.44-57.18,60.94-29.18,114.22-70.22,156.56-123,80.44-100.35,119.68-234,100.27-361.65a418,418,0,0,0-10.06-47.23c-1.7-6.2-11.35-3.57-9.65,2.66Z" transform="translate(-36.94 -124.52)"/><path d="M1141.29,829.09A2208.14,2208.14,0,0,0,1347.74,944a2216.48,2216.48,0,0,0,217.07,92q62.4,22.62,126.09,41.44l2.65-9.64c-97.26-14.23-189.88-49.31-277.78-92.41-44.45-21.8-87.87-45.63-130.87-70.14-40.59-23.14-81-46.81-119.4-73.38-43.46-30-84.33-64-118.85-104.13l-7.07,7.07c72.21,75.15,152.79,142.63,241,198.31,86.77,54.8,181.34,98.2,280.91,123.74a808.56,808.56,0,0,0,171.36,25c5.57.21,6.88-8.6,1.33-9.82a1380.63,1380.63,0,0,1-275.66-91.66A1400.13,1400.13,0,0,1,1208.88,834.2a1370.53,1370.53,0,0,1-125.79-104.66c-3.81-3.58-9.24,0-8.35,4.86,6.51,35.22,31.54,62,59.59,82.46,33.22,24.21,71.24,42,107.5,61.13q127.11,66.93,256.47,129.44,72.78,35.18,146.24,68.92c5.81,2.67,10.9-5.95,5-8.63q-128.31-59-254.59-122.25-63.55-31.86-126.57-64.8-31.07-16.24-62-32.75c-16.83-9-33.73-17.88-49.87-28.07-32.7-20.66-64.8-48.2-72.18-88.11l-8.36,4.87A1393.41,1393.41,0,0,0,1309,913a1406.17,1406.17,0,0,0,264.58,124.19,1377.15,1377.15,0,0,0,157.91,44.56l1.33-9.82c-102.17-3.72-202.79-28.3-296.77-68.18-94.42-40.08-182.39-95-262.21-159.22a1354.21,1354.21,0,0,1-127.2-116.77c-4.51-4.7-11.22,2.24-7.07,7.07,62,72.1,143.46,123.4,225.1,170.39,85.26,49.07,172.32,96.16,264.84,130.19,52.27,19.23,106.22,34,161.38,42,6.19.91,9-7.76,2.65-9.64a2204.31,2204.31,0,0,1-221-78.34,2193.12,2193.12,0,0,1-211.82-101.77q-58.2-31.89-114.41-67.27c-5.46-3.43-10.49,5.22-5,8.64Z" transform="translate(-36.94 -124.52)"/><path d="M694.65,922.13c1,84-17.4,167-47,245.31-29.92,79.13-71.44,153.33-116.85,224.51-25.69,40.27-52.7,79.67-79.93,118.9-3.29,4.75,3.91,10,7.86,6.06,59.45-59.12,117.89-123,150.24-201.49,17.66-42.89,22.59-89.43,38.95-132.68,8.31-22,19.21-42.84,28.4-64.43s16.15-43.74,19.35-67c3.56-25.87,2.36-51.49-1.84-77.19-4.32-26.44-10.46-53.71-2.8-80.13h-9.64c19.32,47.63,5.62,99.89-8.14,147.06q-20.34,69.73-46.94,137.45a1613.3,1613.3,0,0,1-131.23,261.29A1598.89,1598.89,0,0,1,401,1575.23l8.36,4.87c5.94-18.37,19.93-31.92,34.68-43.64,15.67-12.46,32.66-23.28,47-37.38,17.35-17.1,31.14-37.62,44.66-57.78s26.42-40.86,38.61-61.92A1119.18,1119.18,0,0,0,685.93,1111c12.5-46.27,21.47-97.9,56.77-133.14,4.56-4.55-2.51-11.62-7.07-7.07-31.16,31.11-43,74.67-53.72,116.06-12.19,47.16-26.63,93.56-44.49,138.89A1106.17,1106.17,0,0,1,574,1359.63q-17.81,31.86-37.67,62.51C522.73,1443,509,1464.36,492.4,1483c-15.59,17.55-34.87,30.28-53.24,44.6-17.05,13.3-32.68,28.77-39.5,49.82-1.46,4.51,5.25,8.89,8.36,4.86a1624.22,1624.22,0,0,0,159.57-250.13A1622.76,1622.76,0,0,0,678.9,1057.11c15.84-52.59,33.85-112.21,12.11-165.8-1.76-4.35-8.16-5.12-9.64,0-6.54,22.57-3.78,45.89,0,68.69,3.82,23.16,7.43,45.9,6.34,69.47a230.11,230.11,0,0,1-14.07,68.79c-8,21.76-18.67,42.38-27.9,63.61s-16.05,43.26-21.59,65.84-10.4,45.21-18,67.14c-13.71,39.49-35.1,75.9-60,109.37-28.2,38-61,72.31-94.52,105.62l7.86,6.06c48.75-70.25,96.91-141.15,137.79-216.35,40.42-74.35,73.73-153.18,92.1-236,10.29-46.39,15.82-93.88,15.27-141.42-.08-6.44-10.08-6.45-10,0Z" transform="translate(-36.94 -124.52)"/><path d="M1007.71,648.49A555.74,555.74,0,0,0,1066,734.08q16.57,20.07,35,38.49c5.83,5.83,11.65,12.25,18.26,17.2,4.94,3.71,11.94,5.72,16.67.6,1.37-1.49,2.11-4.26.78-6.06q-58-78.12-120.67-152.56-17.88-21.21-36.15-42.09c-3.73-4.27-10.92,1.29-7.86,6.06l69.6,108.5c21.31,33.21,41.08,68.7,69.89,96.15a230.56,230.56,0,0,0,49.61,36c4.75,2.57,10.67-4.14,6.06-7.85q-49.73-40-96.89-83c-14.79-13.51-29.69-27.28-41.69-43.41-11.31-15.19-20.09-32.2-27.19-49.71-8-19.7-14.13-40.08-20.22-60.43-1.84-6.15-11.49-3.53-9.64,2.66,11,36.66,22.28,74.26,44,106.25,11.18,16.49,25.09,30.74,39.63,44.27,15.89,14.78,32.13,29.2,48.54,43.41q27.78,24,56.42,47l6.06-7.85c-32.64-17.62-59.27-42.81-80.18-73.32-23.2-33.86-44.61-69.06-66.77-103.61l-38.55-60.09-7.86,6.06q63.5,72.63,122.4,149.11,16.62,21.6,32.86,43.51l.79-6.05c-3.65,3.94-56.32-56.8-61.3-63a543.11,543.11,0,0,1-51.21-76.83c-3.11-5.63-11.75-.59-8.63,5Z" transform="translate(-36.94 -124.52)"/><path d="M2352.78,2005.85a544.15,544.15,0,0,1-70.64.15l1.33,9.82c42.12-8,88.88-14.47,128.65,5.85l2.52-9.32a320.62,320.62,0,0,1-95.76-4.95c-6.28-1.29-9,8.34-2.66,9.64a329.49,329.49,0,0,0,98.42,5.31c4.5-.44,7.36-6.85,2.53-9.32-42.42-21.67-91.36-15.36-136.36-6.85-5.81,1.1-4,9.49,1.33,9.82a544.15,544.15,0,0,0,70.64-.15c6.38-.43,6.43-10.43,0-10Z" transform="translate(-36.94 -124.52)"/><path d="M2348.57,2009.87a237.81,237.81,0,0,1,53.45-1.94c6.42.48,6.39-9.52,0-10a249,249,0,0,0-56.1,2.3c-6.34,1-3.65,10.6,2.65,9.64Z" transform="translate(-36.94 -124.52)"/><path d="M2412.76,1801.47l-12.84-7.44c-5.58-3.24-10.53,5.27-5,8.63a631.75,631.75,0,0,0,80.77,41.8c5.75,2.47,10.75-5.26,5-8.63a800,800,0,0,0-106.13-52.4c-5.41-2.2-8.48,6.26-3.85,9.13q49.74,31,102.26,57.11c5.73,2.86,10.54-5.18,5.05-8.63a797.63,797.63,0,0,0-97.88-52.31c-5.74-2.57-10.79,5.42-5.05,8.63l115.16,64.47c5.63,3.15,10.62-5.38,5-8.64-37.06-21.67-75.59-43.48-119.23-47.18-4.15-.35-6.85,5.85-3.54,8.54a112.09,112.09,0,0,0,47.41,22.89c6.28,1.34,9-8.3,2.66-9.64a101.45,101.45,0,0,1-43-20.32l-3.53,8.53c41.71,3.53,78.8,25.13,114.18,45.82l5-8.64-115.16-64.46-5.05,8.63a797.53,797.53,0,0,1,97.88,52.31L2478,1841q-52.47-26.11-102.27-57.11l-3.85,9.14a782.75,782.75,0,0,1,103.74,51.39l5-8.63a633.83,633.83,0,0,1-80.78-41.8l-5,8.63,12.84,7.44c5.57,3.23,10.62-5.41,5-8.63Z" transform="translate(-36.94 -124.52)"/><path d="M1883.92,1757.39a192.46,192.46,0,0,1,135,16.07q7.2,3.76,14,8.14c3.82,2.45,12.64,6.6,12.93,11.7.34,6-6.77,8.9-11.47,9.66-6.67,1.07-13.83.44-20.57.36q-41.8-.48-83.56-2.91c-55.68-3.23-111.89-8.1-166.9-17.53-3.93-.67-10.75-1.78-6.13-6.64,3.85-4,10.13-6.57,15.11-8.9a138,138,0,0,1,33-10.29c23.39-4.41,47.57-3.75,71.17-1.64a800.14,800.14,0,0,1,89.15,13.41q22.66,4.64,45,10.48c7.46,1.94,14.92,3.91,22.3,6.13,4.52,1.37,10.53,3.08,11.67,8.31l1.28-4.86c-11.29,8.81-28.19,6.9-41.56,6.46q-25.08-.83-50.06-3.57-25.71-2.83-51.15-7.77-12.32-2.38-24.55-5.23c-7.11-1.66-14.79-2.9-21.52-5.82-3.84-1.66-11.08-5.4-8.93-10.62,2.41-5.85,12.88-8.39,18.27-10,14.68-4.43,30.13-4.87,45.33-4.06,15,.81,30.06,2.65,45,4.54s29.94,4.37,44.46,8.56a150.75,150.75,0,0,1,20.78,7.53q4.56,2.08,9,4.52c3,1.69,7.35,3.46,9.6,6.19,4.1,5-11.66,6.59-14.3,7-8.43,1.37-16.92,2.27-25.43,2.84-33.47,2.27-67-.61-100.32-3.75-16.3-1.53-32.64-2.93-48.74-6a192.91,192.91,0,0,1-22.85-5.64c-6.7-2.12-14.58-4.33-20.11-8.85-6.71-5.48-.7-12.08,4.74-15.89,5.12-3.6,11.1-5.56,17.21-6.7,13.55-2.52,27.78-.84,41.37.34a874.07,874.07,0,0,1,194.17,39.54q11.71,3.81,23.32,7.94c6.08,2.16,8.69-7.5,2.66-9.64a888.12,888.12,0,0,0-221.09-47.92c-15.43-1.33-31.41-2.9-46.64.86-12.08,3-30.57,12.8-28.93,27.73.77,7,6.53,12,12.47,15.11,7.59,3.94,16,6.66,24.24,8.92,17.4,4.81,35.42,7,53.34,8.73,38.19,3.8,76.76,7.77,115.16,5.17,9.4-.63,18.78-1.69,28.08-3.2,6.88-1.11,15-2,19.91-7.62,12-13.74-14.13-25-23.29-29.07-30.87-13.67-65.46-16.92-98.72-20.14-17.34-1.68-34.9-2.46-52.13.64a92.85,92.85,0,0,0-24.2,7.78c-6.12,3-12,7.76-12.66,15-1.32,14.73,16.74,20.27,27.83,23q28.1,7,56.74,11.57,28.3,4.49,56.94,6.55c17.41,1.25,35.94,3.25,53.29.58a42.8,42.8,0,0,0,20.4-8.66c1.41-1.1,1.63-3.27,1.29-4.86-2.69-12.39-17.64-15.07-27.92-17.93q-22.29-6.18-44.88-11.17a881.72,881.72,0,0,0-90.64-15.1c-26.57-3-53.49-4.6-80.06-.82a154.76,154.76,0,0,0-37.9,10.13c-9.28,3.88-25,9.6-27.37,20.85-3.05,14.81,17.39,15.85,26.78,17.22q23.05,3.38,46.19,6.17,46.88,5.65,94,8.86t94.35,3.93c7.62.11,15.31.45,22.93.13,6.35-.27,12.92-1.33,18.11-5.25,10-7.53,10-20.34.36-28-22.46-17.7-51.21-29.09-79.09-34.55a202,202,0,0,0-88,2.15c-6.24,1.57-3.59,11.22,2.66,9.64Z" transform="translate(-36.94 -124.52)"/><path d="M1518.37,1917.58c42.4-2.06,83.94-17.6,126.64-13.17,17.34,1.79,34.9,7,49,17.54a68.28,68.28,0,0,1,9.28,8.38c2.43,2.62,6.79,6.65,5.32,10.64-2.58,7-15.09,8.12-21.09,9.12-44.85,7.5-90.85,6.88-135.88,1.28a673.16,673.16,0,0,1-67.58-12.16c-15.29-3.51-38.15-8.38-44.49-25.15-3.93-10.39,10.92-11.21,17.57-11.64q15.54-1,31.1-.85a425.85,425.85,0,0,1,63.29,5.27A430.83,430.83,0,0,1,1672,1944.69c8,3.91,18.81,7.73,24.24,15.2,7,9.7-9.92,12.17-16,13.31-22.51,4.23-45.75,3-68.37.34-21.68-2.5-43.39-5.78-64.87-9.65-21.13-3.81-42.18-8.76-62.11-16.88-3.84-1.56-8.81-3.19-11.84-6.2-4.41-4.38.11-9.51,3.54-12.86a79.27,79.27,0,0,1,21.85-14.86c16.59-7.82,35.32-10.57,53.49-11.29,43.14-1.72,87.12,5.37,128.24,18.22,10.43,3.25,20.72,7,30.87,11v-9.65a113.29,113.29,0,0,1-51.86,0c-6.26-1.47-8.93,8.17-2.66,9.64a125,125,0,0,0,57.17,0c5.27-1.23,4.2-8,0-9.65a413.84,413.84,0,0,0-147.06-29.75c-20.42-.32-41.39,1.27-60.85,7.82a98.89,98.89,0,0,0-26.57,13.34c-7.38,5.34-17.43,13-18.09,22.91-.73,10.92,9.42,16,18,19.65a250.53,250.53,0,0,0,34.1,11.44c23.88,6.25,48.38,9.71,72.77,13.27,24.82,3.62,49.92,7,75,5.46,13.7-.84,54.45-2.86,46-26.5-3.42-9.57-13.64-14.67-22.06-19-10.67-5.48-21.57-10.48-32.65-15.08a435,435,0,0,0-68.5-22,445.15,445.15,0,0,0-69.85-10.42q-17.73-1.23-35.54-1c-10.73.15-22.19-.14-32.72,2.15-8.28,1.81-16.71,7.09-16.92,16.48-.22,10,8.05,19,15.68,24.55,8,5.76,17.6,9.13,27,11.67,11.58,3.13,23.41,5.51,35.19,7.79,49.87,9.66,101.1,14.19,151.81,9.58a366,366,0,0,0,37.3-5.06c7.91-1.56,17.11-5,21.25-12.45,4.9-8.84-1.24-17.24-7.23-23.57a82.66,82.66,0,0,0-23.83-17.24c-41.08-20-86.68-9.74-129.47-2.46a318.79,318.79,0,0,1-38.22,4.55c-6.4.31-6.44,10.32,0,10Z" transform="translate(-36.94 -124.52)"/><path d="M1225.67,2034.81l81.54,8.3v-10a211.19,211.19,0,0,1-42.24-6.81c-6.23-1.65-8.88,8-2.66,9.65a225.92,225.92,0,0,0,44.9,7.16c6.5.38,6.29-9.36,0-10l-81.54-8.3c-6.4-.65-6.35,9.35,0,10Z" transform="translate(-36.94 -124.52)"/><path d="M1258.47,2011.44l-21.89,2.74c-6.3.78-6.38,10.79,0,10l21.89-2.74c6.3-.79,6.38-10.8,0-10Z" transform="translate(-36.94 -124.52)"/><path d="M1258.46,2011.58a45.87,45.87,0,0,0-22.34,7c-2.64,1.66-3.44,5.59-1,7.86a86.67,86.67,0,0,0,43.38,22.12l1.33-9.82a496.64,496.64,0,0,1-78.75-8,5,5,0,0,0-2.66,9.65,337.94,337.94,0,0,0,92.66,18.63c5.82.34,6.53-8.17,1.33-9.82a166,166,0,0,0-69.34-6.8c-5,.58-6.71,6.3-2.52,9.32l19.88,14.34c5.23,3.78,10.23-4.9,5-8.63l-19.88-14.35-2.53,9.32a158.84,158.84,0,0,1,66.68,6.44l1.33-9.82a327.35,327.35,0,0,1-90-18.28l-2.66,9.65a513.75,513.75,0,0,0,81.41,8.35c5.51.12,7-8.77,1.33-9.82a77.21,77.21,0,0,1-39-19.55l-1,7.85a35.47,35.47,0,0,1,17.3-5.62c6.4-.34,6.44-10.34,0-10Z" transform="translate(-36.94 -124.52)"/><path d="M880.91,2069a57.82,57.82,0,0,0-32.47,6.36c-3.72,1.91-3,8.28,1.2,9.14l62.75,12.88,30.9,6.34c8.49,1.74,18.23,2.82,24.59,9.29l3.53-8.54-142,6.68c-6.54.31-6.31,9.34,0,10l87,9.17L911.6,2124c-1,5.24-13.46,5.44-17.47,6.18L869,2134.82l-50.24,9.24c-3.54.65-5,6.05-2.21,8.36a113,113,0,0,0,61.59,25.33c6.4.6,6.36-9.4,0-10a101.1,101.1,0,0,1-54.52-22.4l-2.2,8.35,58-10.66c9.4-1.73,19-3.07,28.29-5.22,6-1.39,12.33-4.52,13.55-11.15.64-3.43-1.41-6-4.82-6.32l-87-9.17v10l142-6.68c4.28-.2,6.67-5.35,3.54-8.53-6.14-6.25-14.31-8.78-22.67-10.56-11.11-2.37-22.25-4.57-33.37-6.85l-66.62-13.68,1.2,9.14a48.43,48.43,0,0,1,27.42-5c6.4.64,6.35-9.37,0-10Z" transform="translate(-36.94 -124.52)"/><path d="M2677.35,1836.49c51.58,8.38,97.85,44.08,117.82,92.62,9.33,22.7,13.87,56-9.56,72-11.2,7.67-25.25,9.61-38.54,9.54a159.1,159.1,0,0,1-40.53-5.64c-26.2-7.07-51.84-21.33-67.78-43.85-14.68-20.74-20.75-48.24-14.14-73a69,69,0,0,1,7.38-17.61c3.18-5.32,7.43-11.95,13.32-14.48,6.95-3,15.22,1.67,21,5.29a65.69,65.69,0,0,1,14,11.82c17.1,18.9,24.07,47,19,71.87-5.35,26.4-24.21,49.16-53,48-31-1.28-53.82-25.19-70.4-49.06-4.21-6-8.2-12.23-12.18-18.43l-5.65,7.35c6.49,1.56,10.45,6.92,13.89,12.27a160.2,160.2,0,0,1,10.11,17.62c5.2,11,8.21,27.22-2.2,36.38s-27.17,3.77-37.93-1.75a70.54,70.54,0,0,1-28.05-26.12l-6.84,6.84c11.62,7.5,17.82,22.53,14.22,36-3.74,14.06-17.39,23.94-31.75,24.12-6.43.07-6.44,10.07,0,10,18.73-.23,36.51-13.12,41.4-31.46,4.77-17.93-3.44-37.38-18.83-47.32-4.23-2.73-9.39,2.66-6.84,6.84,12.63,20.7,38.08,39.73,63.56,37.41,12.87-1.16,22.95-9.19,26.55-21.69,3.7-12.86-.22-25.94-6.21-37.42-6.2-11.86-14.23-28-28.42-31.38-4-1-8.1,3.53-5.65,7.34,17.9,27.81,37.75,57.42,70.57,68.56,14.64,5,31.08,5.59,45.49-.45,13.35-5.6,23.73-16.48,30.24-29.27,13.32-26.16,12.11-58.24-1-84.23-10.94-21.75-45.87-56.78-69.16-30.61-19.57,22-23.33,54.17-15.4,81.77,8.49,29.51,30.34,52.62,57.32,66.5,26.73,13.76,59.81,20.93,89.79,16.73,14.85-2.08,29.33-8.12,38.74-20.21,9.05-11.63,11.86-26.76,10.73-41.21-2.28-29.37-17.93-57.25-37.34-78.82a167.22,167.22,0,0,0-73.84-47.52,152.88,152.88,0,0,0-21.33-5c-6.3-1-9,8.61-2.66,9.64Z" transform="translate(-36.94 -124.52)"/><path d="M2080.71,1982.26c-24.36,4-48.8,8-72.56,14.8-22.71,6.5-46.44,15.5-65.38,30-7.32,5.58-11.17,15.17-4,22.69,7.64,8,20.45,8.37,30.64,9.74a737.31,737.31,0,0,0,178.25,2.36c5.12-.55,7.35-8.69,1.33-9.82a614.43,614.43,0,0,0-187.47-6.38c-17.07,2.07-55.39,4-55,29.26.19,12.29,11.38,19.65,21.07,24.85a203.6,203.6,0,0,0,39.27,16c26.9,7.85,55.32,10.48,83.26,9,25.42-1.39,52.47-5,74.93-17.78,19.91-11.29,38.28-34,32.18-58.3s-33.34-28.74-54.62-28.12c-15.45.45-30.9,1.8-46.33,2.76s-30.94,1.75-46.36,3.24c-15,1.45-30.22,3.43-44.83,7.35-10.44,2.79-21.71,10.26-17.21,22.72,3.93,10.87,17.39,17.68,26.78,23a198,198,0,0,0,36,15.93,204.64,204.64,0,0,0,75,9.94,200.34,200.34,0,0,0,38.95-6,184.2,184.2,0,0,0,18.19-5.7c5.23-1.94,11.28-3.81,14.72-8.5,8.72-11.91-6.38-23.71-14.92-30-10.68-7.88-22.84-13.56-35.28-18.08-27.72-10.1-57.66-16-87.06-18a255.76,255.76,0,0,0-45,.74c-14,1.51-28.4,3.73-41.45,9.32-11.45,4.9-21.69,12.9-27.11,24.36-5.24,11.1-5.28,24,1.62,34.39,12.49,18.85,39.08,26.78,60.08,31,46.71,9.35,97.23-.64,136.63-27.52a168.79,168.79,0,0,0,26.63-22.49c4.46-4.64-2.6-11.72-7.07-7.07-29.16,30.34-70,48-111.93,50.28a164.56,164.56,0,0,1-61.36-8.11c-18.07-6.09-44.83-18.69-37.12-42.38,7.76-23.85,37.72-29,59.22-31.56,26.94-3.13,54.33-1.51,81,3.43,24.25,4.5,49.54,10.64,71.25,22.72,4.69,2.61,29.94,17.22,23,23.92-3.38,3.27-10.17,4.59-14.54,6q-8.3,2.76-16.82,4.72a193.58,193.58,0,0,1-132-17q-7.38-3.88-14.4-8.42c-4.55-2.94-10.19-6.14-12.92-11-6.06-10.84,18.94-13.29,24.77-14.37,26.8-5,54.28-5.75,81.42-7.43,13.27-.82,26.58-2,39.88-2.31,9.64-.2,20,.18,28.91,4.17,21.55,9.64,17.31,35.82,3.79,50.61-15.45,16.9-39,23.47-60.86,26.85a259.27,259.27,0,0,1-74.43.8c-23.93-3.28-47.49-10.32-68.81-21.76-7.22-3.89-21.55-12.12-14.21-22.1,5.08-6.9,15.45-9.31,23.4-10.64,53.87-9,109.75-9.36,163.91-3,13.6,1.6,27.13,3.73,40.58,6.26l1.33-9.82a742.88,742.88,0,0,1-151.75.74c-12.65-1.25-25.44-2.53-38-4.78-3.8-.68-8.3-1.69-11.28-4.33-4.07-3.59.12-7.12,3.4-9.43,18-12.68,38.91-21,59.91-27.07,24-6.94,48.74-11,73.38-15,6.34-1,3.65-10.66-2.66-9.64Z" transform="translate(-36.94 -124.52)"/><path d="M1677,2090.72l-76.1.19v10a295.85,295.85,0,0,1,135.43,31l1.19-9.13c-11.12,4.33-23.71,1.76-35.25.71l-38.64-3.54-77.26-7.07c-2.66-.24-5.05,2.49-5,5,.23,12.38,11.91,18.32,22.15,22a488,488,0,0,1,45.76,18.66q10.88,5.19,21.47,11c3.52,1.93,7.08,3.85,10.51,5.94a17.4,17.4,0,0,1,3.55,2.89c1.05,1,.47-.44-.35-.44a26.35,26.35,0,0,0-3.14.52c-14.57,1.92-29.36-.79-43.85-2.19-15.85-1.54-31.75-1.37-46.19,6.12a5,5,0,0,0-1,7.85,142.55,142.55,0,0,0,54.17,30v-9.65a231.66,231.66,0,0,1-74.11,8.63c-6.44-.29-6.42,9.72,0,10a241,241,0,0,0,76.77-9c4.78-1.37,4.72-8.25,0-9.65a131,131,0,0,1-49.76-27.44l-1,7.85c13.77-7.14,29.51-6,44.45-4.41s30,3.84,45,1.23c6-1.05,11.08-5.52,8.9-12.12-2.28-6.9-10.59-10.24-16.39-13.46A450.47,450.47,0,0,0,1632,2140c-8.69-3.6-17.53-6.72-26.37-9.95-5.4-2-14.07-5.29-14.2-12.13l-5,5,79.25,7.25,38.63,3.54c11.89,1.09,24.47,3.22,35.93-1.25,3.63-1.42,5.41-7,1.2-9.14a306.78,306.78,0,0,0-140.48-32.37c-6.43.08-6.45,10,0,10l76.1-.19c6.44,0,6.45-10,0-10Z" transform="translate(-36.94 -124.52)"/><path d="M2254.05,1787l23.73,27.26,4.86-8.36-68.46-22.2c-11.09-3.6-22.18-7.23-33.28-10.79-8.32-2.68-16.85-4.23-24.12,1.68-1.83,1.49-1.63,4.17-.78,6.06,16.84,37.32,62.19,46.28,88.17,75l4.86-8.36a575.41,575.41,0,0,0-93.79-24.91,5.1,5.1,0,0,0-6.33,4.82c-.78,8.23,3.81,15.25,9.45,20.83,7.18,7.1,15.52,13.21,23.29,19.65l50,41.45,3.53-8.53c-25.67,2.68-48.18-13.17-71.59-21a91.25,91.25,0,0,0-17.64-4.09c-5.44-.68-13.61-1.92-18.2,1.88-11.92,9.89,9.88,22.85,16.27,27.51q22,16.09,45.22,30.48c5.48,3.41,10.51-5.23,5.05-8.63q-22.36-13.92-43.7-29.38c-3.55-2.57-7.1-5.17-10.59-7.83a38.13,38.13,0,0,1-4.84-4.39l-.56-1.08c.15,1.11.79,1.41,1.92.92,3.14.71,7,.14,10.25.65a82.83,82.83,0,0,1,9.95,2.28c26.11,7.56,50.1,25.59,78.46,22.63,3.81-.4,7.23-5.48,3.54-8.54l-45.43-37.68c-7.58-6.28-15.2-12.51-22.72-18.84-5.62-4.73-12.4-10.28-11.64-18.34l-6.33,4.82a575.79,575.79,0,0,1,93.8,24.91c5,1.8,8-4.93,4.86-8.35-13.12-14.5-30.39-24.06-46.82-34.25-16-9.94-31.8-21-39.79-38.72l-.78,6.06c2.92-2.38,7.5-1.12,10.75-.24,4.75,1.3,9.42,3,14.1,4.52l30.43,9.87,60.85,19.73c5.07,1.65,7.93-4.83,4.87-8.35l-23.73-27.26c-4.23-4.86-11.28,2.24-7.07,7.07Z" transform="translate(-36.94 -124.52)"/><path d="M1867.12,1907.74l-40.49-12.37L1824,1905l26.77,7.07c6.23,1.64,8.89-8,2.66-9.65l-26.77-7.06c-6.24-1.64-8.81,7.77-2.66,9.64l40.49,12.37c6.17,1.88,8.81-7.77,2.66-9.64Z" transform="translate(-36.94 -124.52)"/><path d="M1845.86,1940.64l2.74,2.73a5.15,5.15,0,0,0,3.54,1.47,5,5,0,0,0,5-5,5.22,5.22,0,0,0-1.47-3.54l-2.74-2.73a5,5,0,0,0-7.07,0,5,5,0,0,0-1.46,3.53,5.25,5.25,0,0,0,1.46,3.54Z" transform="translate(-36.94 -124.52)"/><path d="M1840.07,1916.57l54.38,15c6.26,1.72,8.71-7.6,2.66-9.65l-79.8-27c-5.4-1.83-8.75,6.4-3.85,9.14a549.68,549.68,0,0,0,72.42,33.92l2.65-9.64a476.15,476.15,0,0,0-60.32-12.16c-5.45-.74-8.85,5.78-3.86,9.14a202,202,0,0,0,49,24l2.66-9.64a367.31,367.31,0,0,0-59.71-13.19c-4.47-.6-8.93,4.56-4.86,8.36a158.31,158.31,0,0,0,40.6,27.63l3.85-9.14-29.41-4c-6.29-.85-9,8.78-2.66,9.64l29.41,4c5,.68,9.52-6.46,3.86-9.14a149.6,149.6,0,0,1-38.58-26.06l-4.87,8.35a368.13,368.13,0,0,1,59.71,13.19c6.18,1.92,8.74-7.62,2.66-9.64a192.19,192.19,0,0,1-46.61-23l-3.85,9.14a476.65,476.65,0,0,1,60.33,12.16c6.33,1.71,8.55-7.38,2.65-9.64a533.58,533.58,0,0,1-70-32.91l-3.85,9.14,79.79,27,2.66-9.65-54.38-15c-6.22-1.72-8.87,7.93-2.66,9.64Z" transform="translate(-36.94 -124.52)"/></g></svg>