<svg xmlns="http://www.w3.org/2000/svg" viewBox="0 0 2937.21 1100.3"><g id="tartiflette"><path d="M593.92,991.8c-86.4,12.14-149.54,77.72-200.7,143.34-29.85,38.28-57.71,78.08-87.18,116.66q-51.74,67.76-106.62,133c-34.3,40.8-71.22,79.43-105.31,120.34-22.73,27.27-49.4,66.52-40.87,104.13,9.73,42.89,56.68,48.12,93.07,51.49,57.21,5.3,114.57,8.77,172,11.07,230.34,9.25,461.42,5.86,691.9,7.06l700.07,3.65,700.41,3.64,172.24.9c53.29.28,106.71.64,159.84-4.15,50.81-4.58,102-13.64,149.58-32.55,17.6-7,35.53-16.18,46.42-32.32,12.53-18.56,13.27-41.88,12.2-63.49-5.45-110.34-21.79-220.95-44.58-329-10.27-48.72-19-101-40.58-146.25-18.22-38.2-49.27-64.51-89.78-76.59-44.72-13.32-92.78-11.31-138.9-11.62L2461.88,990q-175.22-1.17-350.44-2.25-349-2.13-698-3.42t-698-.76q-86.17.12-172.35.39c-6.43,0-6.44,10,0,10q337.52-1,675-.18,336.08.74,672.16,2.68,337.5,1.85,675,4.24c50.72.34,102-1.47,152.61,2.32,47.08,3.53,95.6,16.32,124.65,56.45,27.6,38.14,36.16,88.45,46.39,133.38q18.3,80.31,30.71,161.79,12.73,83.52,19.11,167.84c1.85,24.25,6.19,51.49-1.26,75.18-8.52,27.07-34.68,38.62-59.35,47.42-98.08,34.93-204.1,32.51-306.73,32l-674.58-3.51-671.71-3.5q-336.14-1.74-672.27-3.53c-110.22-.75-220.5-2.39-330.5-9.7q-40.87-2.71-81.67-6.55c-23.77-2.26-52-4.38-68.42-24.17-30.68-37,9.58-92.11,34.47-120.31,69.84-79.16,138.67-158.61,203-242.42,55.08-71.79,104-153.63,175.22-211.07,32.55-26.26,70-45,111.64-50.83,6.35-.89,3.65-10.53-2.65-9.64Z" transform="translate(-35.85 -956.53)"/><path d="M61.74,1637.53q-.21,94.17-.42,188.33c0,44.12.83,92.1,23.23,131.53,22.3,39.26,63.41,56.51,106.38,62.49,55,7.65,111.81,6.3,167.2,8.29,248.73,8.93,498,15,746.63-.43,61.13-3.81,122.07-9.36,183-15.45s122.1-11.48,183.22-6.74c62.2,4.82,121.8,24,183.32,33.07,58.12,8.6,117,6.9,175.48,4.88q375.31-12.91,750.62-26l189.11-6.55c28.7-1,58-.39,86.5-3.86,19.8-2.41,39.87-8.36,53.68-23.6,16.24-17.94,21.48-43.7,27.07-66.47a837.66,837.66,0,0,0,21.65-261.35c-2.06-27.39-5.58-54.63-10.25-81.69-1.09-6.33-10.73-3.65-9.64,2.66,19.76,114.56,15.51,232.91-13.37,345.58-7.19,28.06-15.36,58-45.16,69.29-23.7,9-51.17,7.39-76.09,8.25L2623.38,2006l-722.06,25c-59.76,2.06-119.8,5.77-179.6,3.58-59.07-2.17-115.3-15.69-172.91-27.52-57-11.7-114-15.12-172.13-12.1-57.78,3-115.24,10.39-172.86,15.39-238.68,20.71-478.61,19.16-717.87,12q-89.47-2.65-178.93-6.11c-50.5-1.88-106.06,1.59-154.39-15.53-50.72-18-72.92-63.53-78.75-114.21-6.08-52.9-2.45-107.44-2.33-160.57l.19-88.46c0-6.43-10-6.44-10,0Z" transform="translate(-35.85 -956.53)"/><path d="M160.49,1642.59c31.15-47.38,62.47-94.65,93.43-142.15,7.5-11.5,14.82-23.19,20.45-35.74,5.35-11.93,8.9-24.47,12.73-36.94A186.25,186.25,0,0,1,318,1367.61c26.3-34.11,60.61-61,87.68-94.43,15-18.56,26-39.06,37-60.16,11.32-21.79,23.93-42.08,42.6-58.35,36.21-31.56,87.44-48.22,134.85-51.18,27.3-1.7,52.92,4,79.08,11.14,24.45,6.68,49,12.93,74.61,11.65,49.56-2.49,94.63-26,143-34.58,27.71-5,55.49-2.68,83.15,1.43,24,3.57,49.76,6.28,71.83,17.13,22.46,11,35.15,33.42,56.09,46.64s45.48,21.59,68.44,30.76c49.86,19.92,101.8,37.88,155.93,40.2a255.44,255.44,0,0,0,38.82-1.3c6.33-.7,6.4-10.71,0-10-55,6-109.15-7.72-160.52-26.43-25.47-9.28-50.9-19.24-75.62-30.35-11.18-5-22.34-10.72-31.86-18.53-10.16-8.35-17.85-19.22-27.9-27.67-17.91-15.06-40.79-21.38-63.38-25.43-26.59-4.77-53.86-9.36-80.93-9.44-51.41-.15-97.86,23.26-147.32,33.57a175.57,175.57,0,0,1-76.88-.86c-25.41-5.88-50.13-14.7-76.2-17.4-26.56-2.76-53.61.91-79.37,7.48-22.63,5.76-44.8,14.21-65,26.07-19.21,11.31-36.5,25.87-50,43.7-15.6,20.66-25.31,44.84-38.31,67.06-22.35,38.19-56.73,66.63-86.6,98.58-14.46,15.47-28.13,32-38.42,50.6-12.37,22.34-16.42,47.41-26.45,70.64-11,25.51-28.41,48.38-43.6,71.49l-47.51,72.27-23.41,35.63c-3.55,5.4,5.11,10.41,8.63,5Z" transform="translate(-35.85 -956.53)"/><path d="M1116.84,1119.71c83.65,29.06,173.05,10.63,258.61,2.72,92.84-8.58,186.2-8.29,279.34-7,92.75,1.25,185.59,3.46,278.28-1.17,46.55-2.33,92.65-7.72,139-12.2,23.38-2.27,46.81-3.6,70.31-2.83,23.13.76,46.17,3.11,69.18,5.48a2656.85,2656.85,0,0,0,280.48,14.47q17.38-.06,34.78-.34c6.42-.1,6.44-10.1,0-10a2588.24,2588.24,0,0,1-279.29-10.57c-46-4.25-92-10.83-138.34-8.91s-92.52,9.34-138.86,12.65c-92.56,6.6-185.42,5.32-278.13,4s-185.57-2.83-278.15,3.42c-44.43,3-88.51,9-132.84,13-43.46,4-87.92,5.62-130.86-3.62a261.66,261.66,0,0,1-30.86-8.68c-6.09-2.12-8.71,7.54-2.66,9.64Z" transform="translate(-35.85 -956.53)"/><path d="M2368.74,1147.05c51.74,24.23,113.6,23.14,164.6-2.61,13.14-6.63,24.82-15.29,36.65-24,12.16-8.92,24.85-17.52,39.75-21,16.19-3.74,33.24-1.77,49.54.11a385.19,385.19,0,0,1,43.62,7.24c28.76,6.73,56.47,18.61,76.94,40.52,21,22.51,33.45,51.84,44.73,80.08a852.26,852.26,0,0,1,51.82,193.22,840.75,840.75,0,0,1,8.44,100.35c.82,33.59-2.32,67.57,2.24,101a171.39,171.39,0,0,0,5.11,24.46c1.77,6.17,11.43,3.55,9.64-2.66-9.59-33.29-6.74-68.15-6.74-102.35a847.89,847.89,0,0,0-6.17-101.86,858.8,858.8,0,0,0-47.35-195.73c-10.83-29.14-22.29-59.28-39.95-85.07-17-24.84-40.17-42.52-68.26-53.21-27.75-10.56-57.95-14.8-87.39-17.34-16.35-1.42-33.32-1.31-48.84,4.69-13.82,5.34-25.7,14.12-37.52,22.86-24.1,17.81-49.93,30.64-79.61,36a179.82,179.82,0,0,1-86-5.47,168.26,168.26,0,0,1-20.21-7.91c-5.79-2.72-10.87,5.9-5,8.63Z" transform="translate(-35.85 -956.53)"/><path d="M2292,1377.52c60.84,23.27,125.25-4.61,185.06-17.48,16.41-3.53,33.51-6.25,50.22-3.19,15.85,2.91,30.53,9.83,45.07,16.48,29.67,13.56,59.51,26.94,90.41,37.49,34.3,11.71,70,19.65,106.41,19.91,6.44,0,6.44-10,0-10-65.32-.48-126.61-26.38-185.1-53-14.31-6.51-28.56-13.62-43.71-18-15.62-4.55-31.47-4.91-47.5-2.67-32,4.48-62.94,15.14-94.43,22.17-34.32,7.67-70.19,11.51-103.78-1.33-6-2.3-8.61,7.36-2.65,9.64Z" transform="translate(-35.85 -956.53)"/><path d="M2311.59,1513.12c-52.58,12.58-114.52,25.08-164-4.16-12.87-7.6-24.14-16.69-39.13-19.82s-30.9-2.47-46.18-1.81a472.87,472.87,0,0,0-93.79,13.52,466.92,466.92,0,0,0-50.92,15.79c-16.67,6.23-34.59,14.12-52.69,9.79-6.25-1.49-8.92,8.15-2.66,9.65,15.59,3.72,31,0,45.76-5.23,15-5.35,29.8-11,45.1-15.48a460.21,460.21,0,0,1,96.12-17.3c15.6-1.11,31.58-2,47.2-.63,8.07.7,16.17,2.44,23.46,6.08,7,3.47,13.18,8.18,19.75,12.29,23.54,14.75,51.19,20.57,78.71,20.82,32.41.29,64.54-6.36,95.92-13.86,6.25-1.5,3.6-11.14-2.66-9.65Z" transform="translate(-35.85 -956.53)"/><path d="M1811.43,1218.12c40.39,4.56,80.36-7.62,120.74-4.36a123.11,123.11,0,0,1,30.18,6.33c9.81,3.38,19.31,7.64,29.3,10.46,18.53,5.24,37.95,5.41,56.88,2.46,40.6-6.35,76.95-26.47,114-43,35.82-16,77-30.63,116.58-21.38,40.1,9.36,67.32,44.18,105.87,57.24,6.11,2.06,8.73-7.59,2.66-9.65-34.14-11.55-58.86-40.42-92.49-53.16-37.73-14.3-79.14-5.08-115.44,9-38.27,14.85-73.88,36.26-113.74,47-19.27,5.17-39.66,7.82-59.5,4.57-20.43-3.35-38.6-14-58.9-17.84-45.29-8.51-90.71,7.48-136.16,2.34-6.39-.72-6.34,9.29,0,10Z" transform="translate(-35.85 -956.53)"/><path d="M1932.85,1355.91c-77.35-1.15-133.36-65-200.94-93.23-18.43-7.7-38.12-13-58.22-13-17.78,0-35,4.52-51.07,11.9-32.06,14.68-58.18,39.18-87.67,58a247.37,247.37,0,0,1-125.18,38.73c-6.41.21-6.44,10.21,0,10A258.23,258.23,0,0,0,1521.49,1339c31.85-16.74,58.29-41.59,89.16-59.86,15-8.89,31.26-16,48.67-18.53,19.94-2.9,40.19.8,59,7.45,36.58,12.93,68.16,36.79,100.91,57,34.59,21.3,72.11,40.24,113.61,40.86,6.43.09,6.44-9.91,0-10Z" transform="translate(-35.85 -956.53)"/><path d="M763.71,1459c18.86,32.16,60,36.53,93.7,33.93,22.28-1.71,44.53-5.84,66.42-10.21q37-7.41,73.31-18.13c24-7.1,47.58-15.35,70.87-24.48,22-8.65,43.92-17.83,66.33-25.52,22.72-7.8,46.19-14.23,70.21-16.22,25.47-2.11,50.32,1.69,75.08,7.41,25.51,5.88,51.34,11.77,75.89,21a185.67,185.67,0,0,1,34.88,17.14c12.08,7.71,23,17,33.95,26.25,4.88,4.14,12-2.9,7.07-7.07-18.38-15.58-37-30.29-59.13-40.18-20.72-9.25-42.64-15.21-64.62-20.64-24.38-6-48.94-12.37-74.07-14.12-23.22-1.61-46.55,1.41-69.08,7-46.81,11.59-90.39,33.28-135.87,48.9A832.48,832.48,0,0,1,884,1479.62c-36,5.5-89.82,11.53-111.64-25.68-3.25-5.55-11.9-.52-8.63,5Z" transform="translate(-35.85 -956.53)"/><path d="M697.11,1535.91c-21,8.93-44.13,4.85-65.4-1-22.17-6-43.84-14.15-66.76-17a106.2,106.2,0,0,0-34.62,1.24c-12.11,2.48-23.68,7-35.26,11.18s-23.3,8.48-35.54,10.09c-14.17,1.87-27.85-1.12-41.39-5.12a420.81,420.81,0,0,1-84.66-35.59c-5.63-3.12-10.68,5.51-5,8.64A435,435,0,0,0,405.87,1542c13.61,4.38,27.68,8.7,42.09,9,12.64.31,25.14-2.65,37.06-6.57,24.17-8,47.05-19,73.13-17.2,23.86,1.63,46.56,10.55,69.42,16.89,24.71,6.84,50.27,10.66,74.59.34,5.9-2.5.81-11.12-5-8.63Z" transform="translate(-35.85 -956.53)"/><path d="M545.31,1279.27a236.08,236.08,0,0,0,101.13.57c34.17-7.33,64.26-24.16,95.68-38.67,28.8-13.29,61.61-24.24,93.57-17,16.38,3.73,29,12.75,41.44,23.68,11.8,10.39,23.93,19.9,38.06,27a155.61,155.61,0,0,0,99.54,13.45c6.3-1.25,3.63-10.89-2.66-9.64a144.21,144.21,0,0,1-88.93-11c-14.25-6.73-26.51-15.84-38.28-26.22-12-10.55-24.19-20.06-39.61-25-29.27-9.3-61.46-3.07-89.32,8-31.77,12.57-61,31.07-93.81,41A224.43,224.43,0,0,1,548,1269.62c-6.27-1.4-9,8.24-2.66,9.65Z" transform="translate(-35.85 -956.53)"/><path d="M564.83,987.9c-94.7-1.65-155.61,94.37-207.36,160L140.19,1423.24C92,1484.29-2.54,1576.7,52.61,1660.9c25.19,38.48,69.22,37,109.57,28.29,28.54-6.14,56.33-11,85.67-10.67,28.6.26,57,3.61,85.43,6.91,116,13.46,232.83,12.7,349.44,14.36s233.36,3.66,350,4.36c118.08.7,236.19-.08,354.19-4.57,116.48-4.44,233.12-14.26,349.68-6.33s231.82,27.66,348.95,29.5,234.15-7.06,351-15l352.4-23.86c42.89-2.91,89.65-2,130-19.06,38.79-16.41,56.41-50.09,53.93-91.57-1.6-26.83-7.12-53.63-11.14-80.18q-6.49-42.86-13-85.71c-8.4-55.44-15.66-111.23-26.45-166.27-17.84-91-51.59-184.07-128.32-241.71-36.46-27.39-79.11-41.53-124.62-42.78-56.93-1.56-114,11.73-170.27,18.54a2374.35,2374.35,0,0,1-343.13,16.43q-86.64-2.13-173-10.59c-56.93-5.59-113.79-14.74-171.11-14.63-58.12.1-114.38,14-171.75,21.21-57.57,7.27-115.72,6.43-173.61,5.35q-352.71-6.59-705.41-13.38L590,976.33c-6.43-.12-6.43,9.88,0,10l679.15,12.89,168.43,3.19c56.15,1.07,112.47,2.87,168.54-1.39,55-4.18,108.66-17.53,163.51-22.64,55.33-5.16,110.59,1.23,165.54,7.5,109.16,12.46,218.87,18.23,328.75,15.93,109.55-2.28,217.7-13.94,326.09-29.18,54.57-7.67,111.29-11.46,162.39,13,39.72,19.05,72.38,50.9,96.77,87.21,57.34,85.37,68,192.37,83,291.46q12.57,82.86,25.12,165.72c4,26.32,10.41,55.27,1.91,81.39-7.33,22.5-26.23,37.45-47.69,45.7-42.69,16.43-92.17,14.71-137.1,17.75l-168.91,11.44c-224.09,15.17-450.3,40.13-674.63,16.9-56.16-5.81-112.16-13.27-168.43-18-55.64-4.7-111.37-5.76-167.18-4.46-113,2.65-225.81,10.42-338.86,12.39-225.62,3.92-451.38-1.6-677-4.83-55.45-.8-110.93-1.59-166.27-5.3-55.1-3.71-110-14-165.26-14.5-26.55-.26-52.23,3-78.1,8.76-26.23,5.8-55.13,13.29-81,2.08C46.25,1660.9,40,1605.61,53.57,1566.68c17.61-50.63,59.27-92.74,91.9-134.09l104.15-132,104.15-132c30.75-39,60.07-80.18,95.56-115.09,31.51-31,69.76-56.39,115.5-55.6,6.43.12,6.43-9.88,0-10Z" transform="translate(-35.85 -956.53)"/><path d="M606,990.42c25.52-20.37,60-4.19,86.64,5.32,28.67,10.22,55.54,16.19,85.64,8.36,34.19-8.9,65.24-27.46,101.56-26.39,20.13.59,40,5.27,59.69,9.14l60.74,11.92c75.42,14.82,151.69,35.53,228.83,22.08,38.59-6.73,76.13-18.33,114.63-25.51,40.14-7.48,80.8-11.7,121.54-14,79.3-4.42,158.81-1.7,238.15-.07l242.88,5,490.34,10.09c75.4,1.55,151.13,1.18,226.44,5.53,62.92,3.63,129.18,12.86,183.46,47.24a208.86,208.86,0,0,1,36.59,29.62l-.78-6.06c-22.54,33.41-4.39,74.33,8.72,107.69a504.23,504.23,0,0,1,34.73,207.88c-1.07,24-4.84,47.72-6.09,71.67a206.85,206.85,0,0,0,7.17,65.09c5.67,21.27,13.51,42.55,14.83,64.69,2.67,44.68-30.82,70.91-71.63,78-44.42,7.75-88.91-7.73-133.49-5.28-45.56,2.5-86.62,26.1-132.06,30.58-45.27,4.45-90.68-1.22-135.9-3.37-45.57-2.16-88,1.76-131.69,15.16-22.37,6.88-45.66,14.3-69.36,11.7-21.7-2.37-41-13.66-60.91-21.7-40.64-16.43-81.38-8.84-123.15-1.7-22.62,3.87-45.64,7.07-68.57,4.17-20.71-2.62-40.65-9.41-60.5-15.55-35.33-10.93-73.47-20.91-107.9-1.87-9.65,5.34-19.46,13.7-31.1,13.44-11.14-.25-20.56-8.24-30.24-12.77-16.23-7.59-33.81-7-50.81-2.34-20.79,5.65-39.94,16-60.73,21.68-19.47,5.28-39.71,6.29-59.76,4.8-41.42-3.09-81.33-16.17-121.63-25.33-37.25-8.47-75.48-13.76-113.37-6.24-11.59,2.3-23.18,5.68-35.08,5.79-13,.12-23.19-5.1-34.13-11.51-17.13-10-33.14-14.49-53-11.21-21.11,3.48-40.54,13.23-61.37,17.83-25.74,5.68-52.19,1.69-77.8-2.59-36.2-6.06-74.37-12.61-109.61,1.66a81.81,81.81,0,0,0-35.39,27.08c-3.87,5.14,4.8,10.13,8.63,5,25.06-33.25,72.21-33.6,109.59-28.1,22.32,3.29,44.48,8.18,67.06,9.42,22.87,1.26,43.66-3,65.21-10.29,20.75-7,43.77-16.19,65.61-8.46,19.69,7,33.06,21.31,55.24,21.12,21.06-.19,41.33-8.16,62.39-9.31,20.54-1.11,41.07,1.09,61.25,4.8,40.23,7.41,79.23,20.45,119.63,27,39,6.35,75.93,4.42,112.95-10.06,19.39-7.58,40-17.74,61.34-16.72,20,1,34.3,18.39,54.06,18.68s34.88-16.92,53.3-21.87c20.15-5.42,41.24-1.72,61,3.5,40.47,10.69,77.89,26.29,120.6,22.75,43.39-3.6,87.77-20.4,131.39-10.48,20.39,4.64,38.54,15.33,58,22.52,19.82,7.32,39.7,8.74,60.49,5.1,22.61-4,44-12.59,66.24-18.15,22.47-5.62,45.57-7.62,68.69-7.79,45.48-.35,90.71,6.06,136.19,5.77,21.16-.14,42.42-1.77,63.15-6.17,22.33-4.75,43.49-13.45,65.44-19.57,48-13.37,94,.43,142.39.94,31.64.34,67.44-7.69,89.8-31.7,26.8-28.77,20.63-67.67,11-102.27-6.23-22.35-13.14-44.35-13.75-67.75-.65-25.05,3.63-49.89,5.5-74.8a514.38,514.38,0,0,0-8.22-136.66A508.63,508.63,0,0,0,2909,1200c-6.89-20.24-16.08-39.7-22.09-60.23-6.15-21-8.65-43,4.17-62a5.07,5.07,0,0,0-.78-6.06c-44-44.44-104-64.79-164.67-73.66-70.1-10.25-141.8-8.63-212.45-10.09l-499.19-10.27-250.34-5.15c-81.34-1.67-162.81-4.7-244.17-3.14-80.3,1.53-158.92,10.25-237,29.4-39.92,9.79-79.76,18.71-121.14,16.76-42-2-83.45-11.72-124.61-19.8-40.28-7.91-80.49-16.34-120.87-23.68-17.55-3.19-35.47-5.64-53.32-3.75-16.31,1.73-31.89,6.95-47.2,12.58-16,5.89-32,12.43-48.77,15.64-17.55,3.35-34.34,1.21-51.32-3.82C688,984.66,660.1,969,630.94,970.68c-12.16.71-22.51,5.12-32,12.67-5,4,2.08,11,7.07,7.07Z" transform="translate(-35.85 -956.53)"/><path d="M986.92,1677.11c-55.68,10.22-112.66,19.83-169.44,14.73-27.48-2.47-54.92-8.8-79.92-20.65-24.19-11.46-45-31.49-72.68-34-47.12-4.27-84.51,34.82-129.68,40.63-12.46,1.61-24.36-.27-36.08-4.68-14-5.26-27.08-12.18-41.82-15.22-27.33-5.63-55.28-1.4-82.22,4.35-28.13,6-56.17,14.08-85.07,15.29-32.14,1.36-63.68-8.14-94.71-15.3l-49-11.32c-14.54-3.35-30.66-5.43-44.12-12.18-24.34-12.21-35-43.3-36.65-68.82-3.73-58.59,31.16-108.87,70.45-148.68,20.42-20.69,42.38-39.79,63.36-59.89q32.2-30.84,62.19-63.9a1289.81,1289.81,0,0,0,110.07-139.56q25.11-36.79,47.61-75.28c11.84-20.23,26.79-46.57,53.57-46.39,10.11.07,19.87,4.17,24.58,13.5,1.81,3.57,8.54,3.09,9.14-1.2,4.47-32.14,29.66-58.9,61.56-65.06,5.46-1.05,4.29-10.53-1.33-9.82-56.85,7.15-106,41.21-142.77,83.79-20.44,23.66-37.68,49.88-53.49,76.79-8.14,13.85-15.91,27.89-23.64,42-6.58,12-12.79,27.11-24.91,34.57-12.63,7.77-28.9,4.62-42.94,6.65-12.83,1.84-24.39,7.95-34,16.5-21.24,18.86-30.65,46.22-39,72.5-4.72,14.9-9.39,29.95-16.84,43.76-7.07,13.1-16.61,24.51-26.8,35.27-19.94,21.06-40.71,40.57-56.62,65.06C74.87,1498,59.65,1555.84,63.62,1612.34c.48,6.85,1.28,13.66,2.28,20.44.92,6.35,10.56,3.65,9.64-2.66-8.06-55,3.23-112.48,30.5-160.86,14-24.81,32.34-45.31,52.3-65.41,10-10.11,20-20.38,28.54-31.8,8.91-11.85,15.45-24.93,20.62-38.78,10-26.71,15.35-55.55,32.47-79,7.46-10.22,17.37-19.44,29.31-24.07,13.26-5.15,27.55-3,41.34-5.12s23.84-9.82,31.62-21c8.37-12,14.71-25.66,21.82-38.45,14.86-26.69,30.33-53.14,48.42-77.8,33.26-45.35,78-85.86,133.68-100.22a165.21,165.21,0,0,1,20.55-4l-1.33-9.82c-34.9,6.73-63.64,36.8-68.55,72l9.14-1.19c-10.21-20.21-38-22.61-56.28-12.83-24.65,13.16-37,42.62-50.85,65.35a1268.1,1268.1,0,0,1-107.36,150.51c-39.22,47.26-82,91-127.11,132.63-42.65,39.37-87.1,81.72-103.16,139.44-7.37,26.51-8.65,55.53.45,81.79,4.39,12.66,10.92,25,20.36,34.68,10.21,10.42,23.44,15.35,37.36,18.71,33.31,8,66.79,15.44,100.17,23.14,16,3.7,32,7.38,48.43,8.91,14.84,1.38,29.65.45,44.38-1.62,29.61-4.15,58.28-13.12,87.8-17.71,14.16-2.2,28.61-3.23,42.9-1.87,15.31,1.46,29.09,6.74,43.11,12.74,12.63,5.41,25.37,9.87,39.27,9.88,11.7,0,23.32-2.63,34.34-6.43,22.76-7.84,43.54-20.39,66.19-28.51,10.65-3.81,21.75-6.65,33.13-6.58,13.83.08,26.14,5.25,37.85,12.27,12.51,7.5,24.49,15.57,37.79,21.68a226.71,226.71,0,0,0,39.54,13.87c56.56,14.16,116.06,8.42,172.94-.63,14.16-2.25,28.26-4.77,42.36-7.36,6.32-1.16,3.64-10.79-2.66-9.64Z" transform="translate(-35.85 -956.53)"/><path d="M596,974.51c241.72,7.14,483.44,14.28,725.22,18.53,240.77,4.24,481.62,5.6,722.4,1.24,120.57-2.18,241-6.56,361.53-11,59.65-2.2,119.37-3.73,179.05-2,56.62,1.66,117.62,2.71,172.34,18.69,53.71,15.7,83.68,57.73,105.63,106.64,22.65,50.45,40.1,103.45,53.11,157.16a952.09,952.09,0,0,1,21.26,326.45q-2.41,22.23-5.92,44.32c-2.13,13.46-3.42,30.65-13,41.25-18.33,20.29-58.08,14.73-82.35,12.49-57-5.26-112.36-22.26-169.77-23.77-55-1.45-109.31,9.21-163.39,17.69-58.93,9.24-116.21,13.08-175.39,3.8-54.18-8.48-107.89-22.55-163-22.7-54.31-.14-107.39,13.32-160.29,24-57.6,11.57-113.5,16.93-171.59,5.5-52.78-10.38-104.32-28.46-158.39-31.22-53.3-2.72-104.56,12.94-155.71,25.58-26.61,6.57-53.53,12.37-81,14-29.13,1.7-58.3-1.1-87.07-5.58-54-8.41-107.45-22.43-162.34-24.08-56.83-1.7-112.71,10.6-168.66,18.58-60.74,8.66-121.82,8.6-183,6.7q-90.27-2.81-180.5-6.38c-119.39-4.7-238.77-10.85-357.76-21.84-48.77-4.5-101.14-5.81-147.39-23.62-20.14-7.75-39.58-19.9-51.24-38.53-15.69-25.09-12.91-55.16-4.86-82.35,14.7-49.67,37.84-99.33,61.76-145.2,23.58-45.24,52.76-87.72,92-120.78,37.76-31.78,81.72-55.23,119.22-87.34,39.05-33.44,61.38-77.06,88.5-119.74,27.36-43.07,68.05-86.36,123.62-81.78,29.29,2.41,57.77,13,86.84,17.45a617.57,617.57,0,0,0,82,6.7C804,994.34,860.08,989.2,916,984c6.35-.59,6.42-10.6,0-10-59.45,5.5-119.15,11-178.91,9-31.92-1.08-63.77-4.3-95-10.88-26.49-5.57-53.17-15.39-80.63-13-45,3.87-80.44,37.17-105.14,72.57-31.19,44.71-52.64,94-94.63,130.42-39,33.88-85.37,58-124.46,91.84-38.19,33-66.9,75.3-90.1,119.82-23.59,45.25-45.75,94-61.25,142.68-13.79,43.26-11.57,89.92,26.87,119.32,31.53,24.11,73.32,31,111.74,35.36,61.68,7,123.6,12.13,185.52,16.43,124.86,8.67,250,13.2,375,17.47,61.85,2.11,123.94,5.15,185.73.37,60.88-4.7,120.49-19.77,181.47-23.37,60-3.55,118,9.84,176.75,20.13,54.4,9.53,107.4,12.61,161.8,1.44,55.54-11.4,110-32,167.26-32.37,58.59-.42,114.34,20,171.19,31.21,54.41,10.7,107.36,7.68,161.6-2.52,58.13-10.93,116-27.14,175.58-26.55,58.89.58,116,16.92,174.07,24.69,56.19,7.52,111.3,2.21,167-6.59,59.34-9.39,119-20.81,179.33-15.73,58.82,5,116,23.19,175.2,24.06,20.54.3,45.64.08,61.28-15.42,16.63-16.46,17.09-45.69,20.06-67.39a948.77,948.77,0,0,0,8.13-164.7c-4.23-112.1-27.94-223.54-70.59-327.32-17.54-42.69-38.33-87.76-77.69-114.62-43.07-29.39-101.69-31.69-152-35.55-124-9.51-248.46-1-372.46,3.35-249.16,8.69-498.51,10.24-747.79,7.83-251.25-2.44-502.45-8.89-753.6-16.12q-90.64-2.61-181.28-5.31c-6.43-.19-6.43,9.81,0,10Z" transform="translate(-35.85 -956.53)"/><path d="M66.31,1639.22a1392,1392,0,0,0,3.21,179.21q3.56,42.57,9.75,84.85c3.51,24.1,6.08,49.74,16.2,72.16,19.07,42.25,65.31,50.93,107,55.37,58.8,6.27,118,6.4,177.08,6q362.79-2.38,725.57-5.46c60.7-.46,121.46-.32,182.09-3.51,60.25-3.18,119.7-12.24,179.6-18.91,58.91-6.55,116.8-7.25,175.65.24,58.39,7.43,116.11,17.6,175,21,120.85,7,242.75,1.69,363.73.56l360.25-3.35,183-1.7c44.31-.41,92.45,1,132.93-20,40-20.71,57.14-61.35,64.75-103.64,9.79-54.4,14.51-110,21.39-164.86l11.4-90.72c.8-6.36-9.21-6.31-10,0l-22.08,175.76c-5.91,47-6.52,103.08-34.46,143.56-28.83,41.78-82.8,48.14-129.52,49.45-56.22,1.57-112.55,1.18-168.79,1.7l-348.81,3.24c-116.75,1.09-233.67,4.07-350.43,2.49-58.75-.8-117.1-4.65-175.28-13.06-54.67-7.9-109.29-17.16-164.72-16.49-57.21.68-113.85,9.71-170.53,16.55-57.33,6.92-114.85,9.77-172.56,10.71-233.21,3.81-466.55,3.7-699.78,5.45-57.79.44-115.6,1.31-173.39,1.07-54.81-.23-112.67.5-166.46-11.26-24.58-5.36-48.25-16-60.85-39-12.39-22.64-14.58-50.94-18.24-76a1360.14,1360.14,0,0,1-14-177.35c-.39-28,.14-56,1.42-84,.3-6.44-9.7-6.42-10,0Z" transform="translate(-35.85 -956.53)"/><path d="M2944.45,1662.77c6.29,29.19.91,59-4.23,87.88-5.1,28.69-10,57.65-5.29,86.75,1,6.34,10.66,3.65,9.64-2.66-9.45-58.65,22.17-115.9,9.52-174.63-1.35-6.28-11-3.62-9.64,2.66Z" transform="translate(-35.85 -956.53)"/><path d="M2925.85,1682.84c11.87,62.56,24.48,128.44,9.16,191.58-11.63,48-43.05,94.94-89.39,115.13-54.1,23.56-106.68-8.29-161.63-7.58-27.24.36-51.84,11.23-76.8,20.92-29.08,11.29-57.42,15.9-88.48,11.48-29.68-4.22-58.23-13.84-87.24-21-29.42-7.3-58.79-10.77-89.11-9.5-63.41,2.66-126.48,15.55-189.7,21.32-127.71,11.65-256.12,14.22-384.27,16.78-63.87,1.28-127.94,1.37-191.41-6.76-61.29-7.85-122.39-22-184.54-19.39-60.09,2.54-117.68,21.68-177.18,28.6-30.8,3.59-61.45,3.25-91.82-3.43-29.69-6.52-58.39-17.13-88.4-22.3a177.37,177.37,0,0,0-78.7,3.67c-28.08,7.72-54.86,20-83.69,25-59,10.18-118-9.32-177.17-6.2-28.43,1.51-54.47,10.41-81.56,18.32-29.24,8.54-56.69,10.29-86.09,1.73-48.52-14.12-92.22-45-144.19-45.88-88.53-1.41-209.33,93-273.17-11-52.77-86-9-190.44-25.95-283.3-4.39-24-13.17-46.61-27.27-66.59-3.68-5.22-12.35-.23-8.63,5,33.43,47.41,32,106.65,28.39,162.07-3.07,47.12-6.9,93.89,5.21,140.17,10.36,39.56,32.79,77.41,71.95,93.74,45.64,19,94.55,2.4,139-11.68,25.87-8.19,52.24-16.59,79.5-18.15,27.58-1.57,53.58,5.86,78.93,16.06,48.33,19.46,93.83,43.95,147.47,32.07,31.69-7,61.1-20.29,93.87-22.42,29.88-2,59.74,2.09,89.39,5.26,28.34,3,57,5.5,85.42,1.61,29.93-4.1,57.53-16.33,86.31-24.79,32.38-9.52,63.27-9.14,96-1.44,30.46,7.17,60.07,18,91.15,22.42,58.65,8.37,116.8-6.95,174-18.18,31.83-6.25,63.81-11,96.32-10.67,33.25.33,66.26,4.82,99.08,9.84,63.32,9.68,125.8,16.8,190,17.22,132.61.86,266.31-3.54,398.57-13.06,66.68-4.8,132.6-13.58,198.89-21.74,32.41-4,65.42-6.42,97.88-1.58,30.85,4.59,60.5,14.81,90.75,22.06,26.3,6.31,53.41,10.44,80.41,6.59,28.9-4.13,54.44-18.64,82.08-27,57.67-17.49,111.52,18.15,169.19,9.88,45.42-6.51,82.58-39.16,105.07-77.78,28-48.07,31.74-104.89,26.4-159.17-3-30.43-8.6-60.52-14.3-90.54-1.2-6.32-10.84-3.64-9.64,2.66Z" transform="translate(-35.85 -956.53)"/><path d="M119.09,1670.71a173.22,173.22,0,0,0-72.84,105.91c-1.39,6.27,8.25,9,9.64,2.66a163,163,0,0,1,68.25-99.93c5.33-3.55.33-12.22-5-8.64Z" transform="translate(-35.85 -956.53)"/><path d="M111.76,1669.72C33.47,1741.9,20.09,1865.86,85,1951.05c29.73,39,72.78,68.2,120.79,79.16,59.75,13.65,120.89.28,180.48-7.23,30.75-3.88,62.05-6.55,93-2.89,32.8,3.89,61.63,19.73,93.72,25.88,29.45,5.65,55.67-3.57,82.73-14.45,33.08-13.3,63.88-18.35,99.49-14.47,34.13,3.73,67.67,11.56,102.2,10.42,31.73-1.06,62.93-7.7,94-13.56,35-6.6,69.8-11.34,105.48-8.4,34.83,2.87,68.94,10.88,103.39,16.35,65.18,10.36,127.22,2.47,191.51-9.62,68.48-12.89,135-23.56,204.08-8.4,60,13.16,120.13,36.54,182.41,25.24,59.72-10.83,117-51.66,179.4-33.15,29,8.59,54.26,26,81.76,38.07,23.74,10.4,48.29,15.51,74.2,12.94,53.43-5.3,100.22-34.9,151.33-48.82,28.56-7.77,57.11-9.2,85.44.26,28,9.33,53.57,25.6,83,30.6,29.24,5,58.21-2.18,86.15-10.41,32.5-9.58,63.8-18.4,98.05-18.13,104.57.85,231.07,62,321.22-21.11,40-36.88,36.84-86.25,28.71-135.81-5.9-36-6.49-66.89,8.65-100.74,10.36-23.18,23-45.82,24-71.79.82-21-5.79-40.67-22.73-53.69-5.1-3.92-10.08,4.76-5,8.63,22.81,17.53,20.3,50.66,11.47,74.89-9.64,26.42-25.76,50.38-29.84,78.67-8.09,56.24,27.7,116.25-3.16,169.22-24.43,41.94-76.71,60-122.6,64-60.09,5.25-119.16-14.29-178.49-20.38-30.61-3.14-61.21-2.44-91.22,4.73-30.61,7.31-60.26,20-91.8,23-57.78,5.54-103-40-160.29-38.57-50.69,1.22-96.38,27.44-143.28,43.52-24.48,8.4-50.27,14.62-76.32,12.11-29.57-2.86-55.6-17.93-81.46-31.33-22.46-11.64-45.66-22.3-71.18-24.42-26.54-2.21-52.74,4.71-77.68,13-27.5,9.18-54.56,20.67-83.31,25.46-33,5.49-66.39.53-98.64-6.85-30.55-7-60.57-16.24-91.4-22a343.57,343.57,0,0,0-89.25-4.49c-62.85,4.84-123.81,22.59-186.46,29a395.39,395.39,0,0,1-99.19-2.47c-31-4.65-61.52-11.59-92.58-15.55a340.11,340.11,0,0,0-92.58.85c-33.21,4.82-65.85,13.07-99.19,17-34.14,4-66.76.57-100.59-4.49-29.11-4.35-58.76-8.38-88-2.84s-54.77,22-83.75,28c-33.08,6.78-62.08-8.26-92.82-17.74-112.87-34.8-232.55,39.14-343.25-8.45-103.28-44.4-150.68-165.92-103.84-268.22a202.65,202.65,0,0,1,47.15-64.83c4.74-4.37-2.35-11.43-7.07-7.07Z" transform="translate(-35.85 -956.53)"/><path d="M186.85,1606.88,247.12,1501c3.19-5.6-5.45-10.64-8.63-5l-60.27,105.89c-3.19,5.61,5.45,10.65,8.63,5.05Z" transform="translate(-35.85 -956.53)"/><path d="M192.85,1653.37c14.59-108.86,63.54-208.91,126.31-297.92,31.6-44.8,66.69-87,103.48-127.66q26.94-29.71,55-58.4c19.94-20.45,40.52-41,65.31-55.56,54.12-31.84,113.12-9.88,171.31-19.9,27.19-4.68,51.87-18.2,79-23.23,29-5.38,53.29,5.93,78.15,19.46,19.09,10.39,39,21.49,61.16,22.89,23.55,1.48,45.06-8.82,65.83-18.51,26.94-12.57,52.32-20.88,82-12.79,25.51,7,48.28,21.18,71.79,32.82s47.56,19.76,73.83,21.81c28.17,2.2,56.45-1.69,84.15-6.5,30.64-5.32,61-12.18,92.07-15,29.73-2.67,59.65-2.36,89.43-.87,60.52,3,120.9,11,181.59,9.32,28.39-.8,56.78-3.81,84.46-10.29,30.81-7.2,60.93-18.8,92.65-21.51,30.82-2.64,60.24,5.72,89.78,13.28,27.32,7,54.51,11.37,82.78,11.09,58.78-.6,115.95-16.27,174.14-22.52,31.09-3.34,62.11-3.48,93.06,1.35,28.91,4.51,57.24,12,85.73,18.58,27.75,6.37,55.94,12,84.49,12.79s55.67-4.51,82.9-12.2c28.93-8.18,57.82-18.06,88.12-19.35a188.5,188.5,0,0,1,78.53,13.75c52.18,21.14,88.73,64.62,109.65,115.92,20,49,27.52,102,34.35,154.1q12.42,94.77,21.41,190,4.48,47.58,8.12,95.24c.49,6.34,9.91,6.52,10,0,1.64-113.2-18.32-225-41.37-335.37-17.9-85.74-30.82-201.11-122.35-241-17.92-7.81-37.66-11.83-57.19-9.62-20.54,2.32-36.77,12.35-54.34,22.38-12.36,7-24.6,12.25-39.08,10.76-14.27-1.47-27.57-7.61-41.73-9.79-22.72-3.51-45.55,1.07-67.88,5-28.65,5-54,6.31-82-2.72-26-8.38-49.64-12.7-77.07-10.83-57.36,3.92-114.67,11.48-171.86,17.34-27.81,2.85-55.85,6.89-83.85,6.69-29.46-.2-55.58-9.71-83.66-17-47-12.19-91.11.59-136.28,14.16-23.45,7-47.35,14.11-71.92,15.54-26.28,1.53-50.63-5.18-75-14.21-22.32-8.25-44.51-17.68-68.27-20.88-22.16-3-43.94.65-65.29,6.64-22.14,6.2-43.67,14.71-66.26,19.26-26.46,5.32-50.37,2.1-74.5-9.86-19.25-9.54-37.7-21.91-58.87-26.89-19.08-4.49-37.76-1-55.63,6.38-21.75,9-41.94,22.72-65.32,27.39-29.17,5.82-58.9-1.36-87.5-7a1518.09,1518.09,0,0,0-166.61-23.36C865,1077,749.42,1082,634.89,1089.85c-25.31,1.74-49.91,5.43-73.47,15.26-20.71,8.64-40.79,19.42-60.35,30.4-34.31,19.24-68.66,42.35-91.3,75.22A126.23,126.23,0,0,0,389,1262.4c-1,6.3,8.62,9,9.65,2.66,6.88-42.63,36.54-74.17,70.79-98.14,16.58-11.61,34.18-21.7,52.06-31.15,22.44-11.87,45.25-24.26,70.12-30.15,26.76-6.33,54.87-6.51,82.21-8,28.39-1.59,56.78-3.09,85.18-4.23,55.84-2.23,111.76-3,167.6-.27a1487.58,1487.58,0,0,1,167.28,17.56c27.22,4.43,54.13,10.53,81.33,15,22.46,3.69,45.63,5.42,67.83-.72,21.31-5.89,40-18.18,60.34-26.43,24.21-9.83,46.39-8.83,70,2.06,19.16,8.82,36.81,20.94,57,27.42,18.91,6.07,38.74,5.68,58.08,2,46.59-8.89,89.7-34.35,138.45-24.58,44.94,9,84.28,35.47,131.47,33.93,46.61-1.51,89.61-22.14,134.76-31.37,25.34-5.19,50-5.39,75.12,1.12,23.61,6.12,46.31,14.72,70.82,16.7,27.79,2.24,55.73-1.59,83.34-4.41l82.71-8.47q41.36-4.25,82.71-8.47c28.1-2.85,55.27-4.58,82.67,3.8,23.64,7.23,44.71,14,69.76,11.9s49.55-9.44,74.77-10.34,48,12.79,72.84,11.33c20.92-1.24,37.47-14.9,55.35-24.14,42-21.69,91.07-4.43,123,27,35,34.44,49.17,84.35,59.75,130.84,24.48,107.55,47.59,217,55.08,327.22q2.78,40.7,2.19,81.49h10q-7.71-100.6-19.17-200.86c-6.54-57-12.27-114.8-24.27-171-10.49-49.12-27.5-98.24-60.17-137.23-32.17-38.37-78.76-62.93-128.42-68.71-61.37-7.13-115,24.4-174.75,29.68-62,5.48-121.75-17.23-181.89-28.26-58.95-10.81-116-3.76-174.47,6.16-30.79,5.22-61.66,10.59-92.9,12.17-32.32,1.62-63.29-2.27-94.58-10.28-28.71-7.35-57.59-15.64-87.54-14-29.4,1.62-57.53,11-85.78,18.58-61.69,16.45-124.86,15.12-188,10.6-61.21-4.39-122.82-11.22-184.16-5-62.43,6.32-125.91,30.4-189.06,18.69-51.37-9.53-91.94-50.45-144.36-55.57-54.85-5.36-97.58,49-152.73,29.79-23.34-8.15-43.46-23.39-66.5-32.31-23.78-9.22-47.41-7.8-71.53-.53-29.91,9-56.82,20.52-88.65,21.08-30.35.53-60.74-4.14-91-.4-54,6.67-92.9,45.21-129,82.54C425.51,1208.87,387.87,1250.32,353,1294c-67.27,84.27-125.51,178.17-154.61,282.81a565.14,565.14,0,0,0-15.51,76.53c-.85,6.36,9.15,6.3,10,0Z" transform="translate(-35.85 -956.53)"/><path d="M326.27,1499.78c13.9-3,24.87,14.67,33.6,22.71A97,97,0,0,0,399,1543.93c31.42,8.94,64.38,3,93.58-10.47,15.35-7.06,28.58-16.86,42.92-25.57,7.08-4.3,15-7.68,23.36-5.06,7,2.2,12.65,7.47,17.92,12.35,10.79,10,22.06,18.83,35.37,25.24a148.78,148.78,0,0,0,41.4,12.79c33.24,5.25,67.53,1.14,99.37-9.36,6.08-2,3.63-11.17-2.66-9.64-30.71,7.43-65,15-96,5a71,71,0,0,1-21-10.84c-7.41-5.62-13.39-12.87-20.65-18.68-13.37-10.69-30-14.43-46.7-15.89-17.35-1.52-36.63-3.12-53.49,2.15-15.29,4.78-27,15.81-38.33,26.61-11,10.44-22.17,20.31-37.12,24.33a71.64,71.64,0,0,1-41.26-1.65,66,66,0,0,1-35.32-27.71c-8-12.8-15.6-28.45-32.45-29.84-6.42-.53-6.38,9.47,0,10,13.71,1.13,19.89,19.68,26.68,29.26a75.28,75.28,0,0,0,32.32,25.59c26.18,11.06,56.37,8.11,79-9.4,12.7-9.85,22.93-22.83,36.54-31.51,16-10.19,34.64-9.37,52.85-8.52,17,.79,35.06,2.55,49.2,12.87,7.59,5.54,13.58,13,20.92,18.85a81.28,81.28,0,0,0,20.06,11.75c34,13.93,73.19,5.52,107.46-2.77l-2.66-9.64c-28.45,9.38-58.83,13.63-88.7,10.1a141.35,141.35,0,0,1-42.36-11.58c-13.65-6.29-24.92-15-35.91-25.14-10.69-9.85-22.9-18.39-38.16-14.81-8,1.87-15.05,6.54-21.72,11.1-6.9,4.72-13.87,9.31-21.17,13.41-28.74,16.18-62.43,25.9-95.31,18.34-16.88-3.87-32.16-12-44.23-24.44-10.49-10.85-22.25-24.71-39.05-21-6.28,1.37-3.62,11,2.66,9.64Z" transform="translate(-35.85 -956.53)"/><path d="M751.53,1441.41c26.57,41.24,80.9,46.46,125.47,41.37,60.61-6.93,120.61-27,175.21-53.8,53.73-26.32,107.24-59.67,169.56-54,60.72,5.51,114.14,41.15,163.2,74.5,48.06,32.67,98.58,67.4,157,77.44a211,211,0,0,0,21.42,2.55c3.66.25,6.42-4.49,4.32-7.53-6.59-9.55-17.2-12.27-28.26-12.87-13-.71-25.46,0-38.22-3.57-27.89-7.9-51.13-26.86-74.28-43.47-48.28-34.66-100.8-65.94-158.46-82-27.72-7.69-56.71-11.61-85.48-9.91-30.4,1.81-59.54,10.2-87.44,22.11-57.11,24.37-107.75,62.5-167,82.15-48.86,16.21-108.55,18.21-150.73-15.9a109,109,0,0,1-13.62-13.21l-6,7.85c92.38,39.68,196.11,27.29,289.85-.75,50.62-15.14,99.78-34.65,149.32-52.93,41-15.15,92.43-36.75,131.65-5.93,29.93,23.52,47.44,66,87.7,74.51l1.33-9.82c-25.93-2.23-50.2-11-70.44-27.55-17.28-14.11-33-29.34-52.28-40.89-34.93-21-75.3-32.32-115.91-34.28a255.06,255.06,0,0,0-118.87,22.78,230.33,230.33,0,0,0-51.39,32.87c-9.46,7.94-18.52,16.44-28.83,23.31-10.66,7.1-22.43,11.82-34.74,15.17-13.27,3.61-26.89,5.84-40.44,8.15-13.74,2.34-27.54,4.46-41.45,5.54-27.1,2.12-55,.32-79.42-12.61-5.69-3-10.75,5.62-5.05,8.64,44,23.27,95.6,14.08,142.25,5.69,24.81-4.47,49.05-10.67,69.57-26,18.17-13.54,34-29.45,53.59-41.12,70.84-42.25,164.45-43.71,236.91-4.53a216.32,216.32,0,0,1,29,18.72c10.9,8.38,20.67,18.11,31.4,26.71,22.11,17.71,48,27,76.13,29.36,5.6.47,6.83-8.67,1.33-9.83-34.91-7.34-52.72-44.22-77.09-66.61-14.72-13.53-32.07-22-52.16-23.72-23.9-2-47.89,4.87-70.23,12.63-96.75,33.6-191.52,77.74-294.89,86.33-54.7,4.54-110.95-.69-161.77-22.51-5.11-2.2-10,3.35-6.06,7.85,33.58,38.51,88.89,48.93,137.45,40.89,61.17-10.12,113.73-45.59,167.59-73.89,27.3-14.35,55.62-27.26,85.8-34.18,28.77-6.6,58.74-7,87.82-2.16,58.9,9.79,113.09,38.31,162.27,71.13,24.1,16.08,46.56,35.08,72,49,12.08,6.6,25.09,12,38.72,14.29,12.13,2,24.49.18,36.55,2.18,5.31.89,10.48,2.76,13.65,7.34l4.31-7.52c-58.7-4-110.21-36.06-157.79-68-49-32.93-98.67-68.89-157.24-82.21a184.68,184.68,0,0,0-85.92.6c-28.44,7.07-55,20-81,33.21-27.64,14-55.14,28-84.19,39a573.87,573.87,0,0,1-90.32,25.83c-24.56,4.89-49.48,8.07-74.54,5.82-22-2-45-8.57-61.39-24.15a71.7,71.7,0,0,1-10.81-13.13c-3.48-5.4-12.14-.39-8.64,5Z" transform="translate(-35.85 -956.53)"/><path d="M1422.06,1354.58c37.41,9.86,75-3.12,107.76-21.17,33.29-18.35,62.8-43,97.34-59.14,16.72-7.82,34.77-13.57,53.32-14.33,17.75-.74,35.16,3.36,51.36,10.48,33,14.51,60.78,38.33,92.43,55.3A320.1,320.1,0,0,0,1949,1362.36v-10a228.27,228.27,0,0,1-159.22-57.15c-15-13.16-29.47-24.9-50.07-26.93-20-2-40.78,3-60.48,6-19.18,3-38.34,6-57.42,9.56-38.26,7-76.32,15.71-113.17,28.28-40.68,13.87-79.77,32.62-114.38,58.27l6.06,7.85c45.54-54,114.85-77.59,180.5-97,38.69-11.41,80-25.55,120.83-19.44,38,5.69,70.57,27.94,104.48,44.46,36.37,17.72,80.83,30.07,119,10.36l-6.84-6.85c-17.23,25.84-53.7,27.53-80.75,19.29-18.09-5.52-34.72-14.7-51.41-23.42-16.35-8.56-33-16.44-50.68-21.71a230.3,230.3,0,0,0-104.6-5.78,224.39,224.39,0,0,0-50.45,15.06c-17.45,7.5-33.37,17.68-49.14,28.17-33,22-75.84,49.83-116.8,31.52-5.83-2.6-10.92,6-5,8.63,36.12,16.15,75.1,1.22,106.58-18.3,16.78-10.4,32.7-22.19,50-31.8A210.94,210.94,0,0,1,1618,1291.1a220.07,220.07,0,0,1,109.93,1.19c18.68,5.09,36,13.11,53.09,22.06s34.36,18.37,53,24.17c31.88,10,72.88,6.38,92.88-23.62,3-4.41-2.68-9-6.84-6.84-34.62,17.9-76,5.66-108.86-10.35-33.93-16.53-66.48-38.56-104.33-45.06-41.14-7.06-82,5.4-121.16,16.82-33.73,9.84-67.39,20.3-99.45,34.83-35.07,15.88-68,37.27-93,66.91-3.37,4,1.16,11.48,6.06,7.85,62-46,137-68.41,211.87-83,19.07-3.72,38.22-7,57.4-10s39-7.23,58.61-8c10.27-.43,20.74.55,30.07,5.19,8.58,4.26,15.81,10.6,23,16.88,14.26,12.57,29.37,23.86,46.08,33a239.9,239.9,0,0,0,122.71,29.3c6.51-.22,6.36-9.47,0-10a307.22,307.22,0,0,1-111.72-31.18c-32.49-16.25-60.54-40-93.1-56-15.35-7.57-31.57-13.12-48.67-14.81-17.78-1.77-35.84,1.15-52.69,6.87-35.4,12-65.24,34.79-96.42,54.66-35.57,22.68-78.4,44.44-121.63,33-6.23-1.64-8.89,8-2.66,9.65Z" transform="translate(-35.85 -956.53)"/><path d="M1861.41,1540.78a389.26,389.26,0,0,0,94.5-5.78,379.28,379.28,0,0,0,46.72-11.77c15.11-4.85,29.89-10.76,45.21-15a163.28,163.28,0,0,1,92.31,1.46c28.66,9,54.33,25.84,83.44,33.58,27.07,7.2,58.21,6.15,80.2-13.06,3.74-3.26-.22-9.9-4.87-8.35-57,19-120.92,16.39-176-7.92-13.69-6-26.27-14.32-40.05-20.1s-27.78-6.9-41.88-2c-13.75,4.76-25.68,13.21-38.42,20a164.46,164.46,0,0,1-41.76,15.41,170.51,170.51,0,0,1-98.39-7.3c-6.07-2.35-8.46,7.21-2.66,9.64,30.79,12.87,63.25,26.17,97.29,24.58,28.51-1.32,54.56-13.78,80.12-25.33,24.63-11.12,51.65-23.1,79.34-18.91,16.08,2.44,30.49,10.28,45.19,16.74a172.74,172.74,0,0,0,145.51-1.85c5.81-2.77.74-11.39-5-8.64a164.18,164.18,0,0,1-89.4,14.51,159.44,159.44,0,0,1-44.38-11.94c-14.62-6.28-28.81-14.17-44.49-17.58-55.3-12-101.49,32.12-153.45,41.5-37.42,6.76-74.19-8.57-108-22.72l-2.66,9.64a178.59,178.59,0,0,0,87.41,10.17,176.78,176.78,0,0,0,43.38-11.33c13.63-5.55,25.83-13.32,38.69-20.34,13.58-7.41,27.69-12.13,43-7.54,14.79,4.43,27.77,13.8,41.71,20.25a257.1,257.1,0,0,0,86.66,22.71,254,254,0,0,0,100.92-12l-4.87-8.36c-19.35,16.91-47.66,16.7-71.19,10.3-28.22-7.69-53.25-23.79-81-32.84a172.43,172.43,0,0,0-89.43-4.47c-14.6,3.16-28.64,8.36-42.72,13.26a413.14,413.14,0,0,1-45.24,13.1,377.88,377.88,0,0,1-105.73,8.27c-6.43-.4-6.41,9.6,0,10Z" transform="translate(-35.85 -956.53)"/><path d="M2759.42,1412.86c-66.7,19.94-128.51-26.67-186.69-51.55-31.21-13.35-64.09-20.9-98.18-18.66-33.13,2.18-63.1,14.25-93.61,26.34-31.79,12.59-66.45,25.38-100.59,14.36-6.24-2-8.49,7.32-2.65,9.64,33.36,13.3,69.45,6.72,103-2.33,33.93-9.17,67-20,102.36-21.69,65.44-3.12,132.32,17.41,183.72,58.31,14.25,11.34,28.77,23.94,48.29,21.81,19-2.06,34.64-14.74,48.57-26.79,3.23-2.79.68-8.78-3.53-8.53a467,467,0,0,1-192.08-29.1c-29.32-11.06-58.67-29.93-91.05-28.87-16.34.53-32,5.71-47.33,10.81a423.49,423.49,0,0,1-44.34,12.5c-32.83,7.05-68.37,8.39-98.82-7.8-5.68-3-10.74,5.61-5.05,8.63,26.72,14.21,57.06,16.31,86.62,12.3a306.5,306.5,0,0,0,44.7-9.82c15.78-4.62,31.17-10.82,47.25-14.35,16.65-3.67,32.6-2.32,48.72,3,15.34,5.08,29.82,12.44,44.75,18.56a467.92,467.92,0,0,0,95.35,27.58,475.83,475.83,0,0,0,111.28,6.55l-3.54-8.54c-12.24,10.58-26.92,23.1-43.87,24.07-17.22,1-29.93-12.24-42.53-22a280.93,280.93,0,0,0-83.3-44,288.64,288.64,0,0,0-94.15-14.64c-33.52.42-65.23,8.25-97.26,17.44-37.19,10.68-77.42,22.25-115.1,7.23l-2.65,9.64c30.05,9.71,61.05,2.37,89.81-8.18,30.87-11.32,60.74-26.1,93.61-30.79,34.58-4.94,69,.78,101.22,13.71,31.11,12.49,59.87,30.08,90.84,42.9,34.17,14.15,72.56,22.74,108.9,11.88,6.15-1.84,3.53-11.5-2.66-9.65Z" transform="translate(-35.85 -956.53)"/><path d="M1816.2,1203.64q35,8.46,70.48,14.32c18.63,3.06,41.79,9.61,58.11-3.26,5-4-2.07-11-7.08-7.07-7,5.5-16.71,5-25,4.15-10.37-1.1-20.71-3-31-4.75q-31.62-5.44-62.81-13c-6.25-1.51-8.92,8.13-2.66,9.65Z" transform="translate(-35.85 -956.53)"/><path d="M1853.68,1206.43c31.12,19.19,67.69,2,100.73-.69,18.71-1.49,35.07,3.58,52,11,16,7,32.43,14.84,50.3,14.94,19.93.11,37.8-10.15,55.17-18.66,19.09-9.35,38.45-18.2,58.38-25.6,38.61-14.33,80.22-23.64,121.51-17.89s79.37,26.42,107.13,57.22c3.74,4.14,11.21-1.41,7.86-6.06a162.15,162.15,0,0,0-86.85-61.07c-39.46-11.14-81.47-5.41-119.47,8.44-19.43,7.08-37.89,16.26-55.94,26.31-17.61,9.8-35.12,20.2-54,27.31s-38.85,10.37-58.92,6.74c-20.38-3.69-39.34-12.4-58-21-37.78-17.51-83.8-37-123.8-14.39-5.07,2.87-1.57,10.34,3.85,9.14a310.9,310.9,0,0,1,133.93-.07c41.3,9.16,80.31,30.32,123.19,31.63,39.59,1.21,75.07-17.88,109.51-35,17.3-8.58,34.88-16.88,53.57-22a165.53,165.53,0,0,1,54.37-5.21c41,2.74,80.76,20.27,109.79,49.43,4.54,4.56,11.62-2.51,7.07-7.07a182.84,182.84,0,0,0-152.3-51.12c-19.06,2.58-37.08,8.7-54.63,16.44-35.72,15.75-70.07,39-109.66,43.68-44.16,5.21-84.94-16.73-126.5-27.66a322.11,322.11,0,0,0-151-2.78l3.85,9.14c34.66-19.57,76-3.06,108.88,12.15,17.66,8.17,35.38,16.74,54.25,21.81a116.13,116.13,0,0,0,56.75,1.38c37.94-8.73,69.81-33.19,104.61-49.38,36.81-17.11,78.48-28.37,119.26-22.34a151.28,151.28,0,0,1,99.58,60.5l7.85-6.06a188.12,188.12,0,0,0-92.28-56c-39.22-10.1-80.33-6.09-118.87,5-20.34,5.87-40.08,13.64-59.42,22.23-9.61,4.26-19.12,8.77-28.57,13.39-9.2,4.51-18.27,9.45-27.92,12.95-9.17,3.33-18.64,5.09-28.4,4-8.83-1-17.4-4.06-25.58-7.39-16.59-6.76-32.59-15.5-50.59-17.85-19.76-2.58-39.47,2.36-58.77,6-19.06,3.59-39.53,6.39-56.88-4.31-5.49-3.39-10.52,5.26-5,8.63Z" transform="translate(-35.85 -956.53)"/><path d="M1355.06,1212.63l-68.65-3.7c-21.41-1.15-43.49-.92-64.66-4.52-9.73-1.65-19.24-4.43-27.8-9.45-8.85-5.19-16.42-12.18-24.28-18.69a312,312,0,0,0-47.75-32.66,315.19,315.19,0,0,0-61.2-25.81c-5.76-1.75-8.19,6-3.85,9.13,37.94,27.51,76.46,54.61,121.49,69.15,22.73,7.34,46.25,11.87,69.83,15.44,22.75,3.45,45.71,6.86,68.67,8.55,25,1.84,50.37.29,73.38-10.5,5.9-2.77.75-11.11-5-8.64-18.82,8-39.71,5.83-59,.62-20.06-5.42-39.2-13.92-58.42-21.7L1143,1129.36l-70.28-28.43c-4.53-1.83-7.2,3.89-5.65,7.35,18.44,41,61.74,61,101.91,74.57,23.71,8,47.37,15.57,70.38,25.54,22.08,9.57,44.28,19.88,68.05,24.51,24.81,4.84,51.16,3.74,73.6-8.87,5.61-3.15.57-11.79-5-8.63-41.15,23.11-89,2.9-128.14-14.16-21.51-9.36-43.32-17.21-65.6-24.52-21.22-7-42.52-14.25-61.72-25.87-19-11.52-35.56-27.09-44.79-47.62l-5.65,7.35,129.46,52.36,64.73,26.18c19.8,8,39.52,16.8,60.21,22.3,21.9,5.82,44.6,7.17,65.8-1.85l-5-8.64c-20,9.36-42.25,10.69-64,9.43-22.3-1.3-44.6-4.67-66.69-7.93-23-3.39-45.94-7.6-68.21-14.33a286,286,0,0,1-61.79-27.42c-21.76-12.76-42.22-27.59-62.62-42.38l-3.85,9.14a301.72,301.72,0,0,1,105.21,56.47c7.82,6.51,15.43,13.4,24.11,18.77a83.63,83.63,0,0,0,26.65,10.41c20.67,4.42,42.39,4.23,63.42,5.36l77.6,4.18c6.43.35,6.41-9.66,0-10Z" transform="translate(-35.85 -956.53)"/><path d="M565.21,1265.59c57.37,31.67,124.85,14.2,181.2-10.37,15.49-6.75,30.71-14.09,46-21.26,7.79-3.65,15.6-7.26,23.47-10.72,7.69-3.39,15.75-6.88,24.2-7.65s16.21,2.3,23.66,6.25c7.72,4.1,15.35,8.4,23,12.61L935,1260.9c31.46,17.27,67.2,38.45,104.41,28.28,5.71-1.56,4.08-9.33-1.33-9.82-36.41-3.3-73.07-6.72-108.43-16.51a240.68,240.68,0,0,1-50.77-20.1c-15.87-8.61-31.05-18.53-48.52-23.67-33.2-9.76-69.12-4-100.8,8.44-16.56,6.49-32,15-47.35,24s-30.85,18.55-47.63,24.92c-29,11-70.19,11.83-88.94-17.7l-6.84,6.84c30.22,19.92,63.29,41,100.77,41.26,33.79.23,63.67-17.36,91.56-34.48,14.33-8.79,28.62-17.75,43.89-24.85a172.38,172.38,0,0,1,52.94-14.82c37.7-4.26,74.83,3.56,108.08,21.59,35.06,19,75.28,46.17,116.19,26.87,5.82-2.75.75-11.37-5-8.64-35.78,16.88-73.36-8.83-103.7-25.56-31.67-17.45-66.44-26.83-102.74-25.25a186.94,186.94,0,0,0-52.43,9.76c-15.95,5.47-30.85,13.36-45.31,22-27.51,16.37-54.77,36.38-87,42.07-41.54,7.34-79.11-16.74-112.2-38.55-4.17-2.75-9.47,2.7-6.84,6.85,16,25.12,47.52,32.77,75.55,28.86,35.87-5,65.51-28.62,96.76-45s68.19-27.73,103.79-22.22c18.86,2.92,35,11.33,51.4,20.69a269.18,269.18,0,0,0,49.94,22.56c39.89,13,82.07,16.88,123.64,20.65l-1.33-9.82c-32.65,8.92-64.66-9.69-92.32-24.87l-47.33-26-23.66-13c-6.56-3.59-13.31-7.37-20.65-9.12-15.88-3.78-31.07,3.17-45.28,9.5-15.16,6.76-30.1,14-45.14,21-29.46,13.72-59.71,26.68-91.86,32.51-33.68,6.1-69.78,4.16-100.22-12.64-5.64-3.11-10.69,5.52-5,8.63Z" transform="translate(-35.85 -956.53)"/></g></svg>