<svg xmlns="http://www.w3.org/2000/svg" viewBox="0 0 2859.9 2390.41"><g id="varm_ret" data-name="varm ret"><path d="M1722.06,711.41c-.68-32.37-31.51-52.54-56.65-67-28.13-16.22-64.64-32.47-96.78-18.11-28.84,12.88-38.38,44.82-40.77,73.86-1.42,17.19-.86,34.63,0,51.83,1,18.88,3,37.86,7.89,56.15,8.61,32.15,27.09,59.8,51.85,81.8,24.18,21.48,52.56,37.64,81.41,51.94,33.13,16.41,67,32.15,101.69,44.93,36.42,13.41,75.23,22.89,114.29,20.31,36.24-2.4,70-15.93,103.9-28,32.41-11.54,67.4-23,102.19-16.81,62.47,11.09,97.85,71.62,137.39,114.86,10.11,11,21.28,24.31,35.26,30.43,18.09,7.93,33.25-3.87,49.68-10,33.9-12.65,72.58-6.42,103.86,10.51,31.58,17.08,56.71,44,77.22,73.06a443.78,443.78,0,0,1,51.82,97.32,454.57,454.57,0,0,1,30.39,162.27q0,13.56-.75,27.1c-.55,9.53-2.47,19.42-1.55,29,1.68,17.44,17.06,25.93,28.2,37.34a128.91,128.91,0,0,1,24.8,36.66,141.41,141.41,0,0,1,9.52,87.39,126.84,126.84,0,0,1-16.27,40.37c-3.41,5.48,5.24,10.51,8.63,5,30.76-49.49,26.41-117.31-8.56-163.59a131.45,131.45,0,0,0-14.81-16.64c-5.56-5.23-12.14-9.68-16.85-15.75-6.57-8.44-4.73-18.67-3.9-28.59q1.13-13.52,1.43-27.07a464.47,464.47,0,0,0-10.23-107.18c-14.79-69.34-45.42-137.35-91.06-191.94-22-26.36-49.09-49.29-81.39-61.87-31.9-12.43-68.5-14.2-100.17-.16-8.18,3.63-16.48,9.17-25.67,9.62-9.43.46-17.28-5.48-23.9-11.51-11.17-10.17-21.26-21.51-31.07-33-19.52-22.81-37.83-47-60.29-67.08-22.17-19.84-48.26-34.26-78.18-37.52-34-3.71-67.62,7.12-99.26,18.41-33.57,12-67.33,25.66-103.35,27.5-39,2-77.27-8.19-113.41-21.89-34-12.89-67.32-28.38-99.76-44.77-28.6-14.44-56.82-30.89-80.07-53.2a158.25,158.25,0,0,1-46.77-87c-3.48-18.76-4.39-37.91-4.78-57-.32-15.58-.39-31.31,2.29-46.71,2.45-14.13,7.07-28.65,16.92-39.43,11.19-12.26,27-17.35,43.33-16.32,17.65,1.11,34.69,8.26,50.19,16.35,14.38,7.51,28.91,16,41.17,26.69,11.17,9.77,20.6,22,20.92,37.43.14,6.43,10.14,6.45,10,0Z" transform="translate(-60.38 -244.13)"/><path d="M1744.93,689.82c-12.5-31.87-39.62-54.77-70.19-68.79-33.71-15.46-73.74-22.72-105.31,1.31-28.2,21.46-42.53,57.41-45.62,91.86a156.44,156.44,0,0,0,26.93,102.56c37.17,53.44,100.56,77.76,158,102.79,14.89,6.5,29.72,13.12,44.23,20.44,16.12,8.14,31.41,17.53,46.67,27.15,16.26,10.25,32.84,20.27,51.08,26.61,19.06,6.62,39.5,8.4,59.54,6.77,72.77-5.89,140.26-51.78,214.94-37,14.83,2.93,29.23,8.39,41.41,17.5s20.53,21.5,27.18,35c12.07,24.52,20.47,56.88,47.12,69.89,18.06,8.82,37.92,5.23,56.8,1.5,19.09-3.77,38.34-6.48,57.81-6.94,38.42-.91,77.15,7.48,107.5,32.17,27.52,22.38,46.28,53.32,62.57,84.34,18.33,34.9,38.82,71.71,44.92,111.13,6.3,40.69-12.46,77.79-15.91,117.65-1.47,17,.94,33.86,8.11,49.45,6.09,13.24,15.13,24.94,24.64,35.89,18.71,21.55,42.58,41.51,53.06,68.81,13,33.77-4.84,66.56-14.25,98.7-4.7,16.07-7.16,32.57-3.84,49.16,1.27,6.3,10.91,3.63,9.65-2.66-7-35,15.22-67.71,21.4-101.12,2.83-15.24,2.49-30.79-2.84-45.47-4.8-13.21-12.6-24.87-21.39-35.74-18-22.23-40.81-41-54.67-66.41-18.62-34.07-6.64-70.43,1.57-105.65,4.46-19.12,7.35-38.45,5.09-58.09s-8.28-38.37-15.87-56.5c-7.38-17.63-16-34.73-24.64-51.77-8-15.86-16.4-31.58-26-46.58-18.49-29-42.08-55.68-73.49-70.84-33.53-16.18-71.72-18.77-108.28-15-19.36,2-38.24,7.21-57.54,9.15-17.57,1.78-33.28-2.5-44.9-16.12-18.9-22.16-23.46-53.13-41.55-76-40.25-50.89-116.93-41.68-171.66-25.3-39,11.69-78.49,27.17-119.78,27.46a132.12,132.12,0,0,1-57.84-12.65c-17.38-8.21-33.29-19.09-49.6-29.17-55.1-34.07-118.71-51.25-173.59-85.6-26.31-16.48-50-37.63-65.16-65-18.1-32.56-22.74-72.25-13.18-108.2,8.6-32.34,30.49-66.28,65.63-72.93,20.07-3.8,41,1.8,59.55,9.33,15.66,6.35,30.7,15,43.44,26.2,12.36,10.83,22.59,24,28.62,39.42,2.33,5.93,12,3.35,9.65-2.66Z" transform="translate(-60.38 -244.13)"/><path d="M1927.25,978.6c64.54-42.18,104.91-110.24,128.58-182.21,12.14-36.95,20.18-75.17,25.42-113.67,6.22-45.77,9.21-93.84-8.79-137.49-16.49-40-46.21-73-76-103.66a695.84,695.84,0,0,0-95.76-82.63c-68.28-48.43-147.72-82.11-232.06-86.07-95.9-4.5-189.16,27-276.17,64.13q-16.62,7.1-33.1,14.51l6.06,7.85a52,52,0,0,1,37.72-20.29c4.2-.27,6.76-5.33,3.54-8.53-41.46-41.19-105.94-35.59-159.19-29.78-31,3.38-63.29,7.74-90.46,24.29-21.71,13.22-37.72,34.07-46.71,57.69-10.26,27-10.81,57.77.2,84.59l1.29-4.87c-61.07,48.1-118.64,108.38-135.42,186.86-8.09,37.83-5.93,77.18,9.49,112.88,15.35,35.53,42.5,67.83,43.92,108,.59,16.5-3.13,34-14.73,46.33-11.2,11.94-27.8,17-38.85,29.14-11.88,13-12.36,30.28-5.71,46,7.47,17.66,21.83,30.19,32.46,45.76,10.48,15.35,13.58,32.42,4.75,49.33-8.13,15.57-21.75,27.67-34.35,39.57a298.44,298.44,0,0,0-64.25,87.8c-16.33,33.7-27.75,69.54-37.54,105.61q-3.57,13.2-6.92,26.46c-2,7.91-5.51,16.67-5.23,24.92.2,5.72,3.8,13,10.57,12.36,5.38-.47,8-6.49,6.88-11.32-1.27-5.67-6.74-6.77-11-3.37-5,4,2.1,11.07,7.07,7.08-1.06.85-5.79-3.13-6-.89l2.84-1.71-.38-1.33a14.88,14.88,0,0,0,0-2.31c.14-4.13,1.72-8.32,2.72-12.29q3.2-12.76,6.53-25.49c4.41-16.72,9.1-33.38,14.4-49.84,10.61-32.93,23.73-65.24,42.19-94.62a254,254,0,0,1,31.92-41.1c11.28-11.71,23.85-22.1,34.64-34.29,9.9-11.18,18.75-24.14,20.85-39.25,2.29-16.37-4.25-31.3-13.84-44.21-10.31-13.86-23.74-26-29.93-42.56-3.17-8.44-4.41-17.87-.39-26.27,3.34-6.94,9.52-11.88,15.8-16.05,12.36-8.23,25.2-15,33.79-27.55,8.41-12.35,11.73-27.65,11.74-42.42,0-35.73-19.41-65.88-35.54-96.37-9-17-16.31-34.4-19.88-53.31a178.49,178.49,0,0,1-1.43-54.2c9-74.93,58.87-135.53,114.47-182.82,7-6,14.16-11.77,21.39-17.47a4.79,4.79,0,0,0,1.29-4.86c-18.21-44.3-2.8-100.19,36.89-127.73,24.59-17.06,55.12-22.15,84.24-25.49,26.27-3,52.84-5.75,79.31-4.21,28.92,1.7,57.94,9.45,79,30.37l3.53-8.54a61.56,61.56,0,0,0-44.79,23.22c-3.53,4.5.72,10.24,6.06,7.85,84.58-37.87,173.83-73,267.47-77.26,84.26-3.85,164.9,21.79,236,66.17,34.79,21.73,67,47.34,96.92,75.4,30.08,28.24,60.23,58.79,82.38,93.79,11.79,18.64,20.62,38.76,25,60.42,4.66,22.85,4.67,46.42,2.88,69.58a641,641,0,0,1-20.27,116.59c-19.07,70.9-52.38,140.92-110,188.53A248.65,248.65,0,0,1,1922.2,970c-5.37,3.51-.36,12.17,5,8.64Z" transform="translate(-60.38 -244.13)"/><path d="M799.87,1492.09a111.84,111.84,0,0,1-18.69,57.61c-11.21,16.81-28.55,28.23-37.87,46.46-17.74,34.69-11.82,74.66-18.16,111.86-3.45,20.27-10.44,40.2-26.17,54.2-4.82,4.28,2.27,11.33,7.07,7.07,29.52-26.25,30.75-68.53,32.91-105.07,1.17-19.82,2.86-40.45,11-58.83,8.55-19.34,26-31.06,38-47.94a121.38,121.38,0,0,0,21.92-65.36c.25-6.43-9.75-6.42-10,0Z" transform="translate(-60.38 -244.13)"/><path d="M1925.29,991.44c73.39-55.62,126.13-136.58,148.41-225.88a398.5,398.5,0,0,0,10.9-68.75c1.68-24.18,2.18-49.67-4.42-73.21-6.89-24.56-23.11-43.74-40.85-61.39-20.59-20.49-41.5-40.64-62.26-61l-126.79-124c-35.55-34.78-70.65-71.15-112.63-98.33-40.11-26-85.75-40.15-133.64-32.87-51,7.74-96.35,35.32-141,59.37-45.45,24.48-95.7,46.87-148.35,46.33-26.67-.27-50.75-7.94-74.09-20.46-20.88-11.2-41.83-23.67-66.1-24.79-20-.93-40.82,6.44-51.14,24.59-11.07,19.49-6.12,43.05-2.65,63.9,1.91,11.45,3.76,23,3.07,34.69a71.48,71.48,0,0,1-10.31,32.14c-12.41,21-32.24,36-52.34,49-20.61,13.4-42.32,25.67-60.09,42.89a136.26,136.26,0,0,0-33.08,52.06c-13.78,38.41-11.4,83,7.87,119.07,10.8,20.25,27.44,35.84,43.6,51.77,16.54,16.31,32.43,33.7,37.17,57.18,4.31,21.37-2.44,41.76-22.88,51.44-10.37,4.91-21.68,7.57-31.7,13.28a80.19,80.19,0,0,0-19.66,15.85c-23.13,25.59-31,64.64-20.11,97.32,6,17.9,17.22,30.62,31.39,42.59,7.41,6.26,16,13,20,22.09,5.28,12-2,24.19-8.34,34.27-25.88,41.44-70.16,66.38-101,103.56-14.65,17.68-27.23,38.13-31.66,61a99.27,99.27,0,0,0-.37,34.51c2.16,13.71,6.62,27,8.2,40.81,2.06,18.06-3.21,42.77-23.73,47.51-5,1.15-4.52,8.24,0,9.64l13.89,4.29c6.17,1.91,8.8-7.74,2.66-9.64L859.43,1398v9.64c18.71-4.32,28.74-22.68,31-40.53,3.23-25.06-9.55-48.68-9.6-73.55-.1-49.32,41.14-85.92,75.16-115.83,17.64-15.51,35.29-31.2,49.57-50,12.53-16.48,27.16-38.61,15.26-59.15-9.76-16.84-28.91-25.26-39.82-41.18-9.76-14.25-14-31.51-13.54-48.66a92.52,92.52,0,0,1,15.32-48.84,73.69,73.69,0,0,1,17.65-18.53c8.51-6.18,18.19-9.49,27.93-13.19,19.48-7.4,34.88-19.31,38.53-40.87,3.25-19.18-2.35-39.71-12.87-55.84-13.1-20.09-32-35.25-48.26-52.61-14.91-15.93-25.93-34.21-31.71-55.33-10.75-39.34-3.7-83.53,20.15-116.8,28.22-39.37,78.15-53.84,111.12-88.23,15-15.66,26.49-35,28.29-57,1.87-22.89-6.11-45.06-7-67.77-.42-10.71.95-21.62,7.22-30.61s15.94-13.9,26.4-15.83c24-4.41,46.37,6.92,66.81,18,22.14,12,43.9,22.07,69.17,25.19,24.59,3,49.64.16,73.58-5.83,50.22-12.57,94.29-39.23,139.7-63,44.51-23.29,93.71-44.12,145-36,46.62,7.37,86.89,35,121.86,65.26,40.6,35.14,77.95,74.26,116.31,111.79L2016.9,554.21c18.16,17.77,38.41,35.47,49,59.09,10.55,23.46,10.36,50.72,9.12,75.93-4.53,91.68-43,181.2-105.22,248.52a381,381,0,0,1-49.59,45.06c-5.06,3.84-.08,12.52,5,8.63Z" transform="translate(-60.38 -244.13)"/><path d="M797.47,1516.72c-18.94-2.46-37.89,6.88-49.33,21.81C734.72,1556,736,1576.6,742.6,1596.6c6.74,20.42,15.64,40.25,7.13,61.63a55.34,55.34,0,0,1-18.93,24.36c-7.92,5.64-18,7.4-25.52,13.53-9.44,7.68-9.68,20-5.69,30.61,4.25,11.34,15.47,23.19,11.89,36-1.74,6.21,7.91,8.86,9.64,2.66,3.09-11.05-1.53-21.37-6.73-31-4.18-7.73-11.33-19.65-5.16-28.17,5.22-7.21,16.92-8.83,24.19-13.4a65.16,65.16,0,0,0,20.18-20.33c10.75-17,11.94-36.61,6.41-55.64-5.58-19.18-17.35-39.65-10.61-60,6.53-19.72,27.63-32.8,48.07-30.14,6.37.83,6.31-9.18,0-10Z" transform="translate(-60.38 -244.13)"/><path d="M1041.66,1667.41l-16.17-71.29c-4.93-21.78-8.49-44.67-17.16-65.36-8.17-19.51-22.77-33.34-38.39-47q-26.07-22.83-53.49-44.07c-17.61-13.65-35.74-26.52-53.87-39.48-16.21-11.59-32.37-24.44-41.73-42.46-5.25-10.09-8.3-21.12-12.56-31.62A164.06,164.06,0,0,0,794,1298.73c-11.49-17.76-25.69-33.78-40.51-48.83a452.61,452.61,0,0,0-97.79-75.26c-39.33-22.47-82.56-36.38-122.8-56.93-75.14-38.36-132.29-102.21-201.43-149.31-64.22-43.76-150.53-76.31-226.7-44.43-16.55,6.93-33.21,18-39.63,35.6-5.32,14.59-2,33.44,11,42.93,14.28,10.41,34.49,3.32,47.85,15.68,10.12,9.36,14,23.81,17.76,36.59,4.16,14.18,7.95,29,16,41.59,9,13.94,22.89,22.25,38.17,27.88,16.19,6,33.52,9,49.12,16.51,18.52,8.93,31.61,25.15,47.94,37.17,32.47,23.91,73.68,29.7,109.3,47.2,20.07,9.86,37.94,23.44,57,35,19.45,11.81,40.49,19.95,61.7,28,41.12,15.54,79.12,36.24,115.17,61.34,36.85,25.65,71.48,54.39,106,83.06,35.72,29.69,71.67,59.44,105.6,91.17,15.79,14.76,31,30.3,44.27,47.36,13.64,17.47,24.87,36.67,34.71,56.49s18.21,40,26.61,60.35c2.42,5.86,12.1,3.29,9.64-2.66-16.63-40.23-33.48-81-59.86-116-26.15-34.69-59.28-63.1-92-91.35q-52.51-45.33-106.48-89c-33.07-26.62-67-52.45-103.65-74a457.23,457.23,0,0,0-56.51-28.31c-21.07-8.73-43-15.55-63.4-25.78-19.54-9.77-37-22.94-55.66-34.29-17.37-10.6-35.9-18.22-55.07-24.89-18.87-6.56-38.12-12.54-55.8-22a135.24,135.24,0,0,1-24.64-16.91c-7.66-6.62-14.89-13.71-22.9-19.92-14.16-11-30.49-16.59-47.5-21.58-15.66-4.6-32.75-9-45.06-20.35-21.69-20-20.24-53.51-34.29-78-7.63-13.3-19.42-20.78-34.57-22.72-9.18-1.18-19.93-1-26.62-8.42-5.12-5.69-6.84-13.85-6.11-21.31,1.86-18.87,20-30.74,36-37.38a159,159,0,0,1,57-11.69c40-1,79.48,11.19,115,28.86,74.07,36.85,130.55,99.34,197.78,146.26a418.69,418.69,0,0,0,53.42,32c20.38,10.11,41.52,18.53,62.42,27.47,38.74,16.56,75.55,36.59,108.83,62.59a444.78,444.78,0,0,1,45.53,40.91c14.54,15,28.49,30.89,39.34,48.79a164.23,164.23,0,0,1,13.73,29c3.63,10,7,20.15,12.44,29.33,10,16.94,25.51,29.48,41.23,40.82,36.09,26,71.63,52.31,105.21,81.58,16.39,14.28,32.06,28.37,39.85,49.24,7.7,20.64,11.27,43,16.12,64.43l15.3,67.44c1.42,6.27,11.06,3.62,9.64-2.66Z" transform="translate(-60.38 -244.13)"/><path d="M914.75,1584c24.1,37.93,39.7,81,44,125.78.61,6.35,10.62,6.42,10,0A297.06,297.06,0,0,0,923.39,1579c-3.44-5.42-12.1-.41-8.64,5Z" transform="translate(-60.38 -244.13)"/><path d="M903.38,1567.48c.73,1,1.46,2,2.18,3a5.45,5.45,0,0,0,3,2.3,5.08,5.08,0,0,0,3.85-.51,5,5,0,0,0,2.3-3,4.92,4.92,0,0,0-.51-3.86c-.72-1-1.44-2-2.17-3a5.41,5.41,0,0,0-3-2.3,5.12,5.12,0,0,0-3.85.5,5.06,5.06,0,0,0-2.3,3,4.88,4.88,0,0,0,.5,3.85Z" transform="translate(-60.38 -244.13)"/><path d="M1024.78,1670c13.74-36.9,25.44-78.3,6.74-115.72-7.82-15.67-20.89-25.38-36.58-32.41-16.13-7.23-31.92-13-45.17-25.2-14.75-13.6-25.65-31-36.51-47.68-12.13-18.66-23.42-37.85-35.5-56.54-23.34-36.15-52.11-68.5-83.07-98.3-30-28.93-62.33-55.36-95.78-80.25-18-13.43-36.63-26-55.22-38.64l-27.1-18.45c-8.69-5.91-17.72-10.63-26.38-16.6-18-12.39-35.9-24.36-52.6-38.5-16.21-13.73-30.57-29.51-46-44.06-15.59-14.69-32.1-27.84-51.71-36.77s-41-13.58-62.07-18.26-43.77-8.4-63-18.71c-16.58-8.87-30.41-21.7-43.42-35.09-13.66-14.08-26-29.19-43.84-38.14-19.11-9.58-39.58-10.27-60.51-9.22s-42.05,4-62.13,10.25c-9.36,2.92-19,6.06-26.75,12.25-7.55,6-13.73,14-16.26,23.4-2.2,8.21-2.18,17.17,1.44,25,4.18,9,13.43,15.06,20.91,21.17,16.78,13.7,34.28,26.47,51.79,39.21,6.9,5,17,10.72,21.2,18.48,4.56,8.36,1.39,19.31-.52,27.94-3.47,15.65-2.85,31.67,6.28,45.35,18.38,27.54,53.21,34.77,83.82,38,22.08,2.37,44.92,4.25,65.58,13,19.16,8.13,35.79,21.26,51.83,34.24,8.34,6.75,16.6,13.59,25,20.32a276.76,276.76,0,0,0,27.35,19.25c18.95,11.84,39.43,18.66,60.75,25,10.77,3.2,21.09,6.39,31.16,11.4,9.22,4.59,18.63,8.67,27.66,13.63,17.44,9.56,34.24,20.31,52.77,27.74,20.36,8.17,42.54,9.47,63.18,16.61,15.21,5.26,26.29,17,34.75,30.3,8.64,13.56,15.15,28.34,23.44,42.12,9.42,15.66,23.06,28.11,38.36,38,18.21,11.74,38.28,21.13,58,30.07,18.77,8.52,36.6,21,52.08,34.51,7.67,6.69,14.78,14.13,22.09,21.22,8.21,8,15,17.68,22,26.75,3.88,5,12.57,0,8.64-5.05-6.75-8.77-13.27-18.29-21-26.2-7.12-7.27-14.5-14.68-22.07-21.48a261.09,261.09,0,0,0-49.46-34.72c-9.58-5.23-19.76-9.38-29.54-14.24q-13.83-6.87-27.28-14.48c-16.79-9.51-31.46-21.48-42.13-37.69-16.71-25.36-25.48-57.44-53.49-73.45-17.41-9.95-38.75-11.41-57.88-16.35-19.78-5.1-37.34-15.11-54.92-25.21-8.51-4.89-17-9.76-25.89-14-9.06-4.31-18.19-9.51-27.63-12.89-20.32-7.28-41.59-11.5-61.32-20.5-39.56-18.05-68.06-53-105-75.11-17.91-10.71-37.33-16.36-57.88-19.35-18.86-2.74-38.33-3-56.85-7.72-28.23-7.16-58-26-54.06-59,1.14-9.47,4.75-18.5,4.42-28.17-.3-8.78-3-16-9.4-22.12-6.92-6.57-14.94-12-22.63-17.56-8.59-6.25-17.16-12.52-25.63-18.93s-17.07-13.17-25.34-20.08c-7.39-6.17-15.3-11.7-15.95-22.1-.61-9.74,3.5-18.39,10.28-25.17,7.62-7.62,17.63-10.89,27.72-14,20.14-6.17,41.15-9,62.16-9.79s40.86.63,59.08,12c16.18,10.13,27.9,26.08,41.39,39.34C284,975.35,298.19,987.2,314.68,995c19.18,9.09,40.82,12.84,61.41,17.43,20.93,4.66,42.4,9.13,61.84,18.49,38.5,18.54,63.82,54.14,96.18,80.79,8,6.56,16.15,12.85,24.47,19,8.66,6.37,17.74,12,26.59,18.13,4,2.73,7.91,6.09,12.29,8.09a90.37,90.37,0,0,1,13.3,8l27.12,18.46c35.31,24,70,48.61,102.89,76,31.73,26.4,61.72,54.88,88.86,86a454.64,454.64,0,0,1,39.5,52.15c11.73,18.16,22.72,36.79,34.46,55,10.49,16.22,21.07,33,34.62,46.93a108.65,108.65,0,0,0,20.9,17c7.08,4.3,14.88,7.41,22.5,10.61,14.93,6.25,30.14,13.06,38.71,27.59,10.32,17.5,12.67,38.07,10.16,58-2.38,18.88-8.74,37.09-15.34,54.83-2.25,6,7.42,8.65,9.64,2.66Z" transform="translate(-60.38 -244.13)"/><path d="M904.63,1556.52c-12.26,9.14-24.17,19-37.59,26.45-13.75,7.61-28.7,12.33-43.56,17.23-26.19,8.65-52.49,17.74-76.57,31.39-42.29,24-79.45,64.85-81.28,115.73-1.82,50.29,34.72,94.17,79.13,113.41,23.91,10.37,50,14.69,76,14.53,28.25-.18,58.43-11.46,86.3-4.76,27.1,6.52,44.36,31.72,64.85,48.57,19.58,16.12,42,23.72,67.37,22.4,27.18-1.41,53.16-10.64,79.29-17.44,31.36-8.15,61.4-10,93.34-3.66,57.43,11.36,111.62,39.9,171.09,40.26,59.11.37,107.73-36.24,164.15-47.54,62.66-12.56,121.41,20.31,181.21,32.86,26.66,5.59,54.48,7.24,80.95-.23s49.68-22.68,75-33c59.89-24.57,118.53.84,177.1,16,26.18,6.79,53.48,11.64,80.54,7.91,28.14-3.88,53.17-16.27,77.93-29.53,26.21-14,54-29.64,84.52-29.87,29.4-.22,56.62,13.7,85.67,16.38,29.87,2.76,51.52-12,77.34-24.16,26.74-12.58,55.43-20.42,82.76-31.53,23.25-9.45,45.65-21.11,64.48-37.91a125.91,125.91,0,0,0,23.5-27.66c6.83-11.07,9.9-22.91,14.24-35,2.34-6.5,5.45-14.61,12-18.06,7.79-4.1,16.85.31,25-.06a31.5,31.5,0,0,0,23.5-12.73c14.89-19.45,6.56-44.26-6.48-62.15-32-43.93-82.88-71.88-132.06-92.16-27.06-11.15-54.94-20.42-82.71-29.62-11.35-3.77-24.18-7.46-36.17-4.55-13.78,3.36-22.73,16.42-38,15-14.68-1.38-27.8-12-38.67-21.06-10.19-8.45-20.06-17.13-31-24.56-21.7-14.65-46.05-25.31-71.17-32.56-57-16.45-117-14.8-175.24-6.79-30.48,4.19-60.68,10.07-90.87,16-6.31,1.24-3.64,10.88,2.66,9.65,109.78-21.45,237.53-44.35,335.25,26.35,19.9,14.39,37.72,36.43,62.71,42a39,39,0,0,0,28.56-4.36c5.72-3.23,10.57-7.69,17-9.57,8.36-2.43,17.22-.36,25.37,2,26.57,7.58,53.07,17.39,78.79,27.45,26,10.18,51.53,22,75.13,37.07,23,14.62,45.54,32.76,61.79,54.84,8.62,11.71,16.41,26.84,11.94,41.72-1.74,5.79-5.31,11.4-10.44,14.76-7.65,5-15.27,2.66-23.66,2-26.51-2.08-30.89,23.62-38.1,43.18-8.87,24-28.16,42.85-49.3,56.55-23,14.91-48.94,24.16-74.64,33.27a617.72,617.72,0,0,0-74.74,32.06c-13.27,6.75-26.37,11.36-41.41,11.09-15.82-.28-31.21-4.79-46.38-8.87-26.19-7-51.14-10.77-77.68-3.14-52.26,15-93.71,55.89-150.53,56-58,.1-111-30.37-168.33-35.56a157.63,157.63,0,0,0-76.14,12c-24,10.2-46.41,24.53-71.68,31.67-58.58,16.54-117.06-13.38-172.82-27.58-25.6-6.52-52.15-10.47-78.53-6.87-26.75,3.66-51.79,14-76.57,24.22-25.8,10.65-52.13,21.57-80.2,24.17-29.91,2.76-59.72-3.65-88.3-11.88-52.59-15.13-105.71-38.06-161.59-30.49-50.62,6.85-110.6,42.8-159.33,11.9-20.94-13.28-35.55-34.28-56.16-48-21.29-14.22-44.28-13.75-68.7-10.36-53.72,7.46-112,5.19-153.7-34.34-19.44-18.44-33.6-43.81-35.06-70.92-1.5-27.72,9.84-54.78,27.36-75.88,34.95-42.08,87.45-57.78,137.23-74.84,26.37-9,47.18-23.48,69.37-40,5.1-3.81.12-12.49-5-8.64Z" transform="translate(-60.38 -244.13)"/><path d="M914,1571.82c-37.32,10.74-75.32,18.47-112.9,28.13-33.12,8.52-55.87,30.92-78.37,55.55-21.58,23.62-44.76,51.09-51.85,83.13a83.41,83.41,0,0,0,2.8,46.29c5,14,12.46,23.91,22.25,34.53,41.88,45.4,107.93,43.58,158.85,72.71,14.68,8.39,28.82,17.67,45,23,16.92,5.63,33.5,6,51,3.7,38.51-5.13,76.54-8.79,115.4-7.27,38.45,1.5,77.58,6.59,114.68,17.15,17.88,5.09,34.8,12,53.28,15.1a146.53,146.53,0,0,0,50.82-.14c18.16-3.32,35.65-9.45,53.5-14.06a351.18,351.18,0,0,1,60.76-10.3c37.93-2.93,76,.08,113.65,5.07,75.95,10.06,153.53,32.15,229.14,9.5,18.65-5.58,37.14-12,55.93-17.13,19-5.15,39.57-6.59,59.16-5.55,38.53,2,75.92,13.18,113.88,19.22,35.7,5.67,71.34,3.07,104.87-10.69,15.81-6.48,31-14.42,46.89-20.72,18.55-7.34,39-7.88,58.65-5.26,35.34,4.74,70.23,16,105.5,4.08,34-11.51,59-40.24,92.91-51.73,20-6.75,38.07-5.54,58.12-.14,17,4.58,32.56,8.8,50.26,8,14.27-.62,25.57-8.06,34.84-18.6,5.32-6,9.94-12.68,15.56-18.47,6.93-7.12,15.32-12.29,24.07-16.88,30.89-16.21,67.22-20,95-42.41a86.88,86.88,0,0,0,32.39-76.41c-6.35-67.78-64.77-108.42-122.28-132.89-15.64-6.66-32-14.54-48.6-18.52-16-3.83-27.35,2.18-41.35,9-37.38,18.25-63.63-28.81-89.16-48.2-28.71-21.81-63-27.36-98.36-25.75-38.2,1.73-76.26,7.25-114.58,5.17-74.41-4-140.91-48.83-216.52-45.32-38.86,1.8-75.5,16.11-114.71,15.43-39.53-.69-78.22-8.59-117.22-14.14-36-5.12-74.11-5.32-109,6.09-35.67,11.67-67.55,32.59-102.86,45.17-18.08,6.44-36.44,9.52-55.59,7.46s-37.11-6.42-55.54-11.66c-33.49-9.53-69.63-15.42-102.86-1.85-16.17,6.61-30.24,16.63-45.6,24.76-17.58,9.31-37,15.15-57,15.66-37.48,1-74.45-12.72-111.79-3.94-17.38,4.09-30,14.69-44.85,23.84-15.69,9.66-33.64,9-50.9,4.63-6.24-1.58-8.91,8.07-2.66,9.64,13.87,3.49,28.48,5.13,42.5,1.38,16.18-4.34,28.11-16.68,42.71-24.25,34.26-17.76,75.81-3.42,111.86-1.53,36.28,1.9,66-10.88,96.4-29.3,15.83-9.6,33.12-17.07,51.73-18.61,19.21-1.58,38.31,1.6,56.88,6.3,32.17,8.13,64.74,19.34,98.44,14.48,34.07-4.92,65.25-23.19,96-37.62,17.42-8.18,35-15.7,54-19.66s38.41-4.9,57.71-3.95c37.46,1.85,74.27,10.89,111.55,14.78,18.87,2,38.13,3.28,57.08,1.95,17.85-1.25,35.34-5.45,52.8-9.09,37.39-7.8,72.49-7.12,109.56,2.23,34.84,8.79,68.31,22.3,103.23,30.78,35.66,8.66,72.44,7.38,108.75,4.78s75.18-8.91,110.53,2.57c17,5.53,31.95,16.12,44.91,28.27,11.51,10.78,21.68,23.64,34.46,33,11.4,8.33,25.91,13,40,10.16,17.73-3.58,28.85-17.83,48.44-12.55,17.35,4.66,34.66,12.62,51.06,19.86,15.75,7,30.9,14.7,44.85,24.69,6.56,4.69,13.61,8.17,19.82,13.53a137.21,137.21,0,0,1,41.58,61.62c9.82,30.79,4.74,62.78-19,85.74-26.16,25.35-64.62,28.53-95.92,44.52-14.36,7.33-26.28,16-36.51,28.52-5.24,6.42-10.21,13.31-16.85,18.37-7.85,6-15.94,7.33-25.62,7.54-18.12.38-35.35-7.17-52.84-10.94a94.08,94.08,0,0,0-48.2,2c-32.37,9.86-56.58,34.68-86.8,48.88-36.14,17-73.12,4.9-110.37-.24-16.3-2.25-33.57-2.6-49.71,1s-31.19,12-46.08,18.74c-15.67,7.12-31.68,13.8-48.67,17-19,3.56-39.47,3.36-58.55,1-36-4.5-70.9-15-106.92-19.14a233,233,0,0,0-54.86.21c-18,2.16-34.85,7.83-52.08,13.14-18.27,5.64-36.61,12.18-55.48,15.48s-38.18,3.55-57.26,2.33c-74.73-4.79-147.54-25.48-222.77-25.61a392.28,392.28,0,0,0-109,15.61c-17.2,4.91-34.43,10.44-52.34,12-19,1.63-38-1.79-56.23-7-17.13-4.86-33.79-10.26-51-14.65s-34.92-6.9-52.45-9.18a497.64,497.64,0,0,0-112-1.59c-17,1.63-34,3.81-51,6a100.66,100.66,0,0,1-57.54-9.18c-15.32-7.32-29.09-17.51-44.57-24.54-12.19-5.53-25-9.6-37.84-13.44-27.48-8.25-56.1-15.09-80.64-30.57-26.39-16.64-48.17-43.37-47.53-76,.68-34.56,25.69-64.79,47.55-89.3,11.49-12.89,23.69-25.6,36.79-36.86,13.71-11.79,30.27-17.5,47.59-21.62,35.42-8.42,70.94-16.39,105.94-26.46,6.17-1.78,3.54-11.43-2.66-9.64Z" transform="translate(-60.38 -244.13)"/><path d="M2448.89,1522.17q-14.89-10.14-30.72-18.79-7.73-4.22-15.63-8.12c-5.25-2.6-10.05-3.92-15.45-5.88-22.3-8.08-44-16.1-67.24-21.34-46.5-10.5-94.27-13.75-141.8-15.39-47.84-1.65-95.78-1.81-143.52-5.59-50.41-4-99.49-16.67-149.06-25.88-24.11-4.48-48.53-8-73.08-8.31-24-.34-47.83,2.74-71.23,7.78-24.22,5.21-47.93,12.47-71.6,19.74-11.57,3.55-23,6.66-34.75,9.29-5.06,1.13-9.59,3.24-14.75,4.38q-9.54,2.12-19.14,3.87c-24.47,4.42-50.15,7.26-75,4.8-24.13-2.38-47.57-8.8-72-7.4-11,.63-22.49,2.34-32.82,6.35-11.08,4.31-21.48,10.37-32.2,15.48-23.42,11.17-47.9,15.25-73.55,17.37-52.47,4.34-105.1,5.94-157.71,7.29-23.63.61-48.2-.74-71.42,4.36-21.39,4.7-41.4,14.12-61.12,23.37-10.29,4.83-20.57,9.66-31.12,13.92-5.89,2.38-3.31,12.06,2.66,9.64,20.38-8.23,39.81-18.59,60.14-26.9a199,199,0,0,1,30.93-10.12c11.75-2.68,23.44-3.08,35.44-3.39,51.63-1.34,103.29-2.38,154.85-5.51,24.79-1.5,50.48-2,74.78-7.41,23.11-5.13,42.8-15.18,64-25.25,22.78-10.81,49.67-11.79,74-6.33,10.86,2.43,22.65,3.13,33.75,4.38,12.2,1.37,24.68,1.06,36.91.29,48.26-3,93.31-18,139.35-31.46,23.44-6.83,47.21-12.94,71.45-16.14,24.66-3.26,49.45-2.94,74.13-.09,49.82,5.74,98.46,19.39,148,27,46.75,7.2,94.31,8.07,141.52,9.26,47.63,1.2,95.5,2.19,142.73,9.11,46,6.75,93.52,19.05,134.47,41.44q15.83,8.64,30.72,18.79c5.34,3.63,10.35-5,5-8.64Z" transform="translate(-60.38 -244.13)"/><path d="M2300.41,1374.19c72.72-26,141.24,38,210.16,51.19,41.87,8,86.06.21,126.31,16.65,18.21,7.43,34.77,18.22,52,27.62a250.58,250.58,0,0,0,54.85,21.63c37.95,10.37,71.21,22.71,99.33,51.35,25.25,25.72,43.12,58.4,53.16,92.89,25.05,86,5,179.76-19.78,263.48-49.7,168.07-139.31,322-220.49,476.2-20.9,39.71-41.42,79.64-62.78,119.1-16.93,31.27-35.59,62.65-61.79,87.13-27.93,26.09-63,38.85-101.15,37.24-37.82-1.6-74.22-14.23-110.46-24-34.27-9.26-69.9-17-105.54-12.31-20.71,2.72-40.48,9.62-60.73,14.44-23.14,5.5-46.72,6.73-70.41,5.51-43.83-2.26-87.07-10.86-130.88-13.72a853.58,853.58,0,0,0-260.35,23.33c-21.51,5.34-43.08,12.62-65.38,13.57-21,.88-40.57-5.31-59.22-14.39-32.15-15.66-61.6-37-97.58-43.13-35.09-6-70.49.6-104.22,10.51-37.23,10.93-73.22,25.86-110.9,35.33-42.81,10.76-85.15,9.37-128.63,3.92-45.8-5.75-91.52-12.18-137.26-18.29-41.67-5.57-83.9-9.58-125.18-17.66-30.72-6-62.37-15-88.25-33.22-12.34-8.71-23.05-19.86-30-33.33-9.77-18.85-9.94-39.64-9.83-60.39.2-36.45-7.54-66.33-30.25-95.33-22.1-28.21-50.67-50.32-75.36-76.09-53.39-55.73-90.89-126.14-108.6-201.18-9.18-38.91-11.78-77.93-11.11-117.77.34-19.79.28-40.12-5.86-59.15-5.49-17-15.41-32-25.83-46.43-23.13-32-43.6-62.23-40.62-103.6,2.82-39.19,22.1-76,45.07-107.09,45.82-62.08,110.51-112.64,177.63-149.8a612.93,612.93,0,0,1,106.41-46.22l-6.15-3.49c2.33,11.66-34.7,3.55-40.47,3.06-12.86-1.07-24.69,3.62-34.77,11.34-26.65,20.41-39.65,53.82-67.12,73.51-29.72,21.31-67,29-96.19,51.22-30.89,23.47-44.81,60.75-58.84,95.55-16.35,40.57-31.45,82.56-35.34,126.43-3.69,41.66,6,79.74,27.05,115.59,10.08,17.16,21.44,33.66,29.9,51.72,10.31,22,12.27,44.26,13.21,68.24,1.43,36.42,11.59,68.72,29.29,100.48,17.4,31.24,39,59.92,56.45,91.13,8.89,15.91,16.7,32.5,21.77,50.05,5.23,18.1,6.33,36.63,7.86,55.29,2.58,31.51,8.84,65.29,39.75,81,30.22,15.37,66.28,8,97,21.45,34.53,15.11,41.55,55.66,58.26,85.51,17.14,30.62,46.65,47.09,79.85,55.55,40.12,10.22,82.86,13.53,123.94,17.66,46.86,4.72,94.26,7,141.19,1.8a443.24,443.24,0,0,0,65.41-12.51c23-6.12,46.1-13.29,70-13.81,43-.94,77.52,28.64,119.44,32.75,39.65,3.89,76.3-15.93,112.9-27.79,20.56-6.66,41.27-10.24,62.93-8.67,22,1.61,43.53,7.35,64.88,12.74,39.73,10,77.9,16.82,118.31,6.3,41.94-10.92,81.91-32.09,126.46-24.68,41.63,6.93,78.48,25.85,121.72,22.77,41.21-2.94,80.91-17.61,122.34-18.25,22.14-.34,42.13,5.09,62.46,13.37,17.78,7.24,35.68,15.72,55.07,17.38,17.69,1.53,33.33-4.23,47.91-13.87,17-11.23,32.33-25.14,53.9-25.24,20.82-.09,41.4,8.75,61.82,12.25a275.76,275.76,0,0,0,50.57,4.2c32.3-.46,65.76-7.31,93-25.45,30.22-20.13,46-51.4,56.92-85.07,6.24-19.21,11.37-38.8,18.95-57.55,7.82-19.34,17.82-37.74,28.55-55.6,20.67-34.38,44.45-66.83,64-101.89,18.64-33.38,29.53-67.95,39.11-104.74,10-38.63,22.51-72.82,57.19-95.55,15.75-10.33,28.55-20.76,36.13-38.5,8-18.68,11.22-39.57,15.72-59.28,21.14-92.66,40.78-186.76,41.05-282.21.06-22.22-.4-44.86-3.33-66.91-1.82-13.71-7-27.76-21.79-31.55-16.48-4.22-32.81,7.42-49.35,2.12-13.82-4.43-22.51-17.44-29.28-29.47-14.25-25.31-23.09-55.07-45.85-74.51-23.3-19.9-54.44-26.16-83.67-31.84-31.42-6.1-65-11.47-90.54-32.32-4.94-4-12.06,3-7.07,7.07,24,19.6,53.81,26.86,83.61,32.7,30.18,5.91,63.87,10.25,88.72,30,37.2,29.51,42.49,119,104.33,109,9.7-1.57,22.66-6.94,31.69-.85,10,6.74,9.73,23.34,10.57,33.86a658.22,658.22,0,0,1,1.71,69.52c-1.28,48.47-7.36,96.67-15.81,144.38-8.15,46-18.47,91.66-28.95,137.22-4.64,20.11-8.23,42.48-23,58-13.45,14.13-32.54,21.09-45.68,35.86-22.07,24.82-30.3,58.17-38.32,89.53-9.8,38.29-23.5,73.28-43.82,107.3-19.89,33.31-42.78,64.75-62.1,98.41-19.64,34.22-30.8,69.87-43,107.11-12.37,37.61-32,69.71-69,86.83-31.61,14.62-68.21,16.62-102.39,12.87-34.91-3.83-73.83-24.71-107.89-8.72-15.78,7.41-28.33,20.15-44,27.68-20.32,9.74-41.76,4.5-61.78-3.16-18.62-7.11-36.64-16.22-56.38-19.91-18.49-3.46-37.33-2.79-55.9-.32-40.94,5.45-81.6,19.8-123.34,16.12s-79.92-26.86-122.67-24.29c-40.16,2.4-76.15,22.52-115.27,29.8-43,8-84.29-6.75-125.73-16.1-39.59-8.93-75.49-8.29-114,5.11-37.77,13.15-76.29,32.53-117.22,22.17-19.31-4.89-37.08-14.16-55.68-21-19.58-7.25-39.43-10.43-60.29-8.35s-41.22,8.07-61.5,13.48a427.7,427.7,0,0,1-69.74,12.88c-46.24,4.41-92.83,1.79-138.92-3-41.54-4.33-85.36-7.18-125.53-19.3-18.14-5.47-35.77-13.79-49.31-27.34-12.41-12.41-19.77-28.42-26.7-44.3-12.3-28.16-25-56.34-55.61-68-31.55-12-70.66-3.67-99.23-23.53-32-22.21-26.14-68.37-30.88-102.16-4.65-33.19-19.58-63.43-36.85-91.77-18.24-29.94-39.23-58.3-54.84-89.78-7.79-15.71-14-32.22-17.43-49.46-4.2-21.35-2.33-43.23-5.23-64.73-5.23-38.82-30.17-69.23-48.27-102.67-21.89-40.44-24.49-84.86-15.38-129.36,8.92-43.53,25.8-86.09,44-126.52,8.43-18.72,18.44-37.21,33.6-51.39,13.88-13,31.27-21.44,48.43-29.21,31.46-14.22,60.38-27.42,82.47-54.93,17.91-22.31,37.82-60.57,71.52-56.45,14.15,1.74,53.24,10.22,48-16a5,5,0,0,0-6.15-3.49,625.4,625.4,0,0,0-203.47,111.75c-57.31,47.26-118.84,110-131.26,186.54-5.87,36.12,2.78,69.3,23.17,99.39,10.88,16.06,23.56,31,33.05,47.94,11.35,20.31,14.46,42,14.49,65,.06,40,.37,78.7,8.35,118.08a450.45,450.45,0,0,0,38,110.57,443,443,0,0,0,64,95.43c24.77,28.17,54.63,51.26,79.33,79.47,12.81,14.63,24.23,31.14,30.24,49.8,6.73,20.88,4.81,42.43,5.29,64,.71,32.46,12,60.76,37.68,81.35,54.58,43.84,135.34,45.53,201.45,54.36q71.21,9.53,142.42,19c44.2,5.9,88.34,10.83,132.54,2.19,76.71-15,154.8-66.5,235.15-48.31,37.32,8.44,67.49,33.3,102.56,47.28,40.19,16,77.15,5.15,117.32-4.84A842.48,842.48,0,0,1,1970.78,2600c46.7,4.09,93.27,14.4,140.34,12.57,44-1.7,84.61-22.44,128.66-21.63,75.27,1.36,145.29,47.43,221.47,36.16,73.72-10.92,114.7-78.82,146.6-139.11q66.66-126,132.74-252.29c40.71-77.85,80.36-156.46,112.43-238.34,32.26-82.36,59.92-170.77,63.91-259.71,3.39-75.66-16-155.29-73.25-208.33-28.2-26.15-60.84-37.72-97.31-47.68a262.37,262.37,0,0,1-61.45-25.66c-17-9.65-33.84-19.88-52.4-26.29-41.47-14.31-86.4-5.59-128.59-16-37.52-9.27-71.44-28.67-107.39-42.28-31.93-12.09-65.78-18.65-98.79-6.85-6,2.15-3.42,11.82,2.66,9.65Z" transform="translate(-60.38 -244.13)"/><path d="M2558.92,1420.13c-29.68-1-59.53-2-88.89-6.84-28.26-4.67-54.94-13.73-80.92-25.66-49.14-22.57-95.65-49.45-150.63-54.27-56.34-4.94-112.17,7.93-168.24,10.87-29.06,1.53-57.86-.06-86.19-7-26.91-6.59-52.84-16.47-79.32-24.47-25.69-7.75-52-13.47-79-13.31-26.28.14-52.32,4.94-77.82,11-52.54,12.41-105.44,31.18-160.22,25.95-29.85-2.85-58.65-12.23-88.51-15.1-25.65-2.46-51.14,1.3-75.78,8.45-49.53,14.37-95.42,40.87-146.81,48.8-56.59,8.73-114.34-8.68-169.28,12.72-25.56,10-48.57,21.72-76.79,19.86-25.45-1.68-50.29-6.87-72.67,8.7-6.59,4.59-26.61,19.31-31.66,4.67l-6.15,6.15c26.22,3.79,49.15-8.15,72.61-18,14.33-6,28.8-10.14,44.34-11.49,14.92-1.3,29.91-.9,44.87-1.24,56.63-1.31,106.51-25.27,159.17-43.13,26.65-9,54.14-15.93,82.44-15.77,30.79.18,61,7.18,91.76,8.16,28.82.92,54.73-6,80.93-17.49s51.58-24.29,80.46-26.93c53.85-4.94,105.9,15.91,157.62,27.31,25.63,5.65,52.08,9.55,78.36,7.19,28-2.5,53.41-13.33,79.62-22.53,27.59-9.68,55-14,84.08-9.73,25.54,3.7,50.18,11.87,74.58,20,25.41,8.44,50.94,17.19,77.46,21.47,27.27,4.41,52.82,1.8,79.83-3,32.27-5.78,63-4.85,94.73,3.88,29.84,8.23,58.07,21.25,85.84,34.72,26,12.6,52.7,27,82.11,28.67,14.59.83,27.52-3.52,41.65-6.14,15.44-2.86,30.79.44,45,6.58,13.13,5.65,25.27,13.33,37.25,21,5.43,3.49,10.45-5.16,5-8.64-22.35-14.4-46.89-29.6-74.35-30.09-15.15-.27-29.1,6.08-44.05,7.19-15.91,1.18-31.66-2.88-46.43-8.42-28.51-10.7-55.1-26.25-83.16-38.08-27.13-11.44-55.28-20.74-84.68-23.87a185,185,0,0,0-45,.79c-15.79,2.19-31.35,6-47.23,7.5-27.19,2.53-54.14-2.65-80.19-10.11-49.32-14.12-98.38-37.54-150.82-35.13-28.48,1.31-54.51,12-81,21.54-26.89,9.64-53.49,14.66-82.1,12.5-54-4.07-104.61-26.08-158.08-33.16-25.51-3.37-51.58-3-76.42,4.23-26.94,7.88-51.16,22.67-77.74,31.52-29.68,9.87-60,7.66-90.54,3.93-29.66-3.62-58.79-6.88-88.52-2.07-54.72,8.86-103.79,37-157.44,49.83-29.56,7-58.87,5.33-88.91,7.1-14.41.85-28.6,3.09-42.22,8-12.55,4.51-24.48,10.52-36.9,15.37-13.19,5.15-27,9-41.31,7-3.43-.5-7.53,2.14-6.15,6.15,2.84,8.26,10.07,12.78,18.7,13.18,11.37.54,19.9-6.58,28.78-12.65,24.38-16.67,53.58-5,80.69-6.32s50.52-16.11,75.86-24.28c28.3-9.13,58.26-8.07,87.59-7,27.93,1.06,55.74,1.68,83.23-4.2,25.79-5.51,50.42-15.19,74.86-24.88s48.74-19.54,74.29-25.47c29.22-6.78,57.52-5.64,86.82.08,28.19,5.51,56,12.25,84.9,11.57,26.77-.62,53.23-5.88,79.17-12.2,53.85-13.11,108.62-31.8,164.77-23.43,55.3,8.24,105.68,35.83,161.54,41.72,57.89,6.1,115.35-7.35,173-10.41,28.8-1.53,57.81-.36,85.78,7.14,27.07,7.27,52.37,19.55,77.45,31.81,24.2,11.83,48.5,23.85,74.26,31.94,28.13,8.83,57.62,12.5,87,14.4,14.56.95,29.14,1.46,43.72,2,6.44.22,6.43-9.78,0-10Z" transform="translate(-60.38 -244.13)"/><path d="M2669.79,1713.52c-16,13.62-37.46-3.57-49-14.63-7.18-6.89-14.27-14-22.83-19.2s-18.38-8.44-28.22-10.39a246.28,246.28,0,0,0-30.52-3.53c-11-.77-22.13-1.56-33.21-1.18a117.73,117.73,0,0,0-32.88,5.62c-4.93,1.62-10,3.43-15.21,3.34-6.06-.09-11.83-2.48-17.14-5.22-21.12-10.88-41.37-23.86-61.92-35.8L2347,1614c-9.32-5.42-18.55-11.13-28.43-15.53-17.59-7.84-38.33-12-54.54,1.11-7.17,5.81-12.64,13.78-22,16.18-7.66,2-15.71.13-23.1-2.11-17.85-5.43-35.62-15.37-54.87-12.75-11.57,1.58-21.44,8-32.52,11.14-8.22,2.32-19.59,2.29-24.47-5.94l-6.84,6.84,15.74,10.21c5.42,3.51,10.44-5.14,5.05-8.63l-15.75-10.22c-4.26-2.76-9.32,2.66-6.84,6.85,10.08,17,31.78,12.73,46.87,6.39,9.39-4,18.42-7.77,28.8-6.94,8.82.71,17.37,3.87,25.62,6.88,15.14,5.53,32.42,13,48.54,6.77,9.64-3.7,15.13-11.86,23.13-17.81,8.56-6.36,19.2-6.48,29.16-3.92,10.44,2.69,20.07,7.75,29.36,13.11,10.93,6.3,21.82,12.68,32.73,19q32.73,19,65.46,38c9.16,5.3,19,10.71,29.84,10.85,11.3.15,21.9-5.69,32.93-7.56,11.72-2,23.76-1.69,35.59-1,11.06.6,22.23,1.19,33.21,2.74,12.13,1.71,24.27,4.83,34.67,11.51,10.07,6.48,17.83,15.86,26.84,23.64,15.07,13,38.38,22.44,55.66,7.75,4.91-4.17-2.2-11.21-7.07-7.07Z" transform="translate(-60.38 -244.13)"/><path d="M1981.88,1601.67c-7.67,7-19.4-1.35-26.37-5.67-9.48-5.89-18.51-11.62-29.68-13.67-23.91-4.39-47.92,3.62-70.79,9.68a271.93,271.93,0,0,1-78.52,9.22c-26.69-.85-52.2-6.33-77.66-14-22.82-6.93-48.49-14.82-72-6.52-18.71,6.6-33.25,28.42-54.77,25.16-17.32-2.61-31.38-17.11-44.65-27.35-16.13-12.46-32.94-21.6-54-19.63-15.06,1.41-30,5.16-44.79,8.24q-22.89,4.76-45.67,10-46.5,10.68-92.54,23.32c-6.2,1.7-3.57,11.35,2.66,9.64q82.15-22.52,165.86-38.88c12.29-2.38,24.76-4.25,36.87-.08,8.59,3,16.3,8.28,23.51,13.7,14.12,10.61,27.46,24.09,44.74,29.42a41.48,41.48,0,0,0,24.1.24c10.83-3.28,19.25-10.92,28.39-17.19,22.49-15.41,48.39-9.71,72.8-2.48,25.15,7.43,49.85,14,76.13,15.89a275.32,275.32,0,0,0,80.19-6c25.95-5.83,54.44-18.73,81.38-11.83,12.13,3.1,21.45,11.51,32.45,17,9.86,4.92,20.67,7,29.46-1.07,4.75-4.36-2.33-11.42-7.07-7.07Z" transform="translate(-60.38 -244.13)"/><path d="M1072.59,1625.57c2.22-6.13,4.54-13,9.48-17.54,3.69-3.39,10.65-5.85,15-2,2.66,2.34,3.6,6.55,5.63,9.45a28.32,28.32,0,0,0,4.93,5.44,35,35,0,0,0,14.85,7.2c11.46,2.64,23.41,1,34.61-2,15-4.11,30.84-10.19,46.15-4.29,6,2.32,8.61-7.34,2.66-9.64-16.14-6.22-33-.89-48.89,3.57-12.22,3.44-26.89,6.47-38.81.31-6.86-3.55-8-9.46-12.42-15.16-3.84-5-9.92-7.1-16.11-6.57-15.41,1.29-22.06,15.87-26.68,28.64-2.2,6.06,7.46,8.67,9.64,2.66Z" transform="translate(-60.38 -244.13)"/><path d="M741,1758c-2.75-10.38-13.22-16.19-23.56-16-13.21.28-23.48,10.08-32.19,18.92l7.86,6.06c6.22-11.53,12.54-23.43,22.27-32.43,8.52-7.87,20.93-13.52,32.67-10.69,10.28,2.47,21.25,11.67,31.29,3.09,4.09-3.49,5.42-8.69,8.82-12.66s8.56-5.35,13.4-6.41c10.36-2.25,20.17-3.42,29.37-9.16,8.5-5.31,15.78-12.84,25-17,10.16-4.62,18.69.34,28,4.56,8.81,4,19.14,6.83,26.8-1,4-4.07,5.18-9.7,6.81-14.93,1.82-5.82,5.09-10,10.92-12.22,13.58-5.24,27.22,3,38.16,10.43,5.34,3.61,10.35-5,5-8.63-10.53-7.12-22.7-14.14-35.89-13.4-10.1.58-20.5,5.35-25.34,14.64-2.59,5-2.77,11.29-5.91,15.9s-8.37,3.51-13,1.73c-9.79-3.78-18.72-10.18-29.72-9s-19.46,8.37-27.88,14.67a80.34,80.34,0,0,1-12.81,8.33c-5,2.43-10.59,3.32-16,4.29-10.81,1.93-21.09,4.62-27.21,14.56-3.19,5.2-4.84,10.28-12,8.34-6.27-1.69-11.64-5.32-18.16-6.34-31.24-4.87-50.49,24.75-63.2,48.3-2.65,4.9,3.77,10.21,7.85,6.06,6.3-6.39,13.47-14.13,22.75-15.78,6.45-1.14,14.48,1.58,16.29,8.41,1.65,6.21,11.3,3.58,9.64-2.66Z" transform="translate(-60.38 -244.13)"/><path d="M2246,1758.53c2.82-5.45,13.5-6.65,19-7.56,7.1-1.18,14.88-.9,20.06,4.76,4.31,4.71,6.5,11,10.14,16.2s8.36,9.22,14.53,11c15.24,4.52,29.18-4.49,42-11.33,13.62-7.24,29.59-10.57,44.83-7.15a50.86,50.86,0,0,1,11.57,4c3.51,1.75,6.73,4.27,10.86,4.19a16.06,16.06,0,0,0,8-2.87c1.05-.66,5.23-4.27,6.21-3.68,4.67,2.83,8.69-2.59,6.84-6.84-5.92-13.55-16.38-24-28.27-32.55a178.22,178.22,0,0,0-19.38-11.84c-6.52-3.52-13.28-7.59-20.36-9.85a21.82,21.82,0,0,0-11.8-.57c-4.54,1.09-8.12,3.15-13,2.64-7.78-.82-14.85-4.16-22.82-2.91a17.21,17.21,0,0,0-14,11.06c-1.46,3.75-2.15,7-5.2,9.9-2.7,2.54-5.88,4.52-8.67,7-12.2,10.6-16.67,28.49-11.73,43.72,2,6.1,11.63,3.49,9.64-2.66a31.94,31.94,0,0,1,8.63-33.52c4.5-4.06,10-7,13.26-12.27s2.62-12.49,10.09-13.44c6.58-.84,13.07,2.25,19.52,3a26.24,26.24,0,0,0,10.58-.73c3.87-1.11,7.07-2.94,11.22-2,6.32,1.38,12.6,5.57,18.28,8.59s11.52,6.36,17,10c12.06,8,22.52,18.08,28.39,31.53l6.84-6.85c-5.39-3.27-10.24-.42-14.86,2.72-3.32,2.27-4.36,2.84-8.08.78a62.85,62.85,0,0,0-10.7-4.68c-15.34-5.06-32.72-3.85-47.67,2-13.68,5.32-30.48,21-46.08,14.5-6.68-2.79-9.56-10.09-13-16-3.59-6.21-8.09-11.66-14.91-14.4-7.83-3.14-16.58-2.15-24.6-.33-7.68,1.75-17.1,3.74-21,11.36-2.95,5.71,5.67,10.77,8.63,5Z" transform="translate(-60.38 -244.13)"/><path d="M2116.11,1665.11c-19.76-24.57-54.4-16.18-81.48-16.49-8.37-.09-16.76-1.13-24.49-4.51-6.75-2.94-13.23-6.86-20.88-6.43-6.22.35-11.85,3.29-17.18,6.26s-11.11,7-17.43,5.12l-1.33,9.82A5.53,5.53,0,0,1,1958,1661c4.37,4.75,11.42-2.34,7.07-7.07a15.36,15.36,0,0,0-11.75-5.06c-5.68,0-6.72,8.2-1.33,9.83,13,3.91,22.14-6.51,33.58-10.19,7.21-2.31,13.1,1.34,19.52,4.23a67.91,67.91,0,0,0,22.55,5.57c26,2.12,62.13-10.09,81.4,13.86,4,5,11.07-2.1,7.07-7.07Z" transform="translate(-60.38 -244.13)"/><path d="M2009.59,1616.79a30.11,30.11,0,0,1,3.35-27.51c6.16-9.23,16.47-12.91,27.26-12.49,21.6.84,43.08,14.74,53.52,33.49,4.63,8.33,8.38,20.46,5.23,30-2.35,7.08-4.08-1-4.84-4.22-1.59-6.74-3.42-13.42-5.54-20-3.61-11.2-7.25-24.08-15-33.23-6.25-7.39-16.07-10.87-24.35-4.44-5,3.86-8.68,9.9-12.38,14.92a175,175,0,0,0-11.34,17.08c-6.78,11.88-11.35,24.91-11,38.71.15,6.43,10.15,6.45,10,0-.33-14.17,5.29-27,12.74-38.76,3.5-5.55,7.37-10.85,11.33-16.08,3.53-4.65,8-12.41,14.51-7.75,4.72,3.39,7.3,9.26,9.42,14.46q4.64,11.37,8.11,23.17c1.85,6.23,3,12.71,4.94,18.89,1.62,5.1,4.92,10.23,10.81,10.57,12.22.71,14-15.72,13.31-24.45a59.82,59.82,0,0,0-12-31c-14-18.82-38.53-32.79-62.47-31.19-13.09.87-24.69,7.17-31.59,18.49-6.17,10.12-7.84,23-3.66,34.11,2.24,6,11.91,3.39,9.65-2.66Z" transform="translate(-60.38 -244.13)"/><path d="M1820.84,1729.59c8.67,7,17.94,14.46,29.2,16.5,9.15,1.66,19.62-.24,26.26-7.18,3.12-3.26,4.65-7.3,6.68-11.23,1.21-2.34,2.31-4.31,4.94-5.13,2.8-.88,6.11-.24,9,.07a142.47,142.47,0,0,1,38.18,9.85c6,2.42,8.56-7.25,2.66-9.64a149,149,0,0,0-35-9.48c-10.18-1.45-20.89-2.81-27.15,7-2.33,3.66-3.35,8.23-6.36,11.45s-7.42,4.61-11.66,4.81c-11.49.57-21.21-7.33-29.66-14.13-5-4-12.09,3-7.07,7.07Z" transform="translate(-60.38 -244.13)"/><path d="M1903.59,1713.64a52.71,52.71,0,0,0-19.2-31.28c-9-7-21.48-11.89-32.69-7.49-13.36,5.26-12.89,19.44-9.72,31.15,1.85,6.79,3.48,13.27,2.24,20.35a35.34,35.34,0,0,1-9.44,18.46c-4.46,4.64,2.61,11.72,7.08,7.07a45.59,45.59,0,0,0,12.8-29.49c.26-5.71-.9-11.21-2.38-16.68s-4.36-12.67-1.24-18c5.29-9,19.23-3.18,25.53,1.19a43.07,43.07,0,0,1,17.37,27.36c1.23,6.31,10.87,3.64,9.65-2.66Z" transform="translate(-60.38 -244.13)"/><path d="M1771.41,1803.61c-9.67-8.65-22.78-9.36-34.91-6.26-14.59,3.74-27.36,14.1-42.66,15.19-8.55.61-17-1.22-25.43-2.63l-25.8-4.32c-15.84-2.66-31.91-6.75-47.54-1-17.7,6.55-34.82,15.29-52.06,23-5.87,2.62-.79,11.24,5,8.64l28.41-12.66c9.06-4,18.34-9.32,28.11-11.38,9.46-2,19.34.35,28.7,1.92l30.57,5.13c9.81,1.64,20,4,30,3.3,8.57-.62,16.46-3.57,24.26-7,13.27-5.88,33-16.68,46.24-4.83,4.78,4.28,11.88-2.77,7.07-7.07Z" transform="translate(-60.38 -244.13)"/><path d="M1753.42,1810.84c15.42-21-14.14-40.85-27.59-52.21-16.44-13.89-34.26-33.16-56.67-36.24-18.57-2.56-37.39,8.09-39.38,27.64-.5,4.89,0,10.59-2.89,14.84-2.39,3.43-6.44,4.94-10.32,6-8.43,2.23-17.37,2.31-25.52,5.63-18.83,7.66-29.19,30.65-22.5,49.83,2.1,6,11.77,3.45,9.64-2.65-5-14.46,2.18-32.24,16.74-38,13-5.19,30.54-1.94,39.84-14.66,5.74-7.85,3-17,6-25.64,2.48-7,9.58-11.09,16.5-12.65,19.11-4.29,35.88,11.42,49.25,22.71,9.46,8,19,15.88,28.4,24,7.26,6.3,17.11,16.53,9.84,26.42-3.81,5.19,4.87,10.19,8.64,5Z" transform="translate(-60.38 -244.13)"/><path d="M1758.09,1683.09a215.32,215.32,0,0,0-101.35-15.87c-2,.18-4.39,1.42-4.82,3.67l-1.78,9.51c-.78,4.12,3.35,8,7.34,5.64,8.14-4.79,17.76-2.49,26.11.57,9.37,3.42,18.31,8,28.43,8.64,9.78.67,18.84-3.28,28.11-5.71,7.85-2.06,17.27-2.62,22.85,4.32,4,5,11.07-2.1,7.07-7.07-5.86-7.3-15.67-9.36-24.61-8.39-10.78,1.17-20.77,7.11-31.7,6.93-11.3-.19-21.38-6.73-32-9.87-9.76-2.88-20.32-3.36-29.33,2l7.34,5.64,1.79-9.5-4.83,3.67a208.8,208.8,0,0,1,98.69,15.51c5.93,2.48,8.52-7.19,2.66-9.64Z" transform="translate(-60.38 -244.13)"/><path d="M1695.18,1662.82a63.13,63.13,0,0,1,12-38.1l-4.31,2.48c11.5-.25,17.58,12.41,19.39,22.15,2.55,13.75,1,27.53,7.28,40.5,2.79,5.79,11.42.73,8.63-5-5.59-11.61-4-25.06-6.15-37.46-1.68-9.63-6.48-19.51-14.46-25.44a22.86,22.86,0,0,0-12.76-4.7c-6.15-.21-8.53,5.37-11.13,10.22a72.53,72.53,0,0,0-8.49,35.4c.1,6.43,10.1,6.45,10,0Z" transform="translate(-60.38 -244.13)"/><path d="M1586.62,1678.74c2.72,3.1-6,4.16-7.23,4.08-4.28-.27-8.62-1.49-12.81-2.37-8.09-1.7-16.16-3.51-24.33-4.76-15.56-2.38-31.61-2.89-46.24,3.78-7.53,3.44-13.41,9.86-21.15,12.82s-16.19,2.52-24.24,1.87c-15.56-1.27-31.85-4.24-47.18.25-8.32,2.44-14.84,7.23-21.15,13-5.09,4.67-15,13.56-21.91,6.85-4.62-4.47-11.7,2.59-7.07,7.07,5.69,5.5,13.84,6.29,21.11,3.6,8.77-3.25,14.12-10.93,21.59-16.09,15.51-10.71,36.33-6.23,53.8-4.75,9.22.78,18.88,1,27.71-2.16,9.06-3.27,15.7-10.62,24.56-14.27,17.43-7.18,37.47-2.71,55.16,1,9.31,2,21.34,6.53,30.69,3,8.21-3.09,11.72-13.22,5.76-20-4.26-4.85-11.31,2.25-7.07,7.07Z" transform="translate(-60.38 -244.13)"/><path d="M1545.11,1672.18c-10.95-12.77-25.46-21.47-40.77-28.08-7.25-3.12-14.64-5.87-22.09-8.47-8.21-2.87-16.49-5.93-25.23-6.7-15.75-1.4-28.75,8.26-31.62,23.83-3.17,17.27,6.29,32.41,15.68,46,3.63,5.26,12.3.26,8.63-5-7.66-11.1-17-24-14.66-38.31.92-5.7,3.75-11.42,8.91-14.36,6.58-3.75,14.7-2.29,21.61-.39a247.24,247.24,0,0,1,39.53,14.68c12.46,5.89,23.91,13.38,32.94,23.91,4.2,4.89,11.24-2.21,7.07-7.08Z" transform="translate(-60.38 -244.13)"/><path d="M1479.07,1852.69c-18.41-6.75-39.82-2.28-58.81-.7l-63.73,5.33c-6.36.54-6.42,10.54,0,10l61.77-5.16c9.94-.83,19.87-1.77,29.82-2.47,9.63-.68,19.11-.72,28.29,2.64,6,2.22,8.66-7.44,2.66-9.64Z" transform="translate(-60.38 -244.13)"/><path d="M1427.9,1840.79c-4-9.57-8.12-19.68-16.49-26.28-7.35-5.81-17.41-8.52-26.26-4.57-16.3,7.26-15.4,28.74-13.16,43.46,1,6.34,10.61,3.65,9.65-2.66-1.42-9.28-3.19-25.27,6.38-31.07,5.85-3.54,13.19-.87,18,3.26,6.07,5.25,9.28,13.29,12.26,20.52,2.42,5.87,12.1,3.29,9.65-2.66Z" transform="translate(-60.38 -244.13)"/><path d="M1280.19,1812.86c-15.63-4.91-30.43,3.23-43,11.79-6.32,4.29-12.7,8.95-20,11.49-8.65,3-18,2.64-26.89,1.29-18.07-2.73-35.9-7.25-53.85-10.65-7.68-1.46-15.85-2.51-23.14,1-6.4,3.11-10.78,9.31-10.74,16.49,0,6.43,10,6.45,10,0,0-8.85,11.13-9.45,17.52-8.54,7.63,1.09,15.22,3,22.77,4.5,15.46,3.12,31.26,7.51,47.07,8.12,14.75.57,26.9-4.69,38.9-12.79,11.26-7.6,24.37-17.59,38.73-13.09,6.16,1.93,8.79-7.72,2.66-9.64Z" transform="translate(-60.38 -244.13)"/><path d="M1245.47,1810.13c-8.73-25.44-34-47.17-62.16-43.48-25.71,3.36-47,29.61-40.46,55.6l3.49-6.15a148.17,148.17,0,0,1-40.41,7.28c-6.41.24-6.44,10.25,0,10a158.14,158.14,0,0,0,43.07-7.64,5.11,5.11,0,0,0,3.49-6.15c-5.13-20.49,13.21-41.63,33.51-43.23,22.66-1.79,42.79,15.9,49.83,36.43,2.08,6,11.74,3.45,9.64-2.66Z" transform="translate(-60.38 -244.13)"/><path d="M1049.34,1834.2a221,221,0,0,0-57.39-7.29c-17.18.12-36.16,1.28-52.16,8.12-7.53,3.22-12.82,8-18.63,13.57-7.47,7.13-17.3,4.38-26.46,2.58a304.71,304.71,0,0,1-54.65-16.31c-6-2.4-8.56,7.27-2.66,9.64A303.9,303.9,0,0,0,892,1860.82c8.34,1.64,17.68,4,26.05,1.34,7.88-2.46,12-9.7,18.53-14.15,14.34-9.76,34.84-10.62,51.55-11a210.34,210.34,0,0,1,58.51,6.87c6.23,1.63,8.89-8,2.66-9.64Z" transform="translate(-60.38 -244.13)"/><path d="M936,1838.71c4.62-6.56,14.27.09,18.48,3.53,6.15,5,11.92,9.75,19.29,12.94a62.77,62.77,0,0,0,45.13,1.84l-3.85-.5-.72-3.69,3-2.3,3.11,2.13c-2.09-6-11.75-3.44-9.64,2.66,1.54,4.47,6.7,7.27,10.89,4,3.9-3.08,2.78-9.43-1.59-11.4-2.94-1.32-5.42.12-8.33.89a48.28,48.28,0,0,1-8.69,1.48,54.1,54.1,0,0,1-18-1.67,51.66,51.66,0,0,1-15.8-7.25c-5.24-3.59-9.57-8.42-15.09-11.61-8.88-5.14-20.48-5-26.77,3.94-3.72,5.27,4.95,10.28,8.64,5Z" transform="translate(-60.38 -244.13)"/><path d="M1020.09,1826.41c-10.72-20.89-35.59-32.81-58.6-27.87-23.55,5-40.88,27.62-41.34,51.37-.13,6.44,9.87,6.44,10,0,.38-19.52,14.78-37.61,34-41.73,18.78-4,38.69,6.49,47.3,23.28,2.94,5.72,11.57.67,8.64-5Z" transform="translate(-60.38 -244.13)"/><path d="M997.53,1799.89c-18.28-7.71-41.45-16.28-60-4.63-16.73,10.5-20.48,31.5-21.55,49.72-.38,6.43,9.62,6.41,10,0,.85-14.37,3.21-32.69,16.59-41.08,15.16-9.51,35.09-1.64,49.94,4.63,5.86,2.47,11-6.14,5-8.64Z" transform="translate(-60.38 -244.13)"/><path d="M1125.21,1680c-16.64-8.06-36.19-6.11-54.14-5.34-17,.73-34.25,2.24-50.81,6.51-15.88,4.1-31.09,11-43.59,21.73-6.94,6-12.35,13.3-18.33,20.17a70.43,70.43,0,0,1-23,17.45c-16.84,8.22-37.17,16.21-41.91,36.57-1.46,6.26,8.18,8.93,9.64,2.66,3.89-16.72,22-23.26,35.79-29.86,7.53-3.6,14.68-7.76,20.75-13.54,6.41-6.11,11.48-13.43,17.49-19.91,21.79-23.53,54.91-29.42,85.52-31.34,8.75-.55,17.52-.8,26.28-1,10.58-.19,21.57-.22,31.3,4.49,5.77,2.8,10.85-5.82,5-8.63Z" transform="translate(-60.38 -244.13)"/><path d="M2103.57,1796.49c-3.15-11.88-12.14-21-23.16-26.09-13.86-6.39-29.18-5.88-43.95-3.61-7.64,1.17-15.8,2.25-23.14,4.78-6.66,2.29-11.66,6.38-16,11.85-10.5,13.19-20.34,26.95-30.47,40.42l8.63,5.05c9.31-14.18,18.7-28.31,28.38-42.23,4.65-6.69,8.93-10,17.27-10.33a124.48,124.48,0,0,1,23.85,1.49,136.81,136.81,0,0,1,43.54,14.49c12,6.42,24.42,15,28.26,28.82,1.73,6.19,11.38,3.56,9.64-2.66-4.31-15.44-17.06-26-30.54-33.53a145.2,145.2,0,0,0-50-17c-15-2.18-35.14-5.33-46.18,7.65-5.81,6.83-10.51,14.8-15.52,22.22q-8.76,13-17.35,26.06c-3.61,5.5,4.87,10.06,8.63,5.05l26.1-34.7c3.56-4.73,7.12-9.79,12.69-12.29,5.88-2.64,12.91-3.38,19.21-4.52,21-3.77,53.55-4.3,60.47,21.76,1.65,6.22,11.3,3.58,9.64-2.65Z" transform="translate(-60.38 -244.13)"/><path d="M2129.54,1823.19c-11.87-6.76-25.55-4-37.38,1.42-13.3,6.07-24.83,14-40.09,13-25.25-1.65-49.85-18.69-75.26-8-7.23,3-13.38,7.83-19.43,12.73-7.21,5.83-14.37,11.72-21.56,17.58-5,4.07,2.12,11.1,7.07,7.07,7.19-5.86,14.35-11.75,21.56-17.58,6.64-5.37,13.61-10.59,22.1-12.49,15.17-3.4,31,3.26,45.44,7.08,15.35,4.06,30.24,5.5,45.19-.87,14-6,31.62-20.22,47.32-11.28,5.6,3.19,10.64-5.45,5-8.64Z" transform="translate(-60.38 -244.13)"/><path d="M1379.21,1629c1.48.51-4.86,4.14-5.22,4.28-4,1.53-8.18,2.75-12.28,4q-12.86,4-25.93,7.41c-17.22,4.45-34.74,8.23-52.54,9.24-17.14,1-32.9-1.78-49.42-5.93-12.71-3.2-27.38-6.26-39.52.47-6.13,3.4-10.15,9.15-14.1,14.74-3.2,4.54-6.71,10.55-13,10-5.88-.56-6.4,8.11-1.33,9.82,13.87,4.67,26.3-3.9,37.85-10.52,13.85-8,27.91-8.79,43.57-8,34.5,1.7,69,3.74,103.47,5.61,6.43.35,6.41-9.65,0-10-33.91-1.84-67.81-3.76-101.73-5.52-14.72-.76-29.66-.81-43.3,5.54-11.28,5.26-23.89,17.75-37.2,13.27l-1.33,9.82c14.5,1.38,19.59-14.81,28.15-23.09,11.93-11.55,32.55-3.12,46.19.24,39.19,9.66,80.53-.5,118.22-12,5.44-1.65,10.88-3.33,16.24-5.23,3.79-1.35,7.51-2.94,10.18-6.07,5-5.92,3.17-15.12-4.32-17.72-6.09-2.12-8.71,7.54-2.66,9.64Z" transform="translate(-60.38 -244.13)"/><path d="M1304.47,1649.07c-1.06-15.87-7.9-30.1-17.39-42.66-9.36-12.39-20.47-25-33.2-34-11.52-8.19-28-12.27-40.77-4.17-12.41,7.89-14.09,23.15-12.48,36.55,1.67,13.87,8.36,33.41-4.3,44.08-2.64,2.23-1.41,6.18,1,7.85a14.7,14.7,0,0,0,18.72-1.83c4.62-4.48-2.45-11.55-7.08-7.07-2,2-4.36,1.81-6.59.27l1,7.85c9.35-7.88,11-20.52,10-32.06-1-12.1-5.69-24.84-2.3-36.93,3.86-13.72,19.4-15.59,30.75-10.09,12.78,6.19,23.17,18.55,32.19,29.22,10.37,12.26,19.3,26.62,20.39,43,.43,6.39,10.43,6.43,10,0Z" transform="translate(-60.38 -244.13)"/><g id="Layer_21" data-name="Layer 21"><path d="M1724.23,728.77c-15.84-49.89-51.29-100.43-107.09-107.09-23.49-2.81-48.52,2.58-67.29,17.4-23.32,18.43-30.52,48.79-31.28,77.22-1.53,57.13,24.63,112,62.27,153.76,41.3,45.88,97.25,75.69,154.46,97a822.77,822.77,0,0,0,92,28.21c32.88,8,65.87,11.53,99.43,5.9,29.93-5,58.7-15,88.16-22.09,28-6.68,57.62-10.82,85.52-1.63,50.24,16.55,74,70.4,117.17,97.6,25.3,15.94,54.55,18.17,83.73,18,31.57-.2,64.33-2,92.8,14.06,26.16,14.8,45.53,39.15,64.66,61.75,20.83,24.59,41.22,49.65,58.93,76.63,34.65,52.79,59.5,116.31,49.07,180.43a164,164,0,0,1-13.29,43.47c-.89,1.88-1,4.57.78,6.06,47.72,39.83,76.07,100.49,77.52,162.51a207.56,207.56,0,0,1-5.34,52c-1.46,6.26,8.18,8.93,9.64,2.66,14.69-63,.24-131.52-37.46-184a218,218,0,0,0-37.29-40.25l.78,6.06c26.14-55.65,19.45-120.51-4.14-175.82-24.66-57.79-65.92-107.07-106.83-154-19-21.8-40.14-43-67.72-53.48-28.59-10.8-59.87-7.86-89.78-8.06-15.26-.11-30.63-.94-45.38-5.12a104.65,104.65,0,0,1-35.72-18.6c-19.58-15.26-35.06-35-52.37-52.65-17.58-17.92-37.52-33.63-62.11-40.39-27.61-7.59-56.64-3.7-84,2.73-28.9,6.78-57.07,16.56-86.32,21.88-33.72,6.13-66.76,2.41-99.8-5.78C1714.61,957,1585.25,905.31,1541,787c-17.39-46.46-25-124.22,29.67-149,22.06-10,49.13-9.31,71.14.43,24.73,10.94,43.63,32,56.67,55.24a200.23,200.23,0,0,1,16.12,37.72c1.94,6.11,11.6,3.5,9.65-2.66Z" transform="translate(-60.38 -244.13)"/><path d="M1925,980.85c59.6-45.34,89.88-115.71,107-186.68,9.2-38.06,15.34-76.95,20.13-115.79,3-24.12,4.46-48.44,1-72.6C2050,584.1,2043,563.21,2034,543.27c-31.87-71.09-85.25-132.82-148-178.41a458.9,458.9,0,0,0-219.1-84.93,470.39,470.39,0,0,0-248.1,40.76q-14.62,6.8-28.72,14.64l6.84,1.79c-8.79-19.25-26.18-32.46-45.77-39.53-22.56-8.13-46.85-7.13-69.88-1.56-25,6-48.83,16.78-72.13,27.36-19.51,8.85-38.78,18.75-55.95,31.66-16,12-30.44,26.68-38.86,45a97,97,0,0,0-8.07,30c-1.41,12.58-.86,25.92-5.86,37.8-9.08,21.61-35.72,28.54-53.73,40.57a171.71,171.71,0,0,0-46.25,46.43C973.94,593.7,962.77,641.29,965,688c1.31,27.4,6.84,54.52,15.27,80.59s20.3,50,32.06,74.51c6.07,12.64,11,26.52,7.88,40.67-2.79,12.41-10.26,23.16-17.52,33.36-14.51,20.4-28.46,42-32.27,67.27-1.75,11.66-1.2,23.72,2.82,34.88,3.9,10.87,10.74,20.12,16.86,29.8,6,9.46,11,19.49,10.38,31-.49,9.57-5,18.32-10.6,25.89-12.28,16.6-29.54,28.91-44,43.46-14.91,15-25.37,32.91-32.83,52.62-15.23,40.25-17.87,84.66-36.68,123.64a129.22,129.22,0,0,1-17,26.81c-4.11,4.9,2.93,12,7.07,7.07,27.48-32.83,34.76-75.64,44.71-116,5.09-20.67,11-41.49,21.42-60.17,10.16-18.16,25.09-31.58,40.3-45.41,14-12.78,29.38-26.8,35.39-45.41,6.78-21-3.28-39.06-14.49-56.2-6.75-10.33-12.8-20.89-14-33.42s1.48-25.09,5.94-36.81c4.51-11.88,11-23,18.2-33.46,6.92-10,14.64-19.64,20.13-30.6s8.32-22.67,6.71-34.92c-1.66-12.71-7.31-24.41-13-35.73-12.19-24.16-23-48.81-30.65-74.81-14.43-49.14-17.69-102-.82-151a186.49,186.49,0,0,1,32.67-58.77c14.53-17.35,32-30.27,51.89-40.78s37.57-22.3,42.25-45.77c2.41-12.07,1.91-24.48,4.15-36.56a82.09,82.09,0,0,1,10.55-27.57c21.77-36,64.58-54.82,101.61-70.77,43.09-18.55,97.79-38.92,140-6.9a61.64,61.64,0,0,1,18.94,23.72c1.14,2.5,4.67,3,6.84,1.8,72.53-40.19,155.81-59.53,238.62-56.46a447.32,447.32,0,0,1,221.55,68.63c63,39.65,116.41,94.64,153.31,159.34,22.18,38.9,37.64,80.49,36.54,125.81-.55,22.67-3.9,45.2-7.22,67.59-2.66,18-5.64,35.88-9.19,53.69C2014.87,832,1991.87,904.24,1940,954.92a216.65,216.65,0,0,1-20,17.3c-5.06,3.85-.08,12.54,5,8.63Z" transform="translate(-60.38 -244.13)"/><path d="M788.31,1489.21l5.33-7.5-9.32-2.53c3.55,35.3-19.65,65.06-37,93.53-8.9,14.61-17.31,29.92-21.78,46.54-5.92,22-2.89,45.28-7.19,67.63-4.91,25.53-14.51,49.83-24,73.91l4.82-3.67c-2.14-.24-3.24-1.66-4.12-3.46-2.84-5.77-11.46-.71-8.63,5,2.54,5.19,7.16,7.78,12.75,8.41,2.33.26,4.07-1.77,4.82-3.67,8.63-21.82,17.29-43.77,22.51-66.7a197.44,197.44,0,0,0,4.82-34.3c.58-11.75.19-23.63,2.62-35.2,7.27-34.7,32.38-62,48-93,8.62-17.14,14.4-35.74,12.45-55.1-.5-5-6.35-6.7-9.32-2.52l-5.32,7.51c-3.73,5.26,4.94,10.26,8.63,5Z" transform="translate(-60.38 -244.13)"/><path d="M2663.55,1719.49l12.47,9.59,5-8.63-63-37.12c-18.94-11.16-38.41-24.1-60.37-28.28a63.49,63.49,0,0,0-31.57,1.48c-9.54,3.09-18.17,8.29-27.13,12.68-19.69,9.67-40.53,9.51-61.13,2.65-41.45-13.82-70.23-49.16-107.59-70.19-17.17-9.67-36.77-16.16-56.62-16.24a75.36,75.36,0,0,0-28.22,5.07c-9.36,3.75-16.82,9.89-25.07,15.48-9,6.07-18.45,8.75-29.27,7.73-10.6-1-20.86-4.83-30.81-8.38-10.29-3.65-20.63-7.5-31.45-9.26-3.87-.63-10.73-2.63-13.94.37-2.09,2-3.48,5.15-5,7.52l-6.38,9.77c-3.54,5.4,5.12,10.42,8.63,5l10.65-16.28-4.32,2.48c34.77,1.54,69.26,32.36,103.57,11.83,8.13-4.87,15.08-11.45,23.68-15.57a64,64,0,0,1,27.18-5.82c19.29-.1,38.15,6.56,54.65,16.19,35.48,20.7,63.27,52.86,102.15,67.9,17.66,6.83,37.37,9.87,56,5.35,19.55-4.73,35.57-20.2,56.13-21.12,24.16-1.08,46.15,13.45,66.12,25.21l68.14,40.13c5.72,3.37,10-4.84,5-8.63l-12.47-9.59c-5.1-3.92-10.08,4.76-5,8.63Z" transform="translate(-60.38 -244.13)"/><path d="M1997.09,1592.81c-19.92-12.15-42.77-17.54-66-17-22.21.57-44,5.82-65.38,11.45-22.57,5.93-45.2,12.69-68.49,15.14-23.53,2.48-46.5-.77-69.36-6.39s-45.35-13-68.56-17.2-45.88-3.77-69.2.25c-22.93,4-47,10.52-70.37,6.12-12-2.25-21.77-8-32.06-14.2-10.47-6.29-21.3-10.76-33.47-12.38-26-3.47-52,4.4-76.39,12.28q-21.4,6.9-42.8,13.83l-20.47,6.61c-2.77.9-6.73,3.13-9.46,2s-4.88-4-5.9-6.63c-2.29-5.94-12-3.36-9.64,2.66a23.53,23.53,0,0,0,8.08,11,22.11,22.11,0,0,0,6.24,3.21c3.5,1.1,6.24-.32,9.62-1.41l37.22-12c23.83-7.7,47.77-16.88,72.59-20.87,12-1.93,24.66-2.38,36.59.46,12.19,2.9,22,9.79,32.72,15.87,20.85,11.83,43.77,12.2,67,8.89,24-3.43,47.49-9.94,71.9-8.94,23.9,1,47.12,7.55,70.06,13.84,22.77,6.25,45.79,12.46,69.48,13.75,23.11,1.26,46.06-3.08,68.4-8.64,50.11-12.47,104.44-32.52,152.67-3.1,5.51,3.36,10.54-5.29,5-8.64Z" transform="translate(-60.38 -244.13)"/><path d="M1179.78,1608.26c-6.09,4-13.33,3-20.16,1.88-6.51-1-13-2-19.58-2.33a161.54,161.54,0,0,0-112.72,37.86c-4.93,4.15,2.17,11.19,7.07,7.07a151.88,151.88,0,0,1,72.63-33.2,149.22,149.22,0,0,1,40.21-1.15c12.49,1.32,26.14,6,37.6-1.5,5.37-3.5.37-12.16-5-8.63Z" transform="translate(-60.38 -244.13)"/><path d="M921.53,1661.2l-58.63,25.55c-19.76,8.61-39.39,18.4-59.63,25.81-9.22,3.38-18.76,3-28.38,4a151.14,151.14,0,0,0-24,4.46,152.91,152.91,0,0,0-84.09,58.71c-3.75,5.24,4.92,10.24,8.64,5a143.05,143.05,0,0,1,78.85-54.32,135.26,135.26,0,0,1,23.63-4.19c9.16-.76,18.31-.65,27.1-3.73,9.57-3.36,18.79-7.93,28.07-12l28.4-12.37,65.05-28.34c5.88-2.57.8-11.19-5.05-8.64Z" transform="translate(-60.38 -244.13)"/><path d="M2407.08,1524.59a499.53,499.53,0,0,1,233.53,82.66c17.13,11.5,34.82,23.78,49.35,38.52,7.37,7.47,15.16,17.13,15.9,28.08.88,13.26-9.29,23-17.6,31.94-30,32.29-62.22,62.48-99.86,85.72-74.53,46-161.8,66.63-247,82.52-94.34,17.59-189.82,26.8-285.46,33.66q-291.46,20.89-584,19.31-145.61-.8-291.1-7.17c-95-4.16-190.2-9-284.84-18-80.27-7.63-165.63-28.54-206.24-105.71-9.68-18.4-17.25-39.74-17.65-60.71-.42-22.1,9.52-39.92,26.49-53.5,15.87-12.7,34.85-21.44,52.72-30.89l63.43-33.53,63.44-33.54c5.69-3,.64-11.64-5.05-8.63L737.5,1647c-32.71,17.29-70.62,36.78-74.92,77.92-4,38.66,16.39,80,40.69,108.85,25.91,30.71,61.66,50.42,99.8,61.8,40,12,82,15.56,123.49,18.78q77.61,6,155.36,10.45,154.44,8.79,309.17,11.29,308.36,5,616.44-15.12c100.18-6.54,200.38-14.47,299.52-30.84,90.38-14.92,183.63-33.88,265-77.7,39.57-21.3,74.26-49.32,105.73-81.25,13.4-13.6,34.47-30.18,37.67-50.16,2.81-17.51-8.8-33.17-20.73-44.61-30.11-28.89-68-52-105.21-70.45a509.6,509.6,0,0,0-120.3-42.16,514.89,514.89,0,0,0-62.15-9.25c-6.41-.57-6.37,9.43,0,10Z" transform="translate(-60.38 -244.13)"/><path d="M1016.5,1553.33q135.4-33.36,273.53-53.95,138.66-20.61,278.83-27.9c23.41-1.23,46.85-2.34,70.13-5.23,21.92-2.72,43.43-7.49,65.1-11.66,46.31-8.92,92.25-7,139.12-5.45,94,3.2,188,5.53,281.63,14a2621.82,2621.82,0,0,1,278.32,40.44q17,3.41,33.92,7c6.28,1.34,9-8.3,2.66-9.65a2660.17,2660.17,0,0,0-277.66-44.18c-93.61-9.84-187.5-13.21-281.51-16.41-46.57-1.58-94.09-5.9-140.57-1.34-22.34,2.19-44.25,7.08-66.25,11.4a556.48,556.48,0,0,1-70.45,9.06c-46.85,3.15-93.7,5.27-140.49,9.41q-69.43,6.13-138.53,15.55-139.54,18.94-276.88,51.12-16.8,3.93-33.56,8.07c-6.25,1.54-3.6,11.19,2.66,9.65Z" transform="translate(-60.38 -244.13)"/><path d="M996.41,1557.23c22.27,36.43,39.07,76.7,41.16,119.79.31,6.41,10.31,6.45,10,0-2.18-44.87-19.32-86.87-42.52-124.84-3.35-5.48-12-.46-8.64,5Z" transform="translate(-60.38 -244.13)"/><path d="M980.12,1532.73q8.16,11.54,15.68,23.5c3.4,5.45,12.06.43,8.63-5-5-8-10.24-15.81-15.68-23.5-3.68-5.21-12.36-.22-8.63,5Z" transform="translate(-60.38 -244.13)"/><path d="M163.89,941.07c31.94-11.53,65.91-4.73,96.23,8.47,15.08,6.56,29.29,14.83,43.61,22.87q22.2,12.48,44.27,25.17c57.58,33.13,114.45,67.54,169.81,104.28,56,37.13,110.35,76.63,162.46,119,6,4.9,13.63,9.67,18.55,15.66,5.13,6.25,11.86,11.16,18,16.48q19.5,17,38.44,34.57c24.67,22.9,48.63,46.55,72.12,70.65q18,18.46,35.7,37.24c6,6.35,12.39,12.51,17.84,19.33l7.8,9.75c2.47,3.08,5.68,5.13,8.09,8.19,5.12,6.5,11.05,12.11,16.66,18.15,5.45,5.87,9.52,12.81,15.66,17.94,3.22,2.69,5.65,6.69,8.27,10q4.2,5.27,8.47,10.47c5.57,6.83,11.19,13.63,16.71,20.5,5.67,7.06,11.2,14.2,16.53,21.51,3.75,5.15,12.43.17,8.63-5-10.46-14.36-21.75-28.06-33-41.82-5.69-7-11-14.47-17-21.16-2.45-2.74-5.25-4.59-7.61-7.54-3-3.73-5.81-7.69-9-11.25-5.5-6.13-11.6-11.6-16.75-18.08-2.26-2.86-5.12-4.7-7.45-7.42-2.91-3.39-5.6-7-8.4-10.5-11-13.74-24.13-26.15-36.31-38.85-23.73-24.78-47.86-49.17-72.68-72.86q-18.89-18-38.3-35.45-9.69-8.68-19.53-17.21-5-4.3-10-8.57c-3-2.55-5.09-5.69-8-8.24-25.73-22.45-53.31-43.12-80.64-63.55q-40.54-30.29-82.5-58.61C484.67,1067.27,427.08,1031.9,368.69,998c-29.45-17.1-58.84-34.94-89.23-50.33-29-14.66-61.84-25.9-94.73-21.81a108,108,0,0,0-23.5,5.59c-6,2.17-3.41,11.83,2.66,9.64Z" transform="translate(-60.38 -244.13)"/><path d="M959.84,1688.9c-12-37.86-37.67-68.7-63.93-97.63-28.22-31.11-56.67-62-85.85-92.26-58.48-60.56-120.91-117.74-192.17-163-37.24-23.66-76.23-44.38-115.55-64.32q-60.52-30.69-122.1-59.25c-41-19-82.41-37.17-124-55-18-7.72-36.41-15.87-52-28-16.18-12.64-26.58-29.71-37-47a389.44,389.44,0,0,0-35.16-49.63c-13.12-15.63-28-29-42.57-43.13-5.89-5.71-14.43-14.44-12.25-23.52,2.08-8.7,12.79-11.6,20.19-13.92q33-10.35,66.07-20.63l33-10.31c6.12-1.91,3.51-11.57-2.66-9.64L126,932.81c-11.15,3.48-22.34,6.86-33.45,10.45-7.87,2.54-16.18,5.81-21.26,12.69-11.9,16.14,3.35,33.84,15.22,44.45a380.64,380.64,0,0,1,43,44.85c13.36,16.57,24.32,34.51,35.43,52.61,10.69,17.39,23,32.6,39.9,44.29,16.2,11.19,34.47,18.89,52.5,26.55q31.65,13.46,63.08,27.44,63.84,28.44,126.65,59.15c40.39,19.76,80.69,39.88,119.87,62,38.71,21.8,76,45.94,110.88,73.44,33.33,26.25,64.71,54.89,94.87,84.7,30.7,30.34,60.15,61.91,89.36,93.68,27.23,29.64,57,58.86,76.26,94.57a160.09,160.09,0,0,1,11.9,27.92c1.94,6.12,11.59,3.51,9.64-2.65Z" transform="translate(-60.38 -244.13)"/><path d="M1952.72,1326a2299.7,2299.7,0,0,1,515.12,81c81,22.42,161,49.24,237.72,83.69,37,16.59,74,34.38,108.43,55.82,34.86,21.7,62.56,49.72,75.53,89.42,12,36.59,13.4,76.32,12,114.51-1.51,41-7.89,81.6-17.71,121.36-19.77,80-52.93,156.08-89.52,229.72-37.95,76.37-78.94,151.27-118.87,226.62l-63,119-30.93,58.39c-8.89,16.76-17.06,34.49-28.71,49.57-26.4,34.21-69.44,33.6-108.8,33.9l-135.09,1.05L2041.17,2592q-266.79,2.07-533.59,4.14c-178.35,1.35-356.74,2-535.09.29-41.56-.4-84.11-2.05-122.89-18.59-33-14.07-61.35-36.91-85.81-62.86-53.17-56.41-93.48-126.43-129.1-194.8-37.58-72.13-69-147.26-97.88-223.23-14.42-38-28.21-76.16-41.82-114.41-14-39.4-29.5-78.77-39.08-119.55-9.21-39.18-10.62-78.91-.65-118.06,9-35.49,26-68.58,47.4-98.14,45.68-63,111.62-106.78,180.11-141.68,34.48-17.57,69.93-33.15,105.35-48.69,5.88-2.58.8-11.2-5-8.64-136,59.68-293.92,134.15-336.47,290.76-22.06,81.2,7.31,158.12,34.3,234.16,27.79,78.28,56.14,156.42,88.83,232.82,32.93,76.95,70.41,152.17,115.91,222.52,38.55,59.61,83.8,121.77,149.1,153.95,35.33,17.41,74.09,22.67,113.06,24,45.44,1.51,91,.93,136.47,1.12q139.55.55,279.09,0c184.19-.79,368.37-2.64,552.55-4.07l280-2.18c91.82-.71,184.1,1.2,275.85-2.36,34.52-1.33,67.43-9.15,89.31-37.87,11.7-15.36,20.05-33.14,29.05-50.13l32.08-60.55q65.31-123.27,130.61-246.54c76.57-144.57,157.07-298.53,159-466.12.44-37.36-2-76.36-15.34-111.63-13-34.5-36.86-60.61-67.11-81.1-34.39-23.29-72.8-41.51-110.48-58.76-38.41-17.59-77.69-33.28-117.49-47.43-166.08-59-341.05-95.48-516.29-113q-66.06-6.6-132.41-9.37c-6.43-.28-6.42,9.72,0,10Z" transform="translate(-60.38 -244.13)"/><path d="M1983.75,1317.77c-35.83,3.57-71.74,7.15-107.78,7.06s-71.52-5.75-107.36-8.76c-36-3-72.06-1.08-108,2.46s-72.06,7.79-108.09,11.74l-213.76,23.46c-70.73,7.77-142.31,13.11-211.84,28.79-38.73,8.73-77.18,17.83-116.42,24.08-39.7,6.32-79.65,10.93-119.57,15.54-6.32.73-6.4,10.74,0,10,70.51-8.15,140.73-17,209.91-33.29,34.9-8.2,69.73-15.49,105.3-20.16s71.28-8.22,106.93-12.14l213.48-23.43q54.09-5.92,108.19-11.87c35.86-3.91,71.89-7.59,108-6.65,40.27,1.06,80,8.89,120.26,10s80.62-2.87,120.73-6.87c6.34-.63,6.41-10.64,0-10Z" transform="translate(-60.38 -244.13)"/><path d="M2128.15,1660.51a41.6,41.6,0,0,0-28.26-16.69c-13.21-1.72-26.13,2.12-39.21,3.25-26.15,2.26-51.85-5.82-74.86-17.71a5.12,5.12,0,0,0-6,.78c-5.42,5.24-4.11,13.15,1.58,17.47,5.13,3.89,10.12-4.79,5.05-8.63-.66-.5.14-1.49.44-1.77l-6.06.78c21.43,11.08,44.88,19.07,69.21,19.45,22.42.36,53-13.63,69.52,8.12,3.85,5.06,12.53.08,8.64-5Z" transform="translate(-60.38 -244.13)"/><path d="M2102.66,1638.32c.57-27.42-12.68-55.86-39.18-66.52-24.29-9.78-53.53-1.21-63.68,24.08-5,12.49-4.44,27.13,3.2,38.44,3.58,5.3,12.25.3,8.63-5-7-10.31-6.45-23.59-.39-34.25,6.77-11.9,19.58-17.71,33-17.26,31.52,1,49,31.83,48.4,60.56-.13,6.43,9.87,6.43,10,0Z" transform="translate(-60.38 -244.13)"/><path d="M2407,1756.34c-7.24,11.29-21.25,13.93-33.75,14.31-16.24.5-32.87-1.68-49-3.65-18.36-2.26-35.63-6.75-53.22-12.31-17-5.36-33.68-5.33-49.92,2.42-5.8,2.77-.73,11.4,5,8.64a51.63,51.63,0,0,1,26.75-4.93c9.25.81,18,4.46,26.77,7.21,18.11,5.67,37,8.32,55.82,10.21,25.81,2.59,63.46,9.09,80.1-16.85,3.48-5.43-5.17-10.45-8.64-5.05Z" transform="translate(-60.38 -244.13)"/><path d="M2415.45,1751a122.85,122.85,0,0,0-72.26-40.38c-13.21-2.14-29.24-4.55-36.4,9.49-7.73,15.12-13.76,31.38-20.56,46.94-2.55,5.84,6.06,10.94,8.63,5L2313,1730.7c1.28-2.93,2.43-6.55,4.62-9s5.41-2.7,8.63-2.7a95.26,95.26,0,0,1,19,2.09,114.15,114.15,0,0,1,63.21,37c4.23,4.86,11.28-2.24,7.07-7.07Z" transform="translate(-60.38 -244.13)"/><path d="M2119.73,1807.35c-22.42,23.55-56.43,29.74-86.35,18.27-15.59-6-30.22-10.54-46.68-4.76-13.7,4.8-25.43,14.78-31.42,28.11-2.61,5.82,6,10.91,8.63,5a44.45,44.45,0,0,1,33.63-25.63c16.82-2.61,31.24,7.79,47.12,11.22,29.45,6.36,61.36-3.36,82.14-25.19,4.44-4.66-2.62-11.74-7.07-7.07Z" transform="translate(-60.38 -244.13)"/><path d="M2112.86,1802.7c-17.94-24.35-48.09-39-78.48-36.55-15.2,1.22-30.71,6.41-41.72,17.34s-16.21,27.3-11.49,42.24c1.93,6.12,11.59,3.51,9.65-2.65-4-12.79,1.29-26.12,11.21-34.64s23.87-12.24,36.82-12.52c25.21-.55,50.38,11.48,65.38,31.83,3.77,5.13,12.45.14,8.63-5Z" transform="translate(-60.38 -244.13)"/><path d="M1921.42,1720.72a78.46,78.46,0,0,0-28,0c-9.26,1.72-17.52,5.71-26,9.65-16.88,7.86-35.23,7.8-51.16-2.42-5.44-3.48-10.46,5.17-5,8.64a60.19,60.19,0,0,0,50,7c9.32-2.93,17.61-8.36,26.93-11.26a65.31,65.31,0,0,1,30.64-2c6.29,1.1,9-8.54,2.66-9.64Z" transform="translate(-60.38 -244.13)"/><path d="M1895.93,1701.52c-1.63-16.44-19.74-26.54-35.17-21.71-18.15,5.69-24.64,27-21.31,44,1.07,5.45,10.47,4.3,9.82-1.33-1.84-16,12.85-32.87,29.67-29.92,15,2.64,24.79,19.89,20.35,34.17-1.92,6.15,7.73,8.79,9.64,2.65,6.2-19.89-7.82-43.34-28.6-46.68-22.24-3.56-43.61,17.59-41.06,39.78l9.82-1.33c-2.21-11.34,1.49-26.52,13.23-31.36,8.71-3.6,22.58,1.26,23.61,11.68.63,6.34,10.64,6.41,10,0Z" transform="translate(-60.38 -244.13)"/><path d="M1745.4,1802c-10.76-10.6-11.67-27.15-20.42-39.1-5-6.84-11.88-10.88-19.82-13.58-10.05-3.42-20.4-6.12-30.59-9.13-14.68-4.33-36.32-14.53-50-2.7-11.65,10-5.87,26.25-11.22,38.82-2.88,6.76-10.34,9.57-16.16,13.21-6.35,4-11.08,8.8-11.85,16.53-.63,6.4,9.37,6.35,10,0,.52-5.2,7.09-8,11-10.32,5-2.9,10.06-6,13.49-10.74,7.73-10.78,3.21-24.35,8.3-35.79,3-6.86,10.34-7.77,17-6.75,8.44,1.28,16.72,4.41,24.89,6.82,9.47,2.8,19,5.53,28.42,8.4,7.56,2.3,14.48,5.13,19,11.88,8.49,12.53,9.71,28.53,20.87,39.52,4.59,4.52,11.67-2.55,7.07-7.07Z" transform="translate(-60.38 -244.13)"/><path d="M1767.77,1807a259.43,259.43,0,0,1-110.36,3.9c-16.74-3.08-33.74-10.24-50.94-6.6-14.42,3.06-29.73,14.63-44.74,8.76-6-2.35-8.6,7.32-2.66,9.64,15.68,6.14,30.72-3.23,45.48-7.57,17.88-5.26,36.23,3.07,53.88,6.06a271.7,271.7,0,0,0,112-4.55c6.23-1.58,3.59-11.22-2.66-9.64Z" transform="translate(-60.38 -244.13)"/><path d="M1373.08,1834.76l-2.79,13.75c-1.27,6.29,8.37,9,9.64,2.66l2.79-13.75c1.27-6.28-8.36-9-9.64-2.66Z" transform="translate(-60.38 -244.13)"/><path d="M1460.82,1851.33l-53.63-2.61c-12.74-.63-36.29-2.66-34.13-21l-2.48,4.31c16.06-7.65,36.17-17.27,54.24-10.95,12.1,4.23,24.69,18.83,18.52,32.17-2.68,5.8,5.94,10.89,8.64,5,5.75-12.46,1.94-25.77-7.14-35.58-10.53-11.36-25.51-14.89-40.5-12.87-8.86,1.2-17.27,4-25.48,7.51-3.93,1.65-7.89,3.32-11.69,5.26-4,2-4.58,5-4.22,9.37,1.41,16.63,18.24,24.19,32.74,25.87,21.49,2.48,43.53,2.37,65.13,3.42,6.43.31,6.42-9.69,0-10Z" transform="translate(-60.38 -244.13)"/><path d="M1301.11,1805c-14,1.38-27.85,3.7-37.3,15.1-4,4.78-7,10.34-11.34,14.82-5.66,5.83-12.77,6.32-20.41,4.75s-15-4.11-22.84-5.19a126.74,126.74,0,0,0-25.46-.77c-8,.5-15.9,1.55-23.81,2.65-4.37.61-8.74,1.26-13.12,1.87-2,.28-4.1.56-6.15.82-1.24.16-2.49.31-3.73.45-1.36-.07-1.49,0-.38.34l1.46,3.54-3.31,3.16-4.31-2.48.35.54c3.51,5.36,12.17.36,8.63-5a6.21,6.21,0,0,0-11.25,1.74c-1.64,6.11,5,8.59,9.74,8.1,16-1.63,31.7-5,47.75-5.79a113.76,113.76,0,0,1,23.69.93c7.68,1.22,15,4,22.66,5.26,6.67,1.11,13.37,1.08,19.58-1.88,5.32-2.53,9.24-7,12.7-11.63,4-5.31,7.35-11.39,13-15.11,6.94-4.57,15.79-5.38,23.84-6.17,6.34-.63,6.41-10.63,0-10Z" transform="translate(-60.38 -244.13)"/><path d="M1143.93,1836.53c.7.6,1.58,1.73.42,2.51l6.84,6.84c2.11-4.9,2-9.5,1.07-14.69-.49-2.7-3.35-10-.69-12.1,2.18-1.76,7.32.75,9.62,1.29a23.3,23.3,0,0,0,9.4.49c5.92-1,11.17-4.67,15.1-9.12,8.56-9.67,10.72-25.23,22.35-32s25.72-3.27,36.12,3.94a67.74,67.74,0,0,1,16.17,16.32c4.31,6,8.87,14.49,5.16,21.85-2.89,5.73,5.73,10.8,8.64,5,7.48-14.83-2.55-30.17-12.53-41-10.17-11-23.84-19.68-39.27-19.73-16.12,0-27.54,9-34.66,22.88-3.4,6.64-6.31,14-12.29,18.85-3.17,2.54-6.7,3.8-10.74,3-3.82-.71-7.44-2.35-11.39-2.31-7.36.09-12.46,5.78-12.59,12.91-.1,5.89,4.32,13.69,1.9,19.33-1.76,4.08,2.21,10,6.84,6.84,6.13-4.14,7.53-13.14,1.6-18.22-4.86-4.16-12,2.88-7.07,7.07Z" transform="translate(-60.38 -244.13)"/><path d="M1047.37,1838.4q-26.52-6.78-53.58-11.06c-8.16-1.28-16.77-3.19-25-2.14-7.71,1-14.4,4.88-21.31,8.13-28.9,13.6-62.87,14.09-92.52,2.67-6-2.32-8.61,7.35-2.66,9.64a128.19,128.19,0,0,0,91.24.16c7.3-2.81,14.07-7.06,21.46-9.53,8.47-2.82,17.62-.63,26.18.71q27,4.24,53.58,11.06c6.24,1.6,8.9-8,2.66-9.64Z" transform="translate(-60.38 -244.13)"/><path d="M1007.82,1831.62l5.65-5.42a5,5,0,0,0,1.28-4.86c-5.75-20.17-28-31-47.94-27.31-22.13,4.11-37.4,25.35-41.48,46.36-1.22,6.29,8.42,9,9.65,2.66,3.3-17,14.31-34.17,32-38.82,15.16-4,33.71,4.14,38.17,19.77l1.29-4.87-5.65,5.42c-4.66,4.46,2.42,11.53,7.07,7.07Z" transform="translate(-60.38 -244.13)"/><path d="M904.42,1761.88c16.56-27.65,38.7-52.78,68.25-66.79a105.83,105.83,0,0,1,48.87-10.47c8.44.31,16.56,2.8,25,3.16,8.64.37,17.15-2.85,25.56-4.38a170.88,170.88,0,0,1,63.36.6c6.28,1.24,9-8.4,2.66-9.64a182.85,182.85,0,0,0-58-2.23c-9.51,1.19-18.66,4-28.09,5.37-9,1.31-18.13-2-27.07-2.69-35-2.57-68.85,13.51-93.91,37.09-13.92,13.09-25.46,28.58-35.25,44.93-3.32,5.54,5.32,10.57,8.63,5.05Z" transform="translate(-60.38 -244.13)"/><path d="M1377.75,1619.6c-8.24,11.64-23.38,15.27-36.51,18.19-16.64,3.71-33.45,7.17-50.47,8.48-16.85,1.3-33.91.43-50.06-4.87-14.44-4.73-29.66-13-44.64-5.18-7.24,3.77-12.24,10.5-17.29,16.67-5.22,6.4-12.76,14.76-22,12.58-6.26-1.48-8.93,8.16-2.66,9.65,17.33,4.1,27.65-11.09,37.61-22.34,5.69-6.43,12.1-10.73,21-9.72,8.77,1,16.94,5.26,25.23,8,34.33,11.27,71.56,4,105.85-3.61,16.11-3.59,32.52-8.72,42.48-22.79,3.73-5.26-4.94-10.26-8.63-5.05Z" transform="translate(-60.38 -244.13)"/><path d="M1301.86,1647.07c10-11.17,4.65-27.83-1.72-39.52a77.24,77.24,0,0,0-28.05-28.73,79,79,0,0,0-39.31-11.42c-12.83-.17-31.24,2.31-35.63,16.57-2.52,8.17-.06,16.72.82,24.92a91.1,91.1,0,0,1-2.88,34.11c-1.71,6.21,7.93,8.86,9.64,2.66,4.16-15.12,4.28-30,2-45.39-.77-5.33-2.09-12.9,2.13-17.18,3.95-4,11.87-4.94,17.23-5.43,22.5-2.07,45.54,8.39,59.51,26,6.23,7.86,17.68,26.82,9.15,36.33-4.29,4.77,2.76,11.87,7.07,7.07Z" transform="translate(-60.38 -244.13)"/><path d="M1591.58,1679.92c-18.77,5.11-38.19,1.89-57.34,2.17-18.86.28-35.6,6.68-53.66,11.1-8.34,2-17.2,3.44-25.67,1.36-8.74-2.15-15.5-8.4-23.73-11.74a47.83,47.83,0,0,0-45.38,5.63c-5.16,3.74-.18,12.42,5,8.63a38.76,38.76,0,0,1,23.32-7.62c8.67.09,15.66,3.45,22.93,7.86s14.38,7.37,22.82,8.08,16.9-.89,25-3c8.68-2.23,17.16-5.19,25.85-7.37a108.71,108.71,0,0,1,27.2-3c18.87.11,37.8,2.52,56.3-2.51,6.2-1.69,3.57-11.34-2.66-9.65Z" transform="translate(-60.38 -244.13)"/><path d="M1570.64,1668.51a77.24,77.24,0,0,0-69.82-24.1c-24.43,4.25-46,21.67-55.92,44.3-2.55,5.84,6.06,10.94,8.63,5,8.79-20.11,26.88-35.18,48.52-39.44,22.52-4.44,46.3,4.42,61.52,21.26,4.33,4.79,11.38-2.3,7.07-7.07Z" transform="translate(-60.38 -244.13)"/><path d="M1761.92,1679.47c-19.13,1-36.07-8.53-53.63-14.6-16.17-5.6-33.77-8.19-49.71-.53-5.8,2.78-.74,11.4,5,8.63,15.51-7.44,33.42-1.9,48.49,3.94,16.09,6.24,32.15,13.48,49.81,12.56,6.4-.34,6.44-10.34,0-10Z" transform="translate(-60.38 -244.13)"/><path d="M1762.9,1693.07a71.23,71.23,0,0,0-30.18-52.25c-7.3-5.12-19.78-12.52-28.92-8.86-5.39,2.15-7.94,8-10.72,12.71L1682.2,1663c-3.28,5.55,5.36,10.58,8.64,5l8.41-14.19,4-6.68c1-1.75,2.13-4.56,3.94-5.63,3.23-1.91,9.37,1.53,12.47,3.07a59,59,0,0,1,10.44,6.59c12.82,10.17,21.48,25.46,22.85,41.83.53,6.37,10.53,6.42,10,0Z" transform="translate(-60.38 -244.13)"/></g></g></svg>